<svg width="593" height="203" viewBox="0 0 593 203" fill="none" xmlns="http://www.w3.org/2000/svg">
<path d="M319.75 89.9998L319.162 90.8085L319.168 90.8129L319.174 90.8171L319.75 89.9998ZM361.25 119.25L361.852 118.451L361.839 118.441L361.826 118.432L361.25 119.25ZM581.667 5.99976C581.667 8.94527 584.054 11.3331 587 11.3331C589.946 11.3331 592.333 8.94527 592.333 5.99976C592.333 3.05424 589.946 0.666423 587 0.666423C584.054 0.666423 581.667 3.05424 581.667 5.99976ZM262 47.9998L262.588 47.191L262.575 47.1812L262.561 47.1718L262 47.9998ZM0.666667 197C0.666667 199.945 3.05448 202.333 6 202.333C8.94552 202.333 11.3333 199.945 11.3333 197C11.3333 194.054 8.94552 191.666 6 191.666C3.05448 191.666 0.666667 194.054 0.666667 197ZM319.174 90.8171L360.674 120.067L361.826 118.432L320.326 89.1824L319.174 90.8171ZM360.648 120.049C370.737 127.646 379.291 133.749 389.459 135.029C399.677 136.316 411.305 132.721 427.565 121.575L426.435 119.925C410.334 130.961 399.212 134.241 389.708 133.045C380.153 131.842 372.013 126.103 361.852 118.451L360.648 120.049ZM427.565 121.575C458.579 100.315 520.093 55.805 587.587 6.80901L586.413 5.1905C518.907 54.1945 457.421 98.6845 426.435 119.925L427.565 121.575ZM320.338 89.191L262.588 47.191L261.412 48.8085L319.162 90.8085L320.338 89.191ZM262.561 47.1718C258.759 44.5967 253.218 40.2444 245.894 38.7512C238.48 37.2396 229.376 38.6626 218.386 47.2104L219.614 48.7891C230.224 40.5369 238.745 39.3349 245.494 40.7108C252.332 42.1051 257.491 46.1528 261.439 48.8277L262.561 47.1718ZM218.386 47.2104C196.816 63.987 67.4531 153.496 5.4331 196.176L6.5669 197.824C68.5469 155.171 197.984 65.6125 219.614 48.7891L218.386 47.2104Z" fill="#DCDCDC"/>
</svg>
