<svg width="30" height="26" viewBox="0 0 30 26" fill="none" xmlns="http://www.w3.org/2000/svg">
<path d="M21.6965 15.0756L20.986 14.8355L20.9859 14.8356L21.6965 15.0756ZM23.0015 13.9713L23.3125 14.6538L23.3125 14.6538L23.0015 13.9713ZM24.2331 13.5248L24.1727 12.7773L24.1726 12.7773L24.2331 13.5248ZM25.2248 13.7381L24.8577 14.3921L24.8578 14.3922L25.2248 13.7381ZM26.1734 14.7194L26.7524 14.2427L26.7524 14.2427L26.1734 14.7194ZM28.3563 17.9515L27.6329 18.1492L27.6329 18.1492L28.3563 17.9515ZM28.3563 20.0866L27.6329 19.8889L27.6328 19.889L28.3563 20.0866ZM26.1073 23.399L25.5283 22.9223L25.5283 22.9223L26.1073 23.399ZM25.2248 24.3L25.5918 24.9541L25.5919 24.9541L25.2248 24.3ZM24.2331 24.5133L24.1726 25.2609L24.1727 25.2609L24.2331 24.5133ZM23.0015 24.0668L23.3125 23.3843L23.3125 23.3843L23.0015 24.0668ZM21.6965 22.9626L20.9859 23.2025L20.986 23.2026L21.6965 22.9626ZM7.37438 14.4433L6.88222 15.0093L6.88223 15.0093L7.37438 14.4433ZM6.49851 13.9714L6.80945 13.2889L6.80931 13.2889L6.49851 13.9714ZM5.26685 13.5251L5.32735 12.7776H5.32735L5.26685 13.5251ZM3.32668 14.7197L3.90568 15.1964L3.90571 15.1964L3.32668 14.7197ZM1.14363 17.9517L0.420144 17.754L0.420138 17.754L1.14363 17.9517ZM1.14363 20.0869L1.86712 19.8892L1.86712 19.8892L1.14363 20.0869ZM3.39279 23.3993L2.81376 23.8759L2.81379 23.876L3.39279 23.3993ZM5.26685 24.5136L5.32725 25.2611L5.32735 25.2611L5.26685 24.5136ZM6.49851 24.0671L6.80931 24.7497L6.80945 24.7496L6.49851 24.0671ZM7.37438 23.5952L6.88223 23.0293L6.88222 23.0293L7.37438 23.5952ZM23.625 13.5191V14.2691H25.125V13.5191H23.625ZM4.37501 13.5191V14.2691H5.875V13.5191H4.37501ZM22.375 16.0002C22.375 15.4723 22.3844 15.3828 22.4071 15.3155L20.9859 14.8356C20.8657 15.1918 20.875 15.5776 20.875 16.0002H22.375ZM22.4071 15.3156C22.4938 15.0589 22.6963 14.9345 23.3125 14.6538L22.6906 13.2888C22.2087 13.5083 21.3151 13.8613 20.986 14.8355L22.4071 15.3156ZM23.3125 14.6538C23.984 14.3479 24.1506 14.284 24.2936 14.2724L24.1726 12.7773C23.704 12.8152 23.2536 13.0323 22.6906 13.2888L23.3125 14.6538ZM24.2935 14.2724C24.4958 14.2561 24.6942 14.3004 24.8577 14.3921L25.5918 13.084C25.1619 12.8428 24.6648 12.7375 24.1727 12.7773L24.2935 14.2724ZM24.8578 14.3922C24.9466 14.442 25.0476 14.5294 25.1763 14.6768C25.3312 14.8543 25.4051 14.9663 25.5944 15.1962L26.7524 14.2427C26.6608 14.1315 26.4571 13.8631 26.3063 13.6904C26.1292 13.4876 25.8964 13.2549 25.5917 13.084L24.8578 14.3922ZM25.5944 15.1962C26.2501 15.9925 26.7152 16.5583 27.0491 17.0324C27.3778 17.499 27.5462 17.8321 27.6329 18.1492L29.0798 17.7539C28.9291 17.2022 28.6547 16.707 28.2755 16.1686C27.9015 15.6377 27.3939 15.0218 26.7524 14.2427L25.5944 15.1962ZM27.6329 18.1492C27.789 18.7208 27.789 19.3174 27.6329 19.8889L29.0798 20.2843C29.3067 19.4539 29.3067 18.5842 29.0798 17.7538L27.6329 18.1492ZM27.6328 19.889C27.497 20.3863 27.2037 20.8782 26.8096 21.3939C26.3948 21.9368 25.9807 22.3727 25.5283 22.9223L26.6863 23.8757C27.0432 23.4421 27.5806 22.8554 28.0015 22.3046C28.4431 21.7267 28.8696 21.054 29.0798 20.2842L27.6328 19.889ZM25.5283 22.9223C25.0745 23.4734 24.9669 23.5847 24.8577 23.646L25.5919 24.9541C26.0054 24.722 26.312 24.3302 26.6863 23.8757L25.5283 22.9223ZM24.8577 23.646C24.6942 23.7377 24.4958 23.7821 24.2935 23.7657L24.1727 25.2609C24.6648 25.3006 25.1619 25.1954 25.5918 24.9541L24.8577 23.646ZM24.2936 23.7657C24.1506 23.7542 23.984 23.6902 23.3125 23.3843L22.6906 24.7493C23.2536 25.0058 23.704 25.2229 24.1726 25.2609L24.2936 23.7657ZM23.3125 23.3843C22.6963 23.1036 22.4938 22.9792 22.4071 22.7225L20.986 23.2026C21.3151 24.1769 22.2087 24.5298 22.6906 24.7494L23.3125 23.3843ZM22.4071 22.7226C22.3844 22.6553 22.375 22.5659 22.375 22.0379H20.875C20.875 22.4606 20.8657 22.8463 20.9859 23.2025L22.4071 22.7226ZM22.375 22.0379V16.0002H20.875V22.0379H22.375ZM8.62501 16.0004C8.62501 15.4288 8.63581 14.5464 7.86654 13.8774L6.88223 15.0093C7.08061 15.1818 7.12501 15.3752 7.12501 16.0004H8.62501ZM7.86655 13.8774C7.5885 13.6356 7.23178 13.4813 6.80945 13.2889L6.18756 14.6539C6.69842 14.8867 6.80832 14.945 6.88222 15.0093L7.86655 13.8774ZM6.80931 13.2889C6.24637 13.0325 5.79586 12.8155 5.32735 12.7776L5.20635 14.2727C5.34944 14.2842 5.51617 14.3482 6.18771 14.654L6.80931 13.2889ZM5.32735 12.7776C3.95866 12.6668 3.22125 13.6678 2.74766 14.243L3.90571 15.1964C4.49028 14.4863 4.7401 14.2349 5.20635 14.2727L5.32735 12.7776ZM2.74768 14.243C2.10625 15.0221 1.59854 15.6379 1.22458 16.1688C0.845388 16.7071 0.570856 17.2023 0.420144 17.754L1.86712 18.1493C1.95373 17.8323 2.12215 17.4993 2.45087 17.0326C2.78481 16.5586 3.24996 15.9928 3.90568 15.1964L2.74768 14.243ZM0.420138 17.754C0.193291 18.5845 0.193281 19.4542 0.420148 20.2846L1.86712 19.8892C1.71096 19.3177 1.71095 18.721 1.86713 18.1493L0.420138 17.754ZM0.420144 20.2845C0.630441 21.0543 1.05694 21.727 1.49854 22.3049C1.91932 22.8555 2.4569 23.4425 2.81376 23.8759L3.97183 22.9226C3.51923 22.3728 3.10531 21.9371 2.6904 21.3941C2.29633 20.8784 2.00297 20.3865 1.86712 19.8892L0.420144 20.2845ZM2.81379 23.876C3.29284 24.4578 4.01425 25.3672 5.32725 25.2611L5.20645 23.766C4.76663 23.8015 4.51322 23.5802 3.97179 22.9226L2.81379 23.876ZM5.32735 25.2611C5.79592 25.2232 6.2466 25.0059 6.80931 24.7497L6.18771 23.3845C5.51594 23.6904 5.34938 23.7544 5.20635 23.766L5.32735 25.2611ZM6.80945 24.7496C7.23179 24.5572 7.58851 24.4029 7.86655 24.1611L6.88222 23.0293C6.80832 23.0936 6.69841 23.1519 6.18756 23.3846L6.80945 24.7496ZM7.86654 24.1611C8.6358 23.4922 8.62501 22.6099 8.62501 22.0382H7.12501C7.12501 22.6635 7.08061 22.8568 6.88223 23.0293L7.86654 24.1611ZM8.62501 22.0382V16.0004H7.12501V22.0382H8.62501ZM25.125 13.5191V10.7691H23.625V13.5191H25.125ZM25.125 10.7691C25.125 5.0391 20.48 0.394043 14.75 0.394043V1.89404C19.6516 1.89404 23.625 5.86753 23.625 10.7691H25.125ZM14.75 0.394043C9.02006 0.394043 4.37501 5.0391 4.37501 10.7691H5.875C5.875 5.86753 9.84849 1.89404 14.75 1.89404V0.394043ZM4.37501 10.7691V13.5191H5.875V10.7691H4.37501Z" fill="white"/>
</svg>
