<svg width="40" height="40" viewBox="0 0 40 40" fill="none" xmlns="http://www.w3.org/2000/svg">
<path d="M5.75 18.7291H6.5C6.5 18.4614 6.35729 18.2139 6.12554 18.0799L5.75 18.7291ZM6.03926 34.1301L6.73218 33.8431L6.73215 33.8431L6.03926 34.1301ZM7.97598 36.476L7.44563 37.0064L7.44566 37.0064L7.97598 36.476ZM10.5 39L9.96968 39.5303C10.2626 39.8232 10.7374 39.8232 11.0303 39.5303L10.5 39ZM14.5056 34.9944L13.9753 34.464L13.9752 34.4641L14.5056 34.9944ZM14.8594 34.6171L15.455 35.0729L15.4551 35.0727L14.8594 34.6171ZM15.2333 33.7142L14.4899 33.615L14.4899 33.6151L15.2333 33.7142ZM15.2388 32.7773L14.4932 32.8586L14.4932 32.8586L15.2388 32.7773ZM14.9847 32.0148L14.3394 32.3971L14.3394 32.3971L14.9847 32.0148ZM14.7417 31.6723L14.1417 32.1223L14.1418 32.1224L14.7417 31.6723ZM12.4 28.55L11.8 28.1C11.6 28.3667 11.6 28.7333 11.8 29L12.4 28.55ZM13.73 26.7767L14.33 27.2267L14.33 27.2267L13.73 26.7767ZM15.055 24.685L15.7665 24.9222L15.7665 24.9222L15.055 24.685ZM15.25 18.7291L14.8745 18.0799C14.6427 18.2139 14.5 18.4614 14.5 18.7291H15.25ZM10.5 9.75C10.0858 9.75 9.75 10.0858 9.75 10.5C9.75 10.9142 10.0858 11.25 10.5 11.25V9.75ZM10.5171 11.25C10.9313 11.25 11.2671 10.9142 11.2671 10.5C11.2671 10.0858 10.9313 9.75 10.5171 9.75V11.25ZM21.9 23.05C21.4858 23.05 21.15 23.3858 21.15 23.8C21.15 24.2142 21.4858 24.55 21.9 24.55V23.05ZM36.6543 24.0892L36.9413 23.3963L36.9412 23.3962L36.6543 24.0892ZM38.7108 26.1457L39.4038 25.8588L39.4037 25.8587L38.7108 26.1457ZM38.7108 32.8543L39.4037 33.1413L39.4038 33.1412L38.7108 32.8543ZM36.6543 34.9108L36.9412 35.6038L36.9413 35.6037L36.6543 34.9108ZM21.9 34.45C21.4858 34.45 21.15 34.7858 21.15 35.2C21.15 35.6142 21.4858 35.95 21.9 35.95V34.45ZM25.7 5.95C25.2858 5.95 24.95 6.28579 24.95 6.7C24.95 7.11421 25.2858 7.45 25.7 7.45V5.95ZM36.6543 6.98926L36.9413 6.29636L36.9412 6.29633L36.6543 6.98926ZM38.7108 9.0458L39.4038 8.75886L39.4037 8.75877L38.7108 9.0458ZM38.7108 15.7542L39.4037 16.0412L39.4038 16.0411L38.7108 15.7542ZM36.6543 17.8108L36.9412 18.5038L36.9413 18.5037L36.6543 17.8108ZM25.7 17.35C25.2858 17.35 24.95 17.6858 24.95 18.1C24.95 18.5142 25.2858 18.85 25.7 18.85V17.35ZM10.5 0.25C4.83909 0.25 0.25 4.83909 0.25 10.5H1.75C1.75 5.66752 5.66752 1.75 10.5 1.75V0.25ZM0.25 10.5C0.25 14.2949 2.31268 17.6072 5.37446 19.3783L6.12554 18.0799C3.50822 16.5659 1.75 13.7378 1.75 10.5H0.25ZM5 18.7291V31.1019H6.5V18.7291H5ZM5 31.1019C5 32.5939 4.98672 33.549 5.34636 34.4171L6.73215 33.8431C6.51328 33.3147 6.5 32.7164 6.5 31.1019H5ZM5.34633 34.4171C5.70595 35.2854 6.39062 35.9513 7.44563 37.0064L8.50633 35.9457C7.36471 34.804 6.95107 34.3717 6.73218 33.8431L5.34633 34.4171ZM7.44566 37.0064L9.96968 39.5303L11.0303 38.4697L8.50631 35.9457L7.44566 37.0064ZM11.0303 39.5303L15.0359 35.5247L13.9752 34.4641L9.96967 38.4697L11.0303 39.5303ZM15.0358 35.5248C15.2068 35.3539 15.3412 35.2216 15.455 35.0729L14.2638 34.1613C14.2243 34.2128 14.1738 34.2656 13.9753 34.464L15.0358 35.5248ZM15.4551 35.0727C15.7358 34.7056 15.9156 34.2715 15.9767 33.8134L14.4899 33.6151C14.4634 33.8139 14.3853 34.0023 14.2636 34.1615L15.4551 35.0727ZM15.9767 33.8134C16.0015 33.6275 16 33.4386 16 33.1972H14.5C14.5 33.4784 14.4985 33.5509 14.4899 33.615L15.9767 33.8134ZM16 33.1972C16 33.0016 16.001 32.8487 15.9844 32.696L14.4932 32.8586C14.499 32.9115 14.5 32.9699 14.5 33.1972H16ZM15.9844 32.696C15.9434 32.3202 15.8225 31.9577 15.63 31.6326L14.3394 32.3971C14.423 32.5382 14.4754 32.6956 14.4932 32.8586L15.9844 32.696ZM15.63 31.6326C15.5516 31.5004 15.4589 31.3785 15.3416 31.2221L14.1418 32.1224C14.2782 32.3042 14.3123 32.3514 14.3394 32.3971L15.63 31.6326ZM15.3417 31.2223L13 28.1L11.8 29L14.1417 32.1223L15.3417 31.2223ZM13 29L14.33 27.2267L13.13 26.3267L11.8 28.1L13 29ZM14.33 27.2267C15.0543 26.2609 15.5241 25.6493 15.7665 24.9222L14.3435 24.4478C14.1958 24.8908 13.9124 25.2835 13.13 26.3268L14.33 27.2267ZM15.7665 24.9222C16.0089 24.1951 16 23.4238 16 22.2167H14.5C14.5 23.5207 14.4911 24.0049 14.3435 24.4479L15.7665 24.9222ZM16 22.2167V18.7291H14.5V22.2167H16ZM15.6255 19.3783C18.6873 17.6072 20.75 14.2949 20.75 10.5H19.25C19.25 13.7378 17.4918 16.5659 14.8745 18.0799L15.6255 19.3783ZM20.75 10.5C20.75 4.83909 16.1609 0.25 10.5 0.25V1.75C15.3325 1.75 19.25 5.66752 19.25 10.5H20.75ZM10.5 11.25H10.5171V9.75H10.5V11.25ZM21.9 24.55H33.3V23.05H21.9V24.55ZM33.3 24.55C34.1956 24.55 34.8297 24.5504 35.3282 24.5844C35.8199 24.618 36.1247 24.6817 36.3674 24.7821L36.9412 23.3962C36.4854 23.2075 35.9984 23.1266 35.4302 23.0879C34.8689 23.0496 34.175 23.05 33.3 23.05V24.55ZM36.3672 24.7821C37.1145 25.0917 37.7083 25.6855 38.0179 26.4328L39.4037 25.8587C38.9419 24.7439 38.0561 23.8581 36.9413 23.3963L36.3672 24.7821ZM38.0179 26.4326C38.1183 26.6753 38.182 26.9801 38.2156 27.4718C38.2496 27.9703 38.25 28.6044 38.25 29.5H39.75C39.75 28.625 39.7504 27.9311 39.7121 27.3698C39.6734 26.8016 39.5925 26.3146 39.4038 25.8588L38.0179 26.4326ZM38.25 29.5C38.25 30.3956 38.2496 31.0297 38.2156 31.5282C38.182 32.0199 38.1183 32.3247 38.0179 32.5674L39.4038 33.1412C39.5925 32.6854 39.6734 32.1984 39.7121 31.6302C39.7504 31.0689 39.75 30.375 39.75 29.5H38.25ZM38.0179 32.5672C37.7083 33.3145 37.1145 33.9083 36.3672 34.2179L36.9413 35.6037C38.0561 35.1419 38.9419 34.2561 39.4037 33.1413L38.0179 32.5672ZM36.3674 34.2179C36.1247 34.3183 35.8199 34.382 35.3282 34.4156C34.8297 34.4496 34.1956 34.45 33.3 34.45V35.95C34.175 35.95 34.8689 35.9504 35.4302 35.9121C35.9984 35.8734 36.4854 35.7925 36.9412 35.6038L36.3674 34.2179ZM33.3 34.45H21.9V35.95H33.3V34.45ZM25.7 7.45H33.3V5.95H25.7V7.45ZM33.3 7.45C34.1956 7.45 34.8297 7.45041 35.3281 7.48442C35.8199 7.51797 36.1247 7.5817 36.3673 7.68218L36.9412 6.29633C36.4854 6.10756 35.9984 6.02666 35.4302 5.9879C34.8689 5.94959 34.175 5.95 33.3 5.95V7.45ZM36.3672 7.68215C37.1145 7.99172 37.7083 8.58551 38.0179 9.33283L39.4037 8.75877C38.9419 7.64389 38.056 6.75815 36.9413 6.29636L36.3672 7.68215ZM38.0179 9.33274C38.1183 9.57532 38.182 9.88009 38.2156 10.3719C38.2496 10.8703 38.25 11.5045 38.25 12.4H39.75C39.75 11.525 39.7504 10.8312 39.7121 10.2698C39.6734 9.70166 39.5925 9.21462 39.4038 8.75886L38.0179 9.33274ZM38.25 12.4C38.25 13.2955 38.2496 13.9297 38.2156 14.4281C38.182 14.9199 38.1183 15.2247 38.0179 15.4673L39.4038 16.0411C39.5925 15.5854 39.6734 15.0983 39.7121 14.5302C39.7504 13.9688 39.75 13.275 39.75 12.4H38.25ZM38.0179 15.4672C37.7083 16.2145 37.1145 16.8083 36.3672 17.1179L36.9413 18.5037C38.0561 18.0419 38.9419 17.156 39.4037 16.0412L38.0179 15.4672ZM36.3674 17.1179C36.1247 17.2183 35.8199 17.282 35.3282 17.3156C34.8297 17.3496 34.1956 17.35 33.3 17.35V18.85C34.175 18.85 34.8689 18.8504 35.4302 18.8121C35.9984 18.7734 36.4854 18.6925 36.9412 18.5038L36.3674 17.1179ZM33.3 17.35H25.7V18.85H33.3V17.35Z" fill="#0B41FF"/>
</svg>
