<svg width="44" height="45" viewBox="0 0 44 45" fill="none" xmlns="http://www.w3.org/2000/svg">
<path d="M14.1611 31.0856C15.6628 28.4895 18.4697 26.7427 21.6847 26.7427C24.8997 26.7427 27.7066 28.4895 29.2083 31.0856M41.7137 12.043L40.6526 10.2017C39.8502 8.80907 39.4491 8.11279 38.7664 7.83513C38.0836 7.55748 37.3115 7.77657 35.7674 8.21475L33.1445 8.95357C32.1587 9.18091 31.1243 9.05193 30.2242 8.58945L29.5 8.17163C28.7281 7.67724 28.1344 6.9483 27.8057 6.09149L27.088 3.94751C26.6159 2.52873 26.3799 1.81933 25.818 1.41357C25.2563 1.00781 24.5099 1.00781 23.0172 1.00781H20.6209C19.1284 1.00781 18.382 1.00781 17.8201 1.41357C17.2583 1.81933 17.0223 2.52873 16.5503 3.94751L15.8324 6.09149C15.5038 6.9483 14.9101 7.67724 14.1382 8.17163L13.4141 8.58945C12.5139 9.05193 11.4796 9.18091 10.4938 8.95357L7.87077 8.21475C6.32661 7.77657 5.55456 7.55748 4.87189 7.83513C4.18921 8.11279 3.78801 8.80907 2.98556 10.2017L1.92456 12.043C1.17239 13.3484 0.79629 14.001 0.869291 14.6958C0.94227 15.3906 1.44575 15.9505 2.45269 17.0704L4.66903 19.5482C5.21073 20.2339 5.59532 21.4291 5.59532 22.5037C5.59532 23.5787 5.21086 24.7735 4.66909 25.4594L2.45269 27.9373C1.44575 29.0572 0.942292 29.617 0.869291 30.3119C0.79629 31.0067 1.17239 31.6593 1.92456 32.9645L2.98554 34.8059C3.78797 36.1984 4.18921 36.8949 4.87189 37.1724C5.55456 37.4501 6.32664 37.2311 7.87081 36.7928L10.4937 36.054C11.4797 35.8265 12.5142 35.9557 13.4144 36.4183L14.1385 36.8362C14.9102 37.3306 15.5038 38.0593 15.8324 38.9162L16.5503 41.0604C17.0223 42.4792 17.2583 43.1885 17.8201 43.5944C18.382 44 19.1284 44 20.6209 44H23.0172C24.5099 44 25.2563 44 25.818 43.5944C26.3799 43.1885 26.6159 42.4792 27.088 41.0604L27.8059 38.9162C28.1344 38.0593 28.7279 37.3306 29.4998 36.8362L30.2238 36.4183C31.1241 35.9557 32.1585 35.8265 33.1445 36.054L35.7674 36.7928C37.3115 37.2311 38.0836 37.4501 38.7664 37.1724C39.4491 36.8949 39.8502 36.1984 40.6526 34.8059L41.7137 32.9645C42.4658 31.6593 42.8418 31.0067 42.7689 30.3119C42.6959 29.617 42.1924 29.0572 41.1855 27.9373L38.9691 25.4594C38.4274 24.7735 38.0428 23.5787 38.0428 22.5037C38.0428 21.4291 38.4276 20.2339 38.9691 19.5482L41.1855 17.0704C42.1924 15.9505 42.6959 15.3906 42.7689 14.6958C42.8418 14.001 42.4658 13.3484 41.7137 12.043ZM25.9839 17.1131C25.9839 19.4876 24.0592 21.4123 21.6847 21.4123C19.3105 21.4123 17.3855 19.4876 17.3855 17.1131C17.3855 14.7387 19.3105 12.8139 21.6847 12.8139C24.0592 12.8139 25.9839 14.7387 25.9839 17.1131Z" stroke="#0B41FF" stroke-width="1.5" stroke-linecap="round"/>
</svg>
