<svg width="44" height="44" viewBox="0 0 44 44" fill="none" xmlns="http://www.w3.org/2000/svg">
<path d="M0.777832 43H23.8778C34.3161 43 42.7778 34.5383 42.7778 24.1C42.7778 13.6618 34.3161 5.2 23.8778 5.2C14.1495 5.2 6.02246 12.5501 4.97783 22M35.4278 8.35L37.5278 6.25M8.12783 6.25L10.2278 8.35M31.2278 15.7L25.0553 21.8725M25.0553 21.8725C24.4852 21.3026 23.6977 20.95 22.8278 20.95C21.0882 20.95 19.6778 22.3604 19.6778 24.1C19.6778 25.8396 21.0882 27.25 22.8278 27.25C24.5675 27.25 25.9778 25.8396 25.9778 24.1C25.9778 23.2302 25.6252 22.4427 25.0553 21.8725ZM22.8278 4.15V1M18.6278 1H27.0278M0.777832 28.3H7.07783M0.777832 36.7H11.2778" stroke="#0B41FF" stroke-width="1.5" stroke-linecap="round"/>
</svg>
