<svg width="40" height="36" viewBox="0 0 40 36" fill="none" xmlns="http://www.w3.org/2000/svg">
<path d="M30.45 29.3999C35.1721 29.3999 39 25.572 39 20.8499C39 16.1278 35.1721 12.2999 30.45 12.2999C30.4357 12.2999 30.4215 12.2999 30.4074 12.3M30.4074 12.3C30.4356 11.9871 30.45 11.6702 30.45 11.3499C30.45 5.57852 25.7714 0.899902 20 0.899902C14.5342 0.899902 10.0484 5.09628 9.5888 10.443M30.4074 12.3C30.2849 13.6583 29.9026 14.9417 29.3106 16.0999M9.5888 10.443C4.76956 10.9016 1 14.9605 1 19.8999C1 24.496 4.26374 28.3296 8.6 29.2099M9.5888 10.443C9.88869 10.4145 10.1926 10.3999 10.5 10.3999C12.6391 10.3999 14.613 11.1069 16.2009 12.2999M14.3 31.2999C14.3 31.2999 16.2 31.2999 18.1 35.0999C18.1 35.0999 24.1353 25.5999 29.5 23.6999" stroke="#0B41FF" stroke-width="1.5" stroke-linecap="round" stroke-linejoin="round"/>
</svg>
