<svg width="1922" height="1137" viewBox="0 0 1922 1137" fill="none" xmlns="http://www.w3.org/2000/svg">
<path d="M1920 0.171143H0V419.047L636.223 716.449H1272.45L1920 948.925V0.171143Z" fill="url(#paint0_linear_116_5892)"/>
<path d="M0.000366211 1H1358H1921.26L633.754 797.556C593.618 822.388 544.136 826.881 500.184 809.686L0.000366211 614V340.942V1Z" fill="url(#paint1_linear_116_5892)"/>
<path d="M0.00012207 1.00004L1314.1 1V417.611L632.011 802.049C592.768 824.168 545.662 827.478 503.711 811.066L0.00012207 614V340.942V1.00004Z" fill="url(#paint2_linear_116_5892)"/>
<path d="M1289 353L636 716C611.917 730.118 621.93 767 649.846 767H1233L1920 1137V1L1289 353Z" fill="url(#paint3_linear_116_5892)"/>
<defs>
<linearGradient id="paint0_linear_116_5892" x1="-4.78732e-05" y1="0.171238" x2="1583.46" y2="793.941" gradientUnits="userSpaceOnUse">
<stop stop-color="#174AFF"/>
<stop offset="1" stop-color="#000A2C"/>
</linearGradient>
<linearGradient id="paint1_linear_116_5892" x1="252.001" y1="202.999" x2="714.796" y2="699.098" gradientUnits="userSpaceOnUse">
<stop stop-color="#031D7A"/>
<stop offset="1" stop-color="#3D42FF"/>
</linearGradient>
<linearGradient id="paint2_linear_116_5892" x1="762.878" y1="27.0199" x2="1496.15" y2="247.767" gradientUnits="userSpaceOnUse">
<stop stop-color="#031D7A"/>
<stop offset="1" stop-color="#0006B9"/>
</linearGradient>
<linearGradient id="paint3_linear_116_5892" x1="1698.32" y1="207.333" x2="641.576" y2="750.46" gradientUnits="userSpaceOnUse">
<stop stop-color="#0B2274"/>
<stop offset="1" stop-color="#0030DA"/>
</linearGradient>
</defs>
</svg>
