<svg width="29" height="29" viewBox="0 0 29 29" fill="none" xmlns="http://www.w3.org/2000/svg">
<path d="M28.251 22.8655V15.0263C28.2949 11.398 26.9646 7.88736 24.5272 5.1993C22.0898 2.51124 18.7257 0.844759 15.1104 0.534444C13.0925 0.393266 11.0679 0.687155 9.17342 1.39623C7.27895 2.1053 5.55889 3.21301 4.12961 4.64441C2.70032 6.07582 1.59516 7.79752 0.888901 9.69303C0.182639 11.5885 -0.108248 13.6136 0.0359214 15.6313C0.556178 23.1103 7.16062 28.7507 15.4012 28.7507H22.3658C23.9261 28.7489 25.4219 28.1282 26.5252 27.0249C27.6285 25.9216 28.2492 24.4258 28.251 22.8655ZM14.9503 2.88384C17.9712 3.15107 20.779 4.55162 22.8096 6.80407C24.8402 9.05653 25.9432 11.994 25.8969 15.0263V22.8655C25.8969 23.802 25.5249 24.7002 24.8627 25.3624C24.2005 26.0246 23.3023 26.3966 22.3658 26.3966H15.4012C8.29883 26.3966 2.82671 21.8061 2.38532 15.4689C2.26944 13.8546 2.48769 12.2339 3.02644 10.7078C3.56518 9.1817 4.41285 7.78312 5.51648 6.59941C6.62011 5.41569 7.95598 4.47229 9.44065 3.82813C10.9253 3.18397 12.5269 2.85289 14.1452 2.85559C14.4124 2.85559 14.682 2.86618 14.9503 2.88384Z" fill="#0B41FF"/>
<path d="M12.1866 18.9305C12.3938 19.0162 12.616 19.0603 12.8403 19.0601C13.0627 19.061 13.2832 19.0179 13.489 18.9335C13.6948 18.849 13.8819 18.7248 14.0396 18.5679L19.834 12.8469C19.9808 12.6856 20.0603 12.4743 20.0561 12.2562C20.052 12.0382 19.9644 11.8301 19.8116 11.6746C19.6587 11.5191 19.4521 11.428 19.2341 11.4201C19.0162 11.4123 18.8035 11.4881 18.6398 11.6322L12.8343 17.3473L9.59888 14.1852C9.43712 14.0269 9.21909 13.9392 8.99273 13.9416C8.76638 13.944 8.55024 14.0363 8.39188 14.198C8.23352 14.3598 8.1459 14.5778 8.1483 14.8042C8.1507 15.0305 8.24292 15.2467 8.40468 15.405L11.6324 18.5603C11.791 18.7189 11.9793 18.8447 12.1866 18.9305Z" fill="#0B41FF"/>
</svg>
