<svg width="30" height="30" viewBox="0 0 30 30" fill="none" xmlns="http://www.w3.org/2000/svg">
<path d="M3.44962 9.63627L3.0336 9.01223L3.03359 9.01224L3.44962 9.63627ZM1.00375 14.2124L0.253758 14.2149V14.2149L1.00375 14.2124ZM1.07011 19.4834L1.81988 19.4647L1.81988 19.4647L1.07011 19.4834ZM2.7827 27.3791L3.31305 26.8488L3.31303 26.8488L2.7827 27.3791ZM10.764 29.0941L10.7452 29.8439L10.7453 29.8439L10.764 29.0941ZM18.7369 29.0941L18.7557 29.8439H18.7557L18.7369 29.0941ZM26.7183 27.3791L26.1879 26.8488L26.1879 26.8488L26.7183 27.3791ZM28.4308 19.4834L27.6811 19.4647V19.4647L28.4308 19.4834ZM28.4972 14.2124L29.2472 14.2149V14.2149L28.4972 14.2124ZM28.1789 11.4484L28.8408 11.0956L28.8408 11.0955L28.1789 11.4484ZM26.0513 9.63627L25.6352 10.2603L25.6353 10.2603L26.0513 9.63627ZM10.5054 18.3473L10.8913 17.7042L10.8913 17.7041L10.5054 18.3473ZM18.9946 18.3473L19.3805 18.9904L18.9946 18.3473ZM5.93046 2.4495L6.46079 2.97984L6.4608 2.97983L5.93046 2.4495ZM23.5695 2.4495L23.0392 2.97984L23.0392 2.97984L23.5695 2.4495ZM12 11.894C11.5858 11.894 11.25 12.2298 11.25 12.644C11.25 13.0583 11.5858 13.394 12 13.394V11.894ZM17.5 13.394C17.9142 13.394 18.25 13.0583 18.25 12.644C18.25 12.2298 17.9142 11.894 17.5 11.894V13.394ZM12 6.39404C11.5858 6.39404 11.25 6.72983 11.25 7.14404C11.25 7.55826 11.5858 7.89404 12 7.89404V6.39404ZM17.5 7.89404C17.9142 7.89404 18.25 7.55826 18.25 7.14404C18.25 6.72983 17.9142 6.39404 17.5 6.39404V7.89404ZM4.70946 7.895L3.0336 9.01223L3.86564 10.2603L5.5415 9.14308L4.70946 7.895ZM3.03359 9.01224C2.44437 9.40505 1.95954 9.72737 1.58499 10.0311C1.19827 10.3447 0.886336 10.6713 0.660204 11.0956L1.9839 11.8011C2.0833 11.6147 2.23447 11.4357 2.52981 11.1962C2.83733 10.9468 3.25351 10.6684 3.86565 10.2603L3.03359 9.01224ZM0.660204 11.0956C0.434322 11.5193 0.336936 11.959 0.292092 12.4533C0.24869 12.9317 0.251398 13.5109 0.253758 14.2149L1.75375 14.2099C1.7513 13.4783 1.75039 12.9809 1.78596 12.5888C1.82008 12.2127 1.88425 11.9881 1.9839 11.8011L0.660204 11.0956ZM0.253758 14.2149C0.259583 15.9458 0.275675 17.7127 0.320345 19.5021L1.81988 19.4647C1.77559 17.6904 1.75956 15.9354 1.75375 14.2098L0.253758 14.2149ZM0.320345 19.5021C0.372539 21.5933 0.4118 23.2445 0.644512 24.564C0.88343 25.9186 1.33632 26.9934 2.25237 27.9094L3.31303 26.8488C2.67478 26.2105 2.32414 25.4512 2.12171 24.3035C1.91309 23.1206 1.8732 21.6011 1.81988 19.4647L0.320345 19.5021ZM2.25235 27.9094C3.16988 28.827 4.2532 29.2793 5.6204 29.5182C6.95341 29.751 8.62538 29.7909 10.7452 29.8439L10.7827 28.3444C8.61793 28.2902 7.07642 28.2498 5.87853 28.0405C4.71482 27.8373 3.94983 27.4856 3.31305 26.8488L2.25235 27.9094ZM10.7453 29.8439C13.4233 29.9108 16.0778 29.9108 18.7557 29.8439L18.7182 28.3444C16.0653 28.4106 13.4358 28.4106 10.7827 28.3444L10.7453 29.8439ZM18.7557 29.8439C20.8756 29.7909 22.5476 29.751 23.8806 29.5182C25.2478 29.2793 26.3311 28.827 27.2486 27.9094L26.1879 26.8488C25.5511 27.4856 24.7862 27.8373 23.6225 28.0405C22.4246 28.2498 20.8831 28.2902 18.7182 28.3444L18.7557 29.8439ZM27.2486 27.9094C28.1647 26.9934 28.6176 25.9186 28.8565 24.564C29.0892 23.2445 29.1284 21.5933 29.1806 19.5021L27.6811 19.4647C27.6278 21.6011 27.5879 23.1206 27.3793 24.3035C27.1768 25.4512 26.8262 26.2105 26.1879 26.8488L27.2486 27.9094ZM29.1806 19.5022C29.2253 17.7127 29.2413 15.9458 29.2472 14.2149L27.7473 14.2098C27.7414 15.9354 27.7254 17.6904 27.6811 19.4647L29.1806 19.5022ZM29.2472 14.2149C29.2496 13.5109 29.2523 12.9317 29.2089 12.4533C29.164 11.959 29.0666 11.5194 28.8408 11.0956L27.5171 11.8011C27.6167 11.9881 27.6809 12.2127 27.715 12.5888C27.7506 12.9809 27.7497 13.4783 27.7473 14.2099L29.2472 14.2149ZM28.8408 11.0955C28.6146 10.6713 28.3027 10.3447 27.916 10.0311C27.5414 9.72736 27.0566 9.40505 26.4673 9.01222L25.6353 10.2603C26.2474 10.6684 26.6636 10.9468 26.9711 11.1962C27.2665 11.4357 27.4177 11.6147 27.5171 11.8012L28.8408 11.0955ZM26.4673 9.01223L24.7914 7.895L23.9594 9.14308L25.6352 10.2603L26.4673 9.01223ZM0.614129 13.2872L10.1195 18.9904L10.8913 17.7041L1.38587 12.0009L0.614129 13.2872ZM10.1195 18.9904C11.1406 19.603 11.9535 20.0918 12.6556 20.4219C13.3731 20.7592 14.0297 20.9585 14.75 20.9585V19.4585C14.3277 19.4585 13.896 19.3475 13.2938 19.0644C12.6762 18.7741 11.9382 18.3323 10.8913 17.7042L10.1195 18.9904ZM14.75 20.9585C15.4703 20.9585 16.1269 20.7592 16.8444 20.4219C17.5465 20.0918 18.3594 19.603 19.3805 18.9904L18.6088 17.7041C17.5619 18.3323 16.8238 18.7741 16.2062 19.0644C15.604 19.3475 15.1723 19.4585 14.75 19.4585V20.9585ZM19.3805 18.9904L28.8859 13.2872L28.1141 12.0009L18.6088 17.7041L19.3805 18.9904ZM5.875 15.394V7.14404H4.375V15.394H5.875ZM5.875 7.14404C5.875 5.82648 5.87659 4.91375 5.96899 4.22648C6.0585 3.56078 6.22064 3.21998 6.46079 2.97984L5.40014 1.91917C4.83483 2.48447 4.59424 3.19458 4.48237 4.02661C4.37341 4.83706 4.375 5.86888 4.375 7.14404H5.875ZM6.4608 2.97983C6.70094 2.73968 7.04174 2.57754 7.70744 2.48804C8.39471 2.39564 9.30743 2.39404 10.625 2.39404V0.894043C9.34984 0.894043 8.31802 0.89245 7.50756 1.00141C6.67553 1.11328 5.96543 1.35387 5.40013 1.91918L6.4608 2.97983ZM10.625 2.39404H18.875V0.894043H10.625V2.39404ZM18.875 2.39404C20.1926 2.39404 21.1053 2.39564 21.7925 2.48804C22.4582 2.57754 22.799 2.73968 23.0392 2.97984L24.0998 1.91917C23.5345 1.35387 22.8244 1.11328 21.9924 1.00141C21.182 0.89245 20.1501 0.894043 18.875 0.894043V2.39404ZM23.0392 2.97984C23.2794 3.21999 23.4415 3.56079 23.531 4.22648C23.6234 4.91375 23.625 5.82648 23.625 7.14404H25.125C25.125 5.86888 25.1266 4.83706 25.0176 4.02661C24.9058 3.19457 24.6652 2.48447 24.0998 1.91916L23.0392 2.97984ZM23.625 7.14404V15.394H25.125V7.14404H23.625ZM12 13.394H17.5V11.894H12V13.394ZM12 7.89404H17.5V6.39404H12V7.89404Z" fill="white"/>
</svg>
