<svg width="48" height="43" viewBox="0 0 48 43" fill="none" xmlns="http://www.w3.org/2000/svg">
<path d="M35.5073 17.2451L34.7967 17.0051L34.7967 17.0052L35.5073 17.2451ZM37.6691 15.4158L37.3582 14.7332L37.3582 14.7333L37.6691 15.4158ZM39.7093 14.6762L39.6489 13.9287L39.6489 13.9287L39.7093 14.6762ZM41.3521 15.0295L40.985 15.6835L40.985 15.6835L41.3521 15.0295ZM42.9235 16.6552L43.5025 16.1785L43.5025 16.1784L42.9235 16.6552ZM46.5397 22.0093L45.8162 22.207L45.8162 22.207L46.5397 22.0093ZM46.5397 25.5462L45.8162 25.3486L45.8162 25.3486L46.5397 25.5462ZM42.8139 31.0334L42.2349 30.5567V30.5567L42.8139 31.0334ZM41.3521 32.526L41.7191 33.1801L41.7192 33.1801L41.3521 32.526ZM39.7093 32.8793L39.6488 33.6269L39.6489 33.6269L39.7093 32.8793ZM37.6691 32.1397L37.98 31.4572L37.98 31.4572L37.6691 32.1397ZM35.5073 30.3104L34.7967 30.5504L34.7967 30.5505L35.5073 30.3104ZM11.7817 16.1978L12.2739 15.6319V15.6319L11.7817 16.1978ZM10.3308 15.4162L10.0199 16.0987L10.0199 16.0987L10.3308 15.4162ZM8.29048 14.6766L8.35095 13.929L8.35093 13.929L8.29048 14.6766ZM5.07646 16.6556L5.65547 17.1323L5.65547 17.1323L5.07646 16.6556ZM1.4601 22.0095L0.736616 21.8119L0.73661 21.8119L1.4601 22.0095ZM1.4601 25.5467L2.18359 25.3491L2.18359 25.349L1.4601 25.5467ZM5.18598 31.0339L4.60695 31.5105L4.60698 31.5106L5.18598 31.0339ZM8.29048 32.8798L8.35088 33.6273L8.35098 33.6273L8.29048 32.8798ZM10.3308 32.1402L10.6416 32.8228L10.6417 32.8227L10.3308 32.1402ZM11.7817 31.3584L11.2896 30.7925L11.2896 30.7925L11.7817 31.3584ZM7.3055 14.6667V15.4167H8.8055V14.6667H7.3055ZM39.1944 14.6667V15.4167H40.6944V14.6667H39.1944ZM40.6944 32.8889C40.6944 32.4747 40.3586 32.1389 39.9444 32.1389C39.5302 32.1389 39.1944 32.4747 39.1944 32.8889H40.6944ZM26.2777 41.25C25.8635 41.25 25.5277 41.5858 25.5277 42C25.5277 42.4142 25.8635 42.75 26.2777 42.75V41.25ZM36.1388 18.7769C36.1388 17.9368 36.1482 17.6914 36.2179 17.485L34.7967 17.0052C34.6295 17.5004 34.6388 18.0421 34.6388 18.7769H36.1388ZM36.2178 17.4852C36.441 16.8245 37.0035 16.5431 37.98 16.0983L37.3582 14.7333C36.5157 15.117 35.2623 15.6269 34.7967 17.0051L36.2178 17.4852ZM37.98 16.0983C39.0569 15.6078 39.426 15.4516 39.7698 15.4238L39.6489 13.9287C38.9795 13.9828 38.3264 14.2923 37.3582 14.7332L37.98 16.0983ZM39.7698 15.4238C40.2 15.389 40.6267 15.4824 40.985 15.6835L41.7191 14.3755C41.0943 14.0248 40.3689 13.8704 39.6489 13.9287L39.7698 15.4238ZM40.985 15.6835C41.203 15.8058 41.4136 15.9984 41.6426 16.2608C41.898 16.5533 42.063 16.79 42.3445 17.132L43.5025 16.1784C43.3187 15.9553 43.0238 15.562 42.7726 15.2743C42.4953 14.9566 42.1528 14.6188 41.7191 14.3754L40.985 15.6835ZM42.3445 17.1319C43.4261 18.4455 44.2105 19.3992 44.7768 20.2032C45.3379 20.9997 45.6517 21.6047 45.8162 22.207L47.2632 21.8117C47.0346 20.9748 46.6147 20.2077 46.0032 19.3394C45.3968 18.4786 44.5698 17.4748 43.5025 16.1785L42.3445 17.1319ZM45.8162 22.207C46.0982 23.2388 46.0982 24.3168 45.8162 25.3486L47.2632 25.7439C47.6158 24.4533 47.6158 23.1023 47.2632 21.8116L45.8162 22.207ZM45.8162 25.3486C45.5668 26.2618 45.0371 27.1361 44.3687 28.0108C43.6796 28.9127 42.9532 29.6844 42.2349 30.5567L43.3929 31.5101C44.0157 30.7538 44.8654 29.8314 45.5606 28.9216C46.2765 27.9846 46.9393 26.9296 47.2632 25.7439L45.8162 25.3486ZM42.2349 30.5567C41.5093 31.438 41.2658 31.7144 40.985 31.872L41.7192 33.1801C42.3043 32.8516 42.7469 32.2948 43.3929 31.5101L42.2349 30.5567ZM40.985 31.872C40.6267 32.0731 40.2 32.1665 39.7697 32.1318L39.6489 33.6269C40.369 33.6851 41.0943 33.5307 41.7191 33.1801L40.985 31.872ZM39.7698 32.1318C39.426 32.1039 39.0568 31.9477 37.98 31.4572L37.3582 32.8222C38.3264 33.2633 38.9795 33.5727 39.6488 33.6269L39.7698 32.1318ZM37.98 31.4572C37.0034 31.0123 36.441 30.7311 36.2178 30.0704L34.7967 30.5505C35.2623 31.9288 36.5158 32.4385 37.3582 32.8222L37.98 31.4572ZM36.2179 30.0705C36.1482 29.8642 36.1388 29.6187 36.1388 28.7786H34.6388C34.6388 29.5134 34.6295 30.0551 34.7967 30.5504L36.2179 30.0705ZM36.1388 28.7786V18.7769H34.6388V28.7786H36.1388ZM13.3611 18.7771C13.3611 17.8126 13.3608 16.5771 12.2739 15.6319L11.2896 16.7637C11.8056 17.2125 11.8611 17.7591 11.8611 18.7771H13.3611ZM12.2739 15.6319C11.8803 15.2896 11.3704 15.0655 10.6417 14.7336L10.0199 16.0987C10.8371 16.4709 11.1002 16.599 11.2896 16.7637L12.2739 15.6319ZM10.6417 14.7336C9.67351 14.2926 9.02031 13.9832 8.35095 13.929L8.23001 15.4242C8.5738 15.452 8.9431 15.6082 10.0199 16.0987L10.6417 14.7336ZM8.35093 13.929C6.3799 13.7696 5.31842 15.1817 4.49745 16.1789L5.65547 17.1323C6.58744 16.0003 7.16136 15.3377 8.23002 15.4242L8.35093 13.929ZM4.49746 16.1789C3.4302 17.4751 2.60312 18.4789 1.99677 19.3397C1.38518 20.2079 0.965238 20.975 0.736616 21.8119L2.18359 22.2072C2.34812 21.605 2.66195 21.0001 3.22305 20.2035C3.78939 19.3996 4.57392 18.4459 5.65547 17.1323L4.49746 16.1789ZM0.73661 21.8119C0.384024 23.1027 0.384014 24.4537 0.73662 25.7444L2.18359 25.349C1.9017 24.3172 1.90169 23.2392 2.1836 22.2072L0.73661 21.8119ZM0.736616 25.7443C1.06055 26.9301 1.72335 27.985 2.4393 28.922C3.13441 29.8316 3.98437 30.7543 4.60695 31.5105L5.76501 30.5572C5.04669 29.6846 4.32041 28.9132 3.63116 28.0112C2.96275 27.1365 2.43307 26.2623 2.18359 25.3491L0.736616 25.7443ZM4.60698 31.5106C5.42103 32.4993 6.46245 33.7799 8.35088 33.6273L8.23008 32.1322C7.21484 32.2142 6.64141 31.6216 5.76498 30.5571L4.60698 31.5106ZM8.35098 33.6273C9.02032 33.5732 9.67363 33.2635 10.6416 32.8228L10.02 31.4576C8.94297 31.948 8.57379 32.1044 8.22997 32.1322L8.35098 33.6273ZM10.6417 32.8227C11.3704 32.4907 11.8803 32.2667 12.2739 31.9244L11.2896 30.7925C11.1001 30.9573 10.8371 31.0854 10.0199 31.4577L10.6417 32.8227ZM12.2739 31.9244C13.3608 30.9792 13.3611 29.7439 13.3611 28.7791H11.8611C11.8611 29.7974 11.8056 30.3437 11.2896 30.7925L12.2739 31.9244ZM13.3611 28.7791V18.7771H11.8611V28.7791H13.3611ZM8.8055 14.6667C8.8055 7.63729 15.4957 1.75 23.9999 1.75V0.25C14.8925 0.25 7.3055 6.60026 7.3055 14.6667H8.8055ZM23.9999 1.75C32.5043 1.75 39.1944 7.63728 39.1944 14.6667H40.6944C40.6944 6.60026 33.1074 0.25 23.9999 0.25V1.75ZM39.1944 32.8889V34.7111H40.6944V32.8889H39.1944ZM39.1944 34.7111C39.1944 38.1749 35.6157 41.25 30.8333 41.25V42.75C36.1145 42.75 40.6944 39.2984 40.6944 34.7111H39.1944ZM30.8333 41.25H26.2777V42.75H30.8333V41.25Z" fill="#0B41FF"/>
</svg>
