<svg width="44" height="44" viewBox="0 0 44 44" fill="none" xmlns="http://www.w3.org/2000/svg">
<path d="M5.2 22C5.2 14.0804 5.2 10.1206 7.6603 7.6603C10.1206 5.2 14.0804 5.2 22 5.2M5.2 22C5.2 29.9195 5.2 33.8795 7.6603 36.3396C10.1206 38.8 14.0804 38.8 22 38.8M5.2 22H1M22 5.2C29.9195 5.2 33.8795 5.2 36.3396 7.6603C38.8 10.1206 38.8 14.0804 38.8 22M22 5.2V1M38.8 22C38.8 29.9195 38.8 33.8795 36.3396 36.3396C33.8795 38.8 29.9195 38.8 22 38.8M38.8 22H43M22 38.8V43M13.6 1V5.2M30.4 1V5.2M13.6 38.8V43M30.4 38.8V43M43 30.4H38.8M5.2 13.6H1M5.2 30.4H1M43 13.6H38.8M13.0377 30.9624C14.5754 32.5 17.0503 32.5 22 32.5C23.6586 32.5 25.0393 32.5 26.2 32.442L32.442 26.2C32.5 25.0393 32.5 23.6586 32.5 22C32.5 17.0503 32.5 14.5754 30.9624 13.0377C29.4245 11.5 26.9497 11.5 22 11.5C17.0503 11.5 14.5754 11.5 13.0377 13.0377C11.5 14.5754 11.5 17.0503 11.5 22C11.5 26.9497 11.5 29.4245 13.0377 30.9624Z" stroke="#0B41FF" stroke-width="1.5" stroke-linecap="round" stroke-linejoin="round"/>
</svg>
