<svg width="240" height="34" viewBox="0 0 240 34" fill="none" xmlns="http://www.w3.org/2000/svg">
<rect y="0.805176" width="54.0397" height="32.5828" rx="5" fill="#24395F"/>
<rect x="61.9868" y="0.80542" width="54.0397" height="32.5828" rx="5" fill="#24395F"/>
<rect x="123.974" y="0.80542" width="54.0397" height="32.5828" rx="5" fill="#24395F"/>
<rect x="185.96" y="0.80542" width="54.0397" height="32.5828" rx="5" fill="#24395F"/>
<path d="M84.8477 10.511H92.7663V23.4443H84.8477V10.511Z" fill="#FF5F00"/>
<path d="M85.6625 16.9795C85.6616 15.734 85.9441 14.5046 86.4885 13.3844C87.033 12.2643 87.8251 11.2826 88.8049 10.5138C87.5916 9.55999 86.1343 8.96684 84.5997 8.80211C83.0652 8.63739 81.5152 8.90774 80.127 9.58227C78.7389 10.2568 77.5685 11.3083 76.7496 12.6165C75.9308 13.9248 75.4966 15.437 75.4966 16.9804C75.4966 18.5238 75.9308 20.036 76.7496 21.3443C77.5685 22.6525 78.7389 23.704 80.127 24.3786C81.5152 25.0531 83.0652 25.3234 84.5997 25.1587C86.1343 24.994 87.5916 24.4008 88.8049 23.4471C87.8248 22.678 87.0326 21.6961 86.4881 20.5755C85.9437 19.455 85.6613 18.2253 85.6625 16.9795Z" fill="#EB001B"/>
<path d="M101.387 22.703V21.9193H101.544V21.7565H101.17V21.9193H101.317V22.703H101.387ZM102.116 22.703V21.7565H102.003L101.87 22.4323L101.738 21.7565H101.624V22.703H101.705V21.9865L101.828 22.6018H101.914L102.037 21.9865V22.703H102.116ZM102.113 16.9794C102.113 18.5227 101.679 20.0347 100.86 21.3428C100.041 22.6509 98.8705 23.7022 97.4824 24.3766C96.0944 25.051 94.5445 25.3213 93.0101 25.1566C91.4757 24.9918 90.0185 24.3988 88.8052 23.4451C89.7845 22.6755 90.5762 21.6934 91.1207 20.5732C91.6651 19.4529 91.948 18.2236 91.948 16.978C91.948 15.7324 91.6651 14.5031 91.1207 13.3828C90.5762 12.2625 89.7845 11.2805 88.8052 10.5109C90.0186 9.55717 91.4758 8.96409 93.0103 8.79941C94.5448 8.63473 96.0947 8.90509 97.4829 9.57961C98.871 10.2541 100.041 11.3056 100.86 12.6138C101.679 13.922 102.113 15.4342 102.113 16.9775V16.9794Z" fill="#F79E1B"/>
<path d="M22.3105 21.9719L24.1907 11.4851H27.1278L25.3065 21.9701L22.3105 21.9719Z" fill="white"/>
<path d="M22.3105 21.9719L24.7206 11.485H27.1288L25.3075 21.97L22.3105 21.9719ZM35.9382 11.6019C35.3513 11.3692 34.4112 11.1365 33.2366 11.1365C30.2995 11.1365 28.1847 12.5924 28.1847 14.6894C28.1847 16.2621 29.6538 17.078 30.8284 17.6022C32.0031 18.1265 32.3554 18.476 32.3554 18.9423C32.3554 19.6413 31.4153 19.9908 30.5929 19.9908C29.4183 19.9908 28.7725 19.816 27.7736 19.4086L27.3624 19.2338L26.9512 21.6224C27.6558 21.913 28.9482 22.2046 30.2995 22.2046C33.4123 22.2046 35.4682 20.7477 35.4682 18.5348C35.4682 17.3106 34.7047 16.379 32.9432 15.622C31.8853 15.0978 31.2396 14.8062 31.2396 14.282C31.2396 13.8157 31.7676 13.3503 32.9432 13.3503C33.9412 13.3503 34.6458 13.525 35.1747 13.7577L35.4682 13.8745L35.9382 11.6019Z" fill="white"/>
<path d="M35.9382 11.6019C35.3513 11.3692 34.4112 11.1365 33.2365 11.1365C30.2994 11.1365 28.7136 12.5924 28.7136 14.6894C28.7136 16.2621 29.6537 17.078 30.8284 17.6022C32.003 18.1265 32.3553 18.476 32.3553 18.9423C32.3553 19.6413 31.4152 19.9908 30.5929 19.9908C29.4182 19.9908 28.7725 19.816 27.7735 19.4086L27.3623 19.2338L26.9512 21.6224C27.6558 21.913 28.9482 22.2046 30.2994 22.2046C33.4122 22.2046 35.4681 20.7477 35.4681 18.5348C35.4681 17.3106 34.7046 16.379 32.9431 15.622C31.8853 15.0978 31.2395 14.8062 31.2395 14.282C31.2395 13.8157 31.7675 13.3503 32.9431 13.3503C33.9412 13.3503 34.6458 13.525 35.1747 13.7577L35.4681 13.8745L35.9382 11.6019ZM40.99 11.485C40.2854 11.485 39.7565 11.5439 39.463 12.2429L35.0569 21.9709H38.2295L38.8164 20.2234H42.5758L42.9281 21.9709H45.7475L43.2804 11.4869H40.99V11.485ZM39.6387 18.476C39.8153 17.9526 40.8134 15.3884 40.8134 15.3884C40.8134 15.3884 41.0489 14.7483 41.2246 14.3399L41.4012 15.3305C41.4012 15.3305 41.989 17.9517 42.1058 18.5348H39.6387V18.476Z" fill="white"/>
<path d="M41.6944 11.4851C40.9898 11.4851 40.4609 11.544 40.1675 12.243L35.0567 21.971H38.2293L38.8162 20.2235H42.5756L42.9279 21.971H45.7473L43.2802 11.487H41.6944V11.4851ZM39.6385 18.476C39.874 17.8938 40.8132 15.3885 40.8132 15.3885C40.8132 15.3885 41.0487 14.7483 41.2244 14.34L41.401 15.3305C41.401 15.3305 41.9888 17.9518 42.1056 18.5349H39.6385V18.476ZM16.9071 18.8255L16.6127 17.3116C16.0847 15.5642 14.3812 13.641 12.501 12.7093L15.1446 22.0299H18.3163L23.0757 11.5449H19.9031L16.908 18.8246L16.9071 18.8255Z" fill="white"/>
<path d="M16.9071 18.8255L16.6127 17.3117C16.0847 15.5642 14.3812 13.641 12.501 12.7093L15.1446 22.0299H18.3163L23.0757 11.5449H20.4909L16.9071 18.8255Z" fill="white"/>
<path d="M8.7417 11.4851L9.27062 11.6019C13.0301 12.4766 15.6149 14.6895 16.6129 17.3116L15.556 12.3589C15.3794 11.6617 14.8514 11.487 14.2047 11.487H8.7417V11.4851Z" fill="white"/>
<path d="M8.7417 11.4851C12.5011 12.3598 15.6149 14.6315 16.6129 17.2528L15.6149 13.1167C15.5409 12.7993 15.3608 12.5167 15.1044 12.3155C14.848 12.1143 14.5306 12.0067 14.2047 12.0103L8.7417 11.4851Z" fill="white"/>
<path d="M8.7417 11.4851C12.5011 12.3598 15.6149 14.6315 16.6129 17.2528L15.9083 14.981C15.7317 14.282 15.4971 13.583 14.6748 13.2915L8.7417 11.486V11.4851Z" fill="white"/>
<path d="M19.8435 18.476L17.8465 16.4949L16.9073 18.7097L16.6718 17.2528C16.1429 15.5053 14.4403 13.5831 12.5601 12.6514L15.2037 21.972H18.3754L19.8435 18.477V18.476ZM25.3065 21.972L22.7806 19.4087L22.3105 21.972H25.3065ZM32.0619 18.3602C32.2965 18.5928 32.4142 18.7676 32.3553 19.0003C32.3553 19.6993 31.4152 20.0488 30.5929 20.0488C29.4182 20.0488 28.7725 19.874 27.7735 19.4666L27.3624 19.2918L26.9512 21.6804C27.6558 21.972 28.9482 22.2626 30.2995 22.2626C32.1787 22.2626 33.7066 21.7393 34.5878 20.8067L32.0619 18.3602ZM35.4681 21.972H38.2295L38.8164 20.2245H42.5758L42.9282 21.972H45.7475L44.7495 17.7182L41.2236 14.34L41.4003 15.2726C41.4003 15.2726 41.9881 17.8939 42.1049 18.476H39.6378C40.0353 17.4491 40.4268 16.4199 40.8125 15.3885C40.8125 15.3885 41.048 14.7484 41.2236 14.34" fill="white"/>
<path d="M161.297 14.001H159.199C159.13 14.001 159.063 14.0257 159.01 14.0708C158.957 14.1159 158.922 14.1783 158.911 14.2469L158.063 19.6254C158.046 19.7314 158.128 19.8268 158.236 19.8268H159.312C159.412 19.8268 159.498 19.7545 159.513 19.655L159.754 18.1304C159.765 18.0618 159.8 17.9994 159.852 17.9543C159.905 17.9092 159.972 17.8845 160.042 17.8845H160.705C162.087 17.8845 162.884 17.2155 163.093 15.8906C163.186 15.3111 163.096 14.8554 162.825 14.5366C162.527 14.1864 161.999 14.001 161.297 14.001ZM161.538 15.9652C161.424 16.7178 160.849 16.7178 160.293 16.7178H159.976L160.198 15.3123C160.205 15.2711 160.226 15.2336 160.257 15.2065C160.289 15.1795 160.329 15.1646 160.371 15.1647H160.516C160.895 15.1647 161.252 15.1647 161.437 15.3804C161.547 15.5096 161.58 15.7004 161.538 15.9652ZM146.337 14.001H144.239C144.17 14.001 144.103 14.0257 144.05 14.0708C143.997 14.1159 143.962 14.1783 143.951 14.2469L143.103 19.6254C143.086 19.7314 143.168 19.8268 143.276 19.8268H144.277C144.346 19.8269 144.414 19.8022 144.466 19.7572C144.519 19.7123 144.554 19.65 144.565 19.5815L144.794 18.1304C144.805 18.0618 144.84 17.9994 144.892 17.9543C144.945 17.9092 145.012 17.8845 145.082 17.8845H145.745C147.127 17.8845 147.924 17.2155 148.133 15.8906C148.226 15.3111 148.137 14.8554 147.866 14.5366C147.567 14.1864 147.038 14.001 146.337 14.001ZM146.579 15.9652C146.464 16.7178 145.889 16.7178 145.333 16.7178H145.017L145.238 15.3123C145.245 15.2711 145.266 15.2336 145.297 15.2065C145.329 15.1795 145.37 15.1646 145.411 15.1647H145.556C145.935 15.1647 146.292 15.1647 146.477 15.3804C146.587 15.5096 146.62 15.7004 146.579 15.9652ZM152.606 15.941H151.602C151.56 15.9409 151.519 15.9558 151.488 15.983C151.456 16.0101 151.435 16.0478 151.429 16.0891L151.385 16.3694L151.314 16.268C151.097 15.9522 150.612 15.8467 150.128 15.8467C149.018 15.8467 148.071 16.6876 147.886 17.8673C147.79 18.4551 147.926 19.0174 148.26 19.4097C148.566 19.7705 149.004 19.9205 149.525 19.9205C150.419 19.9205 150.915 19.3457 150.915 19.3457L150.87 19.6254C150.854 19.7314 150.936 19.8268 151.043 19.8268H151.948C152.017 19.8269 152.084 19.8022 152.137 19.7572C152.19 19.7123 152.225 19.65 152.236 19.5815L152.778 16.143C152.782 16.1181 152.781 16.0927 152.774 16.0685C152.767 16.0443 152.755 16.0218 152.738 16.0027C152.722 15.9836 152.702 15.9682 152.679 15.9576C152.656 15.9471 152.631 15.941 152.606 15.941ZM151.206 17.8963C151.109 18.4699 150.653 18.8551 150.072 18.8551C149.781 18.8551 149.548 18.7614 149.398 18.5843C149.25 18.4083 149.193 18.1576 149.24 17.8786C149.331 17.3097 149.794 16.9121 150.366 16.9121C150.651 16.9121 150.883 17.0069 151.036 17.1859C151.19 17.366 151.25 17.6184 151.206 17.8957V17.8963ZM167.566 15.941H166.561C166.52 15.9409 166.479 15.9558 166.447 15.983C166.416 16.0101 166.395 16.0478 166.388 16.0891L166.345 16.3694L166.274 16.268C166.057 15.9522 165.572 15.8467 165.088 15.8467C163.978 15.8467 163.03 16.6876 162.846 17.8673C162.75 18.4551 162.886 19.0174 163.219 19.4097C163.526 19.7705 163.964 19.9205 164.485 19.9205C165.379 19.9205 165.875 19.3457 165.875 19.3457L165.83 19.6254C165.814 19.7314 165.895 19.8268 166.003 19.8268H166.907C166.977 19.8269 167.044 19.8022 167.097 19.7572C167.149 19.7123 167.184 19.65 167.195 19.5815L167.738 16.143C167.742 16.1181 167.74 16.0927 167.734 16.0685C167.727 16.0443 167.715 16.0218 167.698 16.0027C167.682 15.9836 167.662 15.9682 167.639 15.9576C167.616 15.9471 167.591 15.941 167.566 15.941ZM166.166 17.8963C166.069 18.4699 165.613 18.8551 165.033 18.8551C164.741 18.8551 164.508 18.7614 164.358 18.5843C164.21 18.4083 164.153 18.1576 164.201 17.8786C164.291 17.3097 164.754 16.9121 165.327 16.9121C165.611 16.9121 165.843 17.0069 165.996 17.1859C166.15 17.366 166.209 17.6184 166.166 17.8957V17.8963ZM157.955 15.941H156.946C156.898 15.941 156.851 15.9527 156.809 15.975C156.767 15.9973 156.731 16.0295 156.704 16.0689L155.312 18.1197L154.721 16.1489C154.703 16.0891 154.666 16.0366 154.616 15.9993C154.566 15.9619 154.505 15.9417 154.443 15.9415H153.45C153.422 15.9415 153.395 15.9481 153.37 15.9607C153.345 15.9734 153.324 15.9918 153.308 16.0144C153.292 16.037 153.281 16.0632 153.277 16.0907C153.273 16.1182 153.275 16.1463 153.284 16.1726L154.396 19.4352L153.351 20.9106C153.332 20.9367 153.321 20.9674 153.319 20.9993C153.317 21.0312 153.324 21.0631 153.338 21.0915C153.353 21.1199 153.375 21.1437 153.402 21.1604C153.43 21.1771 153.461 21.186 153.493 21.1861H154.502C154.597 21.1861 154.687 21.1393 154.741 21.0605L158.099 16.2153C158.117 16.1891 158.128 16.1583 158.13 16.1265C158.131 16.0946 158.125 16.0628 158.11 16.0345C158.095 16.0062 158.073 15.9826 158.045 15.9661C158.018 15.9496 157.987 15.9409 157.955 15.941ZM168.75 14.1485L167.889 19.6254C167.872 19.7314 167.954 19.8268 168.061 19.8268H168.927C168.996 19.8269 169.063 19.8022 169.116 19.7572C169.169 19.7123 169.204 19.65 169.215 19.5815L170.064 14.203C170.068 14.1781 170.066 14.1525 170.059 14.1282C170.053 14.1038 170.04 14.0813 170.024 14.0621C170.008 14.0429 169.987 14.0275 169.964 14.0169C169.941 14.0064 169.916 14.0009 169.891 14.001H168.922C168.88 14.0011 168.84 14.016 168.808 14.0432C168.777 14.0703 168.756 14.1073 168.75 14.1485Z" fill="white"/>
<path opacity="0.68" d="M138.988 14.2824C139.101 13.5624 138.988 13.073 138.598 12.6292C138.169 12.1403 137.395 11.9312 136.404 11.9312H133.527C133.429 11.9311 133.335 11.966 133.26 12.0297C133.185 12.0934 133.136 12.1816 133.121 12.2784L131.923 19.8742C131.918 19.9093 131.92 19.9453 131.93 19.9795C131.94 20.0138 131.957 20.0455 131.98 20.0726C132.003 20.0997 132.031 20.1214 132.064 20.1364C132.096 20.1513 132.131 20.1591 132.167 20.1592H133.943L133.82 20.9366C133.815 20.9674 133.817 20.9989 133.826 21.0289C133.834 21.059 133.849 21.0868 133.869 21.1105C133.889 21.1342 133.915 21.1533 133.943 21.1663C133.971 21.1794 134.002 21.1861 134.033 21.186H135.531C135.616 21.186 135.699 21.1553 135.765 21.0996C135.83 21.0439 135.873 20.9668 135.886 20.8821L135.901 20.8062L136.183 19.0179L136.201 18.919C136.214 18.8343 136.257 18.7572 136.323 18.7014C136.388 18.6457 136.471 18.6151 136.556 18.615H136.78C138.23 18.615 139.366 18.026 139.697 16.3219C139.836 15.6108 139.764 15.0159 139.398 14.5982C139.282 14.4688 139.143 14.3617 138.988 14.2824Z" fill="#0085FF"/>
<path opacity="0.7" d="M138.988 14.2824C139.101 13.5624 138.988 13.073 138.598 12.6292C138.169 12.1403 137.395 11.9312 136.404 11.9312H133.527C133.429 11.9311 133.335 11.966 133.26 12.0297C133.185 12.0934 133.136 12.1816 133.121 12.2784L131.923 19.8742C131.918 19.9093 131.92 19.9453 131.93 19.9795C131.94 20.0138 131.957 20.0455 131.98 20.0726C132.003 20.0997 132.031 20.1214 132.064 20.1363C132.096 20.1513 132.131 20.1591 132.167 20.1592H133.943L134.389 17.3304L134.375 17.4193C134.39 17.3226 134.439 17.2345 134.513 17.1709C134.588 17.1072 134.682 17.0721 134.78 17.072H135.624C137.282 17.072 138.58 16.3983 138.959 14.4506C138.97 14.3932 138.98 14.3375 138.989 14.2824" fill="white"/>
<path d="M134.868 14.2918C134.882 14.2072 134.925 14.1301 134.99 14.0745C135.055 14.0189 135.138 13.9884 135.224 13.9885H137.478C137.746 13.9885 137.995 14.0062 138.223 14.0424C138.347 14.0625 138.47 14.0898 138.591 14.1241L138.677 14.1508C138.789 14.1881 138.893 14.232 138.989 14.2829C139.101 13.5624 138.988 13.073 138.598 12.6292C138.169 12.1403 137.395 11.9312 136.405 11.9312H133.527C133.429 11.9311 133.335 11.966 133.26 12.0297C133.185 12.0934 133.136 12.1816 133.121 12.2784L131.923 19.8742C131.918 19.9093 131.92 19.9453 131.93 19.9795C131.94 20.0138 131.957 20.0455 131.98 20.0726C132.003 20.0997 132.031 20.1214 132.064 20.1363C132.096 20.1513 132.131 20.1591 132.167 20.1592H133.943L134.389 17.3304L134.868 14.2918Z" fill="white"/>
<path d="M228.741 14.5644H227.094L226.141 18.5849L226.007 19.1367C225.915 19.1617 225.824 19.1867 225.732 19.2036C225.564 19.2369 225.389 19.2537 225.205 19.2537C224.996 19.2537 224.829 19.2203 224.704 19.1617C224.586 19.1032 224.494 19.0197 224.444 18.9026C224.394 18.7939 224.377 18.6602 224.386 18.5098C224.394 18.3594 224.428 18.1921 224.469 18.0251L224.971 15.9352L225.297 14.5477H223.617L222.856 17.7574C222.764 18.1418 222.714 18.5097 222.697 18.8608C222.68 19.2118 222.739 19.5128 222.856 19.7886C222.973 20.0561 223.182 20.265 223.466 20.4238C223.75 20.5827 224.16 20.6577 224.678 20.6577C225.038 20.6577 225.355 20.6245 225.623 20.5659C225.631 20.5659 225.648 20.5576 225.656 20.5576C225.581 20.8919 225.431 21.1593 225.197 21.3684C224.954 21.5774 224.603 21.686 224.135 21.686C223.934 21.686 223.75 21.6777 223.583 21.6527L223.257 23.0152C223.475 23.0403 223.717 23.057 223.985 23.057C224.486 23.057 224.921 22.9985 225.297 22.8897C225.673 22.7727 225.991 22.6056 226.266 22.3715C226.534 22.1374 226.76 21.8449 226.943 21.5022C227.127 21.1512 227.269 20.7414 227.378 20.2567L228.515 15.4755L228.741 14.5644ZM221.845 17.9998C221.744 18.4177 221.711 18.844 221.753 19.262C221.795 19.6882 221.962 20.3318 222.121 20.6578H220.532C220.34 20.3319 220.349 20.1731 220.307 20.0728C220.098 20.24 219.872 20.3821 219.621 20.4908C219.371 20.5995 219.095 20.658 218.777 20.658C218.409 20.658 218.092 20.5911 217.833 20.4657C217.573 20.3404 217.356 20.1649 217.189 19.9475C217.022 19.7301 216.905 19.4793 216.829 19.1867C216.754 18.8942 216.721 18.5849 216.721 18.2506C216.721 17.7406 216.813 17.2643 216.988 16.813C217.172 16.3616 217.423 15.9686 217.741 15.6343C218.058 15.3 218.836 14.5561 220.106 14.5561H222.656L221.845 17.9998ZM220.683 15.9519C219.914 15.9519 219.772 15.9519 219.454 16.1108C219.229 16.2278 219.045 16.4033 218.886 16.6039C218.727 16.8045 218.593 17.0385 218.501 17.3061C218.409 17.5736 218.359 17.8493 218.359 18.1336C218.359 18.4846 218.418 18.7688 218.535 18.9778C218.652 19.1867 218.869 19.287 219.187 19.287C219.354 19.287 219.513 19.2537 219.646 19.1867C219.78 19.1198 219.931 19.0113 220.081 18.8525C220.098 18.6686 220.123 18.4763 220.156 18.2758C220.19 18.0751 220.232 17.8829 220.265 17.7157L220.683 15.9519ZM216.269 16.98C216.269 17.5233 216.177 18.0165 216.002 18.4679C215.826 18.9192 215.576 19.3037 215.258 19.6298C214.94 19.9558 214.564 20.2065 214.121 20.3905C213.678 20.5742 213.202 20.6662 212.683 20.6662C212.433 20.6662 212.182 20.6412 211.923 20.5994L211.421 22.6138H209.774L211.689 14.5726H213.887C214.305 14.5726 214.664 14.6395 214.957 14.7648C215.258 14.8901 215.5 15.0657 215.701 15.2831C215.893 15.5005 216.035 15.7595 216.127 16.0521C216.228 16.3364 216.269 16.6457 216.269 16.98ZM212.232 19.262C212.357 19.2953 212.516 19.3037 212.7 19.3037C212.993 19.3037 213.252 19.2535 213.494 19.1448C213.728 19.0362 213.937 18.8857 214.104 18.6936C214.272 18.5013 214.397 18.2672 214.497 17.9998C214.589 17.7321 214.639 17.4313 214.639 17.1054C214.639 16.7876 214.572 16.5119 214.43 16.2944C214.288 16.0689 214.046 15.9518 213.695 15.9518H213.043L212.232 19.262ZM208.772 19.262C208.563 19.262 208.395 19.2285 208.27 19.17C208.153 19.1115 208.061 19.028 208.011 18.9108C207.961 18.8022 207.944 18.6685 207.952 18.518C207.961 18.3675 207.994 18.2003 208.036 18.0332L208.537 15.9435H210.41L210.753 14.556H208.872L209.306 12.8006L207.551 13.0763L206.439 17.774C206.347 18.1584 206.297 18.5264 206.28 18.8773C206.264 19.2283 206.322 19.5294 206.439 19.8052C206.556 20.0726 206.765 20.2816 207.049 20.4404C207.334 20.5992 207.743 20.6744 208.261 20.6744C208.621 20.6744 208.938 20.641 209.206 20.5825C209.231 20.574 209.273 20.5657 209.298 20.5574L209.641 19.128C209.524 19.1698 209.407 19.195 209.298 19.2115C209.131 19.2452 208.955 19.262 208.772 19.262ZM204.584 14.5644L203.129 20.6662H204.776L206.222 14.5644H204.584ZM206.398 13.8622L206.648 12.8006H205.002L204.751 13.8622H206.398ZM200.939 14.5726C201.29 14.5726 201.6 14.6395 201.859 14.7648C202.118 14.8901 202.327 15.0573 202.502 15.2747C202.67 15.4921 202.795 15.7429 202.879 16.0271C202.962 16.3112 203.004 16.6206 203.004 16.9549C203.004 17.4648 202.912 17.9413 202.72 18.4009C202.527 18.8523 202.277 19.2535 201.951 19.5878C201.625 19.9221 201.24 20.1898 200.797 20.382C200.354 20.5742 199.878 20.6745 199.36 20.6745C199.293 20.6745 199.176 20.6745 199.008 20.6662C198.841 20.6662 198.649 20.6494 198.44 20.616C198.223 20.5826 197.997 20.5407 197.763 20.4823C197.529 20.4255 197.302 20.3443 197.086 20.2399L199 12.1988L200.714 11.9312L200.037 14.7814C200.187 14.7146 200.321 14.6644 200.471 14.6311C200.613 14.5894 200.772 14.5726 200.939 14.5726ZM199.502 19.3037C199.761 19.3037 200.003 19.2452 200.229 19.1115C200.458 18.9848 200.659 18.8144 200.822 18.61C200.989 18.4009 201.123 18.1585 201.215 17.8993C201.307 17.6319 201.357 17.3561 201.357 17.0719C201.357 16.7208 201.299 16.4451 201.182 16.2444C201.065 16.0438 200.822 15.9519 200.505 15.9519C200.404 15.9519 200.296 15.9603 200.128 16.0021C199.961 16.0354 199.819 16.1191 199.685 16.2361L198.967 19.2703C199.184 19.3037 199.251 19.312 199.309 19.312C199.351 19.3037 199.418 19.3037 199.502 19.3037Z" fill="white"/>
</svg>
