<svg xmlns="http://www.w3.org/2000/svg" width="223.222" height="47.941" viewBox="0 0 223.222 47.941">
  <g id="Group_1" data-name="Group 1" transform="translate(-281 -5584)">
    <g id="Shape_1_copy" data-name="Shape 1 copy" transform="translate(281 5584)">
      <rect id="Rectangle_2" data-name="Rectangle 2" width="57.905" height="38.062" rx="19.031" transform="translate(0 8.938)" fill="#0644a2"/>
      <path id="Rectangle_2_copy" data-name="Rectangle 2 copy" d="M53.628,0A22.44,22.44,0,0,1,76,22.507v1.986A22.44,22.44,0,0,1,53.628,47H21.385s9.87-.32,9.87-14.744V22.507A22.44,22.44,0,0,1,53.628,0Z" fill="#2877ee"/>
      <path id="Shape_1" data-name="Shape 1" d="M19.826,47c10.877-.957,9.913-15.3,9.913-15.3v-1.32a5.645,5.645,0,1,1,4.406.114V30.6C35.129,46.2,28.638,47,28.638,47Z" fill="#fff"/>
      <path id="Shape_1_copy-2" data-name="Shape 1 copy" d="M54.284,22.136a5.606,5.606,0,0,1,3.254-5.1v-1.32s.949-14.346-9.761-15.3h8.676s6.392.8,5.423,16.4v.113a5.594,5.594,0,1,1-7.592,5.215Z" fill="#fff"/>
    </g>
    <path id="Cloud_Computing_US" data-name="Cloud  Computing US" d="M462.862,5631.37a5.815,5.815,0,0,1-2.02-1.61l1.46-1.419a4.148,4.148,0,0,0,1.51,1.159,4.541,4.541,0,0,0,1.931.421,4.093,4.093,0,0,0,1.57-.292,2.543,2.543,0,0,0,1.139-.9,2.734,2.734,0,0,0,.43-1.6v-1.32a3.522,3.522,0,0,1-1.47,1.389,4.325,4.325,0,0,1-2.01.491,4.378,4.378,0,0,1-3.409-1.563,5.387,5.387,0,0,1-.971-1.7,6.381,6.381,0,0,1,.021-4.167,5.522,5.522,0,0,1,1.009-1.734,4.539,4.539,0,0,1,1.541-1.162,4.637,4.637,0,0,1,1.969-.411,4.159,4.159,0,0,1,2.141.54,4.566,4.566,0,0,1,1.519,1.46v-1.84h2.339v9.914a4.6,4.6,0,0,1-.749,2.652,4.783,4.783,0,0,1-2.071,1.689,7.327,7.327,0,0,1-3,.586A6.58,6.58,0,0,1,462.862,5631.37Zm2.16-11.889a2.593,2.593,0,0,0-.859.732,3.516,3.516,0,0,0-.55,1.043,3.749,3.749,0,0,0-.191,1.194,3.261,3.261,0,0,0,.22,1.2,3.085,3.085,0,0,0,.611.983,2.834,2.834,0,0,0,.92.663,2.705,2.705,0,0,0,1.129.24,2.487,2.487,0,0,0,.84-.141,3.01,3.01,0,0,0,.741-.38,2.883,2.883,0,0,0,.6-.572,2.819,2.819,0,0,0,.4-.673v-2.507a3.308,3.308,0,0,0-.67-1.083,3.142,3.142,0,0,0-.96-.712,2.555,2.555,0,0,0-1.11-.251A2.387,2.387,0,0,0,465.022,5619.481Zm-53.579,12.259V5617.1h2.341v1.8a4.425,4.425,0,0,1,1.519-1.435,4.17,4.17,0,0,1,2.1-.524,4.55,4.55,0,0,1,1.951.416,4.733,4.733,0,0,1,1.549,1.158,5.528,5.528,0,0,1,1.03,1.7,5.712,5.712,0,0,1,.37,2.066,6.2,6.2,0,0,1-.591,2.731,4.928,4.928,0,0,1-1.62,1.947,4.021,4.021,0,0,1-2.37.723,4.19,4.19,0,0,1-2.15-.544,3.872,3.872,0,0,1-1.45-1.474v6.078Zm4.451-12.393a3.206,3.206,0,0,0-.751.361,3.041,3.041,0,0,0-.63.545,1.985,1.985,0,0,0-.39.683v2.433a3.888,3.888,0,0,0,.65,1.036,3.024,3.024,0,0,0,.95.732,2.472,2.472,0,0,0,1.1.265,2.419,2.419,0,0,0,1.119-.256,2.776,2.776,0,0,0,.871-.7,3.107,3.107,0,0,0,.56-1,3.627,3.627,0,0,0,.189-1.167,3.325,3.325,0,0,0-.209-1.2,2.917,2.917,0,0,0-1.541-1.628,2.8,2.8,0,0,0-1.149-.236A2.479,2.479,0,0,0,415.894,5619.347Zm22.509,8.075a2.135,2.135,0,0,1-.989-.821,2.648,2.648,0,0,1-.37-1.477v-5.963h-1.38V5617.1h1.38v-3.4h2.68v3.4h2.2v2.061h-2.2v5.053a1.014,1.014,0,0,0,.3.771,1.047,1.047,0,0,0,.7.236,2.432,2.432,0,0,0,.82-.14c.266-.092.479-.172.64-.239l.54,2.119c-.228.095-.5.2-.82.321a6.664,6.664,0,0,1-1.03.29,5.66,5.66,0,0,1-1.111.11A3.5,3.5,0,0,1,438.4,5627.422Zm-13.539-.782a4.753,4.753,0,0,1-.84-3.042v-6.5h2.68v5.91a3.012,3.012,0,0,0,.44,1.788,1.507,1.507,0,0,0,1.3.6,2.726,2.726,0,0,0,1.029-.207,2.939,2.939,0,0,0,.94-.616,3.53,3.53,0,0,0,.731-1.039V5617.1h2.68v7.391a.92.92,0,0,0,.15.592.726.726,0,0,0,.49.218v2.18c-.267.041-.49.07-.67.09a4.6,4.6,0,0,1-.49.03,1.95,1.95,0,0,1-1.17-.327,1.288,1.288,0,0,1-.53-.9l-.059-.831a4.579,4.579,0,0,1-1.8,1.6,5.389,5.389,0,0,1-2.42.544A2.973,2.973,0,0,1,424.863,5626.64Zm-41.62.615a4.963,4.963,0,0,1-1.73-1.177,5.283,5.283,0,0,1-1.09-1.72,5.539,5.539,0,0,1-.38-2.037,5.6,5.6,0,0,1,.38-2.058,5.283,5.283,0,0,1,1.09-1.72,4.99,4.99,0,0,1,1.73-1.177,5.938,5.938,0,0,1,2.3-.425,5.875,5.875,0,0,1,2.291.425,5.088,5.088,0,0,1,2.82,2.9,5.745,5.745,0,0,1,.369,2.058,5.679,5.679,0,0,1-.369,2.037,5.187,5.187,0,0,1-1.08,1.72,4.964,4.964,0,0,1-1.73,1.177,6.427,6.427,0,0,1-4.6,0Zm.9-7.632a2.819,2.819,0,0,0-.979,1.1,3.729,3.729,0,0,0,0,3.2,2.744,2.744,0,0,0,.979,1.088,2.562,2.562,0,0,0,1.4.393,2.482,2.482,0,0,0,1.381-.4,2.913,2.913,0,0,0,.989-1.1,3.617,3.617,0,0,0,0-3.188,2.816,2.816,0,0,0-.989-1.1,2.627,2.627,0,0,0-2.78.01Zm112.7,7.737a11.114,11.114,0,0,1-2.041-.629,9.379,9.379,0,0,1-1.8-.991l1.22-2.38a3.989,3.989,0,0,0,.64.471,8.462,8.462,0,0,0,1.119.579,9.274,9.274,0,0,0,1.44.491,6.365,6.365,0,0,0,1.58.2,3.155,3.155,0,0,0,1.7-.375,1.29,1.29,0,0,0,.12-2.063,4.228,4.228,0,0,0-1.281-.628q-.821-.269-1.941-.588a11.812,11.812,0,0,1-2.239-.847,3.293,3.293,0,0,1-1.34-1.185,3.366,3.366,0,0,1-.441-1.793,4.146,4.146,0,0,1,.691-2.439,4.3,4.3,0,0,1,1.869-1.494,6.578,6.578,0,0,1,2.62-.507,7.885,7.885,0,0,1,1.89.219,9.427,9.427,0,0,1,1.671.581,9.855,9.855,0,0,1,1.4.78L502.5,5617a3.362,3.362,0,0,0-.51-.38,5.567,5.567,0,0,0-.9-.461,9.833,9.833,0,0,0-1.151-.389,4.756,4.756,0,0,0-1.261-.171,2.844,2.844,0,0,0-1.689.418,1.371,1.371,0,0,0-.57,1.173,1.2,1.2,0,0,0,.359.916,2.917,2.917,0,0,0,1.08.578q.721.237,1.8.516a12.675,12.675,0,0,1,2.43.827,3.92,3.92,0,0,1,1.58,1.273,3.562,3.562,0,0,1,.55,2.079,4.154,4.154,0,0,1-.42,1.94,3.476,3.476,0,0,1-1.16,1.3,5.154,5.154,0,0,1-1.679.727,8.424,8.424,0,0,1-2,.229A10.387,10.387,0,0,1,496.842,5627.36Zm-14.67-.349a5.008,5.008,0,0,1-1.921-1.57,6.821,6.821,0,0,1-1.07-2.27,10.227,10.227,0,0,1-.339-2.65v-7.24H481.6v7.24a8.533,8.533,0,0,0,.171,1.71,4.627,4.627,0,0,0,.57,1.49,2.943,2.943,0,0,0,1.06,1.04,3.748,3.748,0,0,0,3.31-.01,2.919,2.919,0,0,0,1.06-1.05,4.983,4.983,0,0,0,.57-1.49,7.938,7.938,0,0,0,.18-1.69v-7.24h2.741v7.24a10.358,10.358,0,0,1-.351,2.741,6.393,6.393,0,0,1-1.1,2.25,5.144,5.144,0,0,1-1.929,1.52,7.564,7.564,0,0,1-5.71-.02Zm-111.648-.061a6.961,6.961,0,0,1-2.17-1.679,8,8,0,0,1-1.421-2.36,7.14,7.14,0,0,1-.04-5.2,7.38,7.38,0,0,1,1.37-2.28,6.6,6.6,0,0,1,2.2-1.64,6.893,6.893,0,0,1,2.961-.61,6.452,6.452,0,0,1,3.389.861,5.492,5.492,0,0,1,2.13,2.239l-2.12,1.46a3.385,3.385,0,0,0-.94-1.269,3.5,3.5,0,0,0-1.24-.66,4.661,4.661,0,0,0-1.3-.189,3.7,3.7,0,0,0-1.809.42,4.014,4.014,0,0,0-1.29,1.1,4.657,4.657,0,0,0-.77,1.52,5.861,5.861,0,0,0-.25,1.68,5.528,5.528,0,0,0,.3,1.81,4.939,4.939,0,0,0,.851,1.541,4.053,4.053,0,0,0,1.32,1.06,3.678,3.678,0,0,0,1.689.39,4.319,4.319,0,0,0,1.34-.221,3.813,3.813,0,0,0,1.261-.7,3.2,3.2,0,0,0,.9-1.239l2.26,1.3a4.239,4.239,0,0,1-1.371,1.8,6.84,6.84,0,0,1-2.13,1.119,7.591,7.591,0,0,1-2.339.38A6.129,6.129,0,0,1,370.524,5626.95Zm85.759.53v-5.8a2.987,2.987,0,0,0-.44-1.812,1.453,1.453,0,0,0-1.22-.572,2.453,2.453,0,0,0-1.091.273,3.394,3.394,0,0,0-.989.752,2.915,2.915,0,0,0-.64,1.1v6.051h-2.68V5617.1h2.42v1.937a3.888,3.888,0,0,1,1.021-1.137,4.617,4.617,0,0,1,1.43-.712,5.865,5.865,0,0,1,1.71-.247,3.328,3.328,0,0,1,1.61.346,2.406,2.406,0,0,1,.96.93,4.114,4.114,0,0,1,.459,1.314,8.506,8.506,0,0,1,.13,1.484v6.465Zm-12.16,0V5617h2.68v10.479Zm-37.7,0v-5.8a3.046,3.046,0,0,0-.431-1.8,1.4,1.4,0,0,0-1.189-.581,2.286,2.286,0,0,0-1.491.6,3.282,3.282,0,0,0-1.009,1.567v6.012h-2.68v-5.8a3.044,3.044,0,0,0-.43-1.812,1.407,1.407,0,0,0-1.19-.572,2.31,2.31,0,0,0-1.491.586,3.171,3.171,0,0,0-1.009,1.542v6.051h-2.68V5617.1h2.42v1.937a4.145,4.145,0,0,1,1.6-1.552,4.742,4.742,0,0,1,2.3-.544,2.993,2.993,0,0,1,2.03.633,2.787,2.787,0,0,1,.93,1.562,4.487,4.487,0,0,1,1.631-1.631,4.42,4.42,0,0,1,2.229-.564,3.209,3.209,0,0,1,1.59.346,2.5,2.5,0,0,1,.95.93,3.962,3.962,0,0,1,.471,1.314,8.5,8.5,0,0,1,.13,1.484v6.465Zm37.7-11.939v-2.66h2.68v2.66Zm-30.209-10.275a4.849,4.849,0,0,1-1.58-1.148,5.235,5.235,0,0,1-1.04-1.71,5.891,5.891,0,0,1-.37-2.106,6.072,6.072,0,0,1,.6-2.721,4.862,4.862,0,0,1,1.659-1.928,4.237,4.237,0,0,1,2.42-.712,3.92,3.92,0,0,1,2.09.571,4.175,4.175,0,0,1,1.45,1.449v-6.079h2.68v11.6a.991.991,0,0,0,.14.6.68.68,0,0,0,.481.221v2.181a6.168,6.168,0,0,1-1.141.139,1.908,1.908,0,0,1-1.19-.359,1.309,1.309,0,0,1-.53-.94l-.04-.66a3.908,3.908,0,0,1-1.57,1.5,4.393,4.393,0,0,1-2.069.521A4.733,4.733,0,0,1,413.913,5605.265Zm1.409-7.79a2.8,2.8,0,0,0-.869.687,2.926,2.926,0,0,0-.56,1,3.732,3.732,0,0,0-.191,1.2,3.35,3.35,0,0,0,.211,1.188,2.759,2.759,0,0,0,.609.971,2.963,2.963,0,0,0,.93.647,2.8,2.8,0,0,0,1.151.236,2.472,2.472,0,0,0,.77-.127,3.264,3.264,0,0,0,.739-.354,2.731,2.731,0,0,0,.621-.55,2.413,2.413,0,0,0,.41-.7v-2.452a2.781,2.781,0,0,0-.64-1.021,3.586,3.586,0,0,0-.979-.715,2.451,2.451,0,0,0-2.2-.01Zm-15.38,7.165a4.753,4.753,0,0,1-.84-3.042v-6.5h2.68v5.91a3.012,3.012,0,0,0,.44,1.788,1.5,1.5,0,0,0,1.3.6,2.726,2.726,0,0,0,1.029-.206,2.935,2.935,0,0,0,.941-.616,3.527,3.527,0,0,0,.729-1.039V5595.1h2.68v7.391a.926.926,0,0,0,.15.592.726.726,0,0,0,.49.218v2.181c-.267.039-.49.069-.67.089a4.584,4.584,0,0,1-.49.03,1.95,1.95,0,0,1-1.17-.327,1.282,1.282,0,0,1-.529-.9l-.061-.831a4.563,4.563,0,0,1-1.8,1.594,5.37,5.37,0,0,1-2.42.546A2.973,2.973,0,0,1,399.943,5604.64Zm-10.319.615a4.95,4.95,0,0,1-1.73-1.177,5.282,5.282,0,0,1-1.09-1.72,5.7,5.7,0,0,1,0-4.093,5.273,5.273,0,0,1,1.09-1.722,4.976,4.976,0,0,1,1.73-1.177,5.938,5.938,0,0,1,2.3-.425,5.862,5.862,0,0,1,2.29.425,5.111,5.111,0,0,1,1.73,1.177,5.051,5.051,0,0,1,1.09,1.722,5.841,5.841,0,0,1,0,4.093,5.142,5.142,0,0,1-1.08,1.72,4.964,4.964,0,0,1-1.73,1.177,6.423,6.423,0,0,1-4.6,0Zm.9-7.632a2.841,2.841,0,0,0-.979,1.1,3.729,3.729,0,0,0,0,3.2,2.765,2.765,0,0,0,.979,1.088,2.57,2.57,0,0,0,1.4.393,2.478,2.478,0,0,0,1.38-.4,2.889,2.889,0,0,0,.991-1.1,3.617,3.617,0,0,0,0-3.188,2.809,2.809,0,0,0-.991-1.1,2.627,2.627,0,0,0-2.78.01Zm-9.11,7.385a2.55,2.55,0,0,1-.69-1.914V5590.88h2.68v11.276a1.44,1.44,0,0,0,.24.973.872.872,0,0,0,.66.25,2.851,2.851,0,0,0,.66-.079,3.131,3.131,0,0,0,.6-.2l.36,2.041a5.235,5.235,0,0,1-1.259.4,6.884,6.884,0,0,1-1.3.14A2.677,2.677,0,0,1,381.413,5605.008Zm-10.889-.058a6.961,6.961,0,0,1-2.17-1.679,8,8,0,0,1-1.421-2.36,7.14,7.14,0,0,1-.04-5.2,7.38,7.38,0,0,1,1.37-2.28,6.584,6.584,0,0,1,2.2-1.64,6.893,6.893,0,0,1,2.961-.61,6.447,6.447,0,0,1,3.389.861,5.484,5.484,0,0,1,2.13,2.239l-2.12,1.46a3.385,3.385,0,0,0-.94-1.269,3.5,3.5,0,0,0-1.24-.66,4.664,4.664,0,0,0-1.3-.191,3.7,3.7,0,0,0-1.809.421,4.014,4.014,0,0,0-1.29,1.1,4.642,4.642,0,0,0-.77,1.52,5.861,5.861,0,0,0-.25,1.68,5.528,5.528,0,0,0,.3,1.81,4.939,4.939,0,0,0,.851,1.541,4.053,4.053,0,0,0,1.32,1.06,3.684,3.684,0,0,0,1.689.39,4.319,4.319,0,0,0,1.34-.221,3.77,3.77,0,0,0,1.261-.7,3.193,3.193,0,0,0,.9-1.241l2.26,1.3a4.239,4.239,0,0,1-1.371,1.8,6.84,6.84,0,0,1-2.13,1.119,7.562,7.562,0,0,1-2.339.38A6.129,6.129,0,0,1,370.524,5604.95Z" fill="#07152b"/>
  </g>
</svg>
