<svg width="211" height="47" viewBox="0 0 211 47" fill="none" xmlns="http://www.w3.org/2000/svg">
<path d="M201.933 30.4745V23.9941H199.013V19.5538H201.933V11.5532H206.654V19.5538H209.774V23.9941H206.654V30.4745C206.654 31.6746 206.747 32.5813 206.934 33.1947C207.12 33.8081 207.374 34.2348 207.694 34.4748C208.04 34.6881 208.414 34.8081 208.814 34.8348C209.241 34.8615 209.667 34.8748 210.094 34.8748H210.774V39.6351H210.174C208.707 39.6351 207.454 39.5285 206.414 39.3151C205.374 39.1018 204.52 38.6884 203.854 38.075C203.187 37.435 202.693 36.5149 202.373 35.3148C202.08 34.0881 201.933 32.4747 201.933 30.4745Z" fill="#0A0A0A"/>
<path d="M181.629 36.835L184.43 33.8347C185.843 35.0615 187.296 35.6749 188.79 35.6749C189.217 35.6749 189.603 35.6349 189.95 35.5549C190.323 35.4482 190.63 35.2882 190.87 35.0748C191.19 34.7815 191.377 34.4348 191.43 34.0348C191.483 33.6081 191.483 33.2614 191.43 32.9947C191.323 32.5147 190.99 32.1413 190.43 31.8746C189.897 31.5813 189.23 31.3279 188.43 31.1146C187.656 30.8745 186.856 30.5812 186.03 30.2345C185.203 29.8878 184.47 29.4211 183.83 28.8344C182.789 27.8477 182.189 26.8076 182.029 25.7142C181.896 24.5941 182.109 23.554 182.669 22.594C183.256 21.6339 184.11 20.8605 185.23 20.2738C186.35 19.6604 187.656 19.3538 189.15 19.3538C190.563 19.3538 191.83 19.6071 192.95 20.1138C194.07 20.5938 194.964 21.2206 195.63 21.9939L192.59 24.7141C192.163 24.3141 191.63 24.0207 190.99 23.8341C190.377 23.6207 189.777 23.514 189.19 23.514C188.577 23.514 188.043 23.6474 187.59 23.9141C187.136 24.1541 186.91 24.5808 186.91 25.1942C186.91 25.6742 187.096 26.0609 187.47 26.3542C187.843 26.6476 188.323 26.9009 188.91 27.1143C189.523 27.3276 190.177 27.5543 190.87 27.7943C191.59 28.0077 192.27 28.2877 192.91 28.6344C193.737 29.0611 194.43 29.6745 194.99 30.4745C195.55 31.2479 195.83 32.2613 195.83 33.5147C195.83 34.8748 195.497 36.0216 194.83 36.955C194.19 37.8884 193.337 38.6084 192.27 39.1151C191.203 39.5951 190.03 39.8352 188.75 39.8352C187.496 39.8352 186.243 39.5951 184.99 39.1151C183.763 38.6084 182.643 37.8484 181.629 36.835Z" fill="#0A0A0A"/>
<path d="M169.512 40.0752C167.592 40.0752 165.898 39.6618 164.431 38.8351C162.991 37.9817 161.858 36.8083 161.031 35.3149C160.231 33.7947 159.831 32.0346 159.831 30.0345C159.831 26.5142 160.711 23.8607 162.471 22.0739C164.258 20.2605 166.605 19.3538 169.512 19.3538C171.405 19.3538 173.072 19.7538 174.512 20.5538C175.979 21.3539 177.126 22.554 177.952 24.1541C178.779 25.7275 179.192 27.6877 179.192 30.0345C179.192 32.0346 178.779 33.7947 177.952 35.3149C177.126 36.8083 175.979 37.9817 174.512 38.8351C173.072 39.6618 171.405 40.0752 169.512 40.0752ZM169.512 35.4749C170.605 35.4749 171.525 35.2215 172.272 34.7148C173.045 34.1814 173.619 33.5014 173.992 32.6747C174.392 31.8479 174.592 30.9679 174.592 30.0345C174.592 28.3544 174.152 26.9276 173.272 25.7542C172.419 24.5541 171.165 23.9541 169.512 23.9541C167.912 23.9541 166.658 24.5274 165.751 25.6742C164.871 26.8209 164.431 28.2744 164.431 30.0345C164.431 30.9946 164.631 31.888 165.031 32.7147C165.431 33.5414 166.005 34.2081 166.752 34.7148C167.525 35.2215 168.445 35.4749 169.512 35.4749Z" fill="#0A0A0A"/>
<path d="M156.614 39.5551H151.814V28.0344C151.814 26.6743 151.454 25.6875 150.734 25.0741C150.04 24.4608 149.08 24.1541 147.854 24.1541C146.734 24.1541 145.827 24.5141 145.133 25.2342C144.467 25.9275 144.133 26.6609 144.133 27.4343V39.5551H139.333V11.5532H144.133V20.6338C144.773 20.1005 145.533 19.7538 146.413 19.5938C147.32 19.4071 148.254 19.3538 149.214 19.4338C151.641 19.7271 153.481 20.6605 154.734 22.234C155.987 23.7807 156.614 25.7142 156.614 28.0344V39.5551Z" fill="#0A0A0A"/>
<path d="M132.368 17.1937C131.541 17.1937 130.848 16.9137 130.288 16.3536C129.728 15.7936 129.448 15.1002 129.448 14.2735C129.448 13.4735 129.728 12.7934 130.288 12.2334C130.848 11.6733 131.541 11.3933 132.368 11.3933C133.168 11.3933 133.848 11.6733 134.408 12.2334C134.968 12.7934 135.248 13.4735 135.248 14.2735C135.248 15.1002 134.968 15.7936 134.408 16.3536C133.848 16.9137 133.168 17.1937 132.368 17.1937ZM134.568 39.5552H130.168V19.5539H134.568V39.5552Z" fill="#0A0A0A"/>
<path d="M117.006 30.4745V23.9941H114.085V19.5538H117.006V11.5532H121.726V19.5538H124.846V23.9941H121.726V30.4745C121.726 31.6746 121.819 32.5813 122.006 33.1947C122.193 33.8081 122.446 34.2348 122.766 34.4748C123.113 34.6881 123.486 34.8081 123.886 34.8348C124.313 34.8615 124.74 34.8748 125.166 34.8748H125.846V39.6351H125.246C123.779 39.6351 122.526 39.5285 121.486 39.3151C120.446 39.1018 119.592 38.6884 118.926 38.075C118.259 37.435 117.766 36.5149 117.446 35.3148C117.152 34.0881 117.006 32.4747 117.006 30.4745Z" fill="#0A0A0A"/>
<path d="M98.3516 39.555V19.5536H103.112V21.0337C104.152 19.967 105.392 19.447 106.832 19.4736C108.299 19.5003 109.912 19.7937 111.672 20.3537L109.352 24.474C108.339 24.1273 107.339 24.0206 106.352 24.154C105.392 24.2873 104.605 24.5806 103.992 25.034C103.379 25.4874 103.085 26.0341 103.112 26.6741V39.555H98.3516Z" fill="#0A0A0A"/>
<path d="M85.0527 40.0752C83.1326 40.0752 81.4392 39.6618 79.9724 38.8351C78.5323 37.9817 77.3989 36.8083 76.5722 35.3149C75.7721 33.7947 75.3721 32.0346 75.3721 30.0345C75.3721 26.5142 76.2521 23.8607 78.0123 22.0739C79.799 20.2605 82.1459 19.3538 85.0527 19.3538C86.9462 19.3538 88.613 19.7538 90.0531 20.5538C91.5198 21.3539 92.6666 22.554 93.4933 24.1541C94.32 25.7275 94.7334 27.6877 94.7334 30.0345C94.7334 32.0346 94.32 33.7947 93.4933 35.3149C92.6666 36.8083 91.5198 37.9817 90.0531 38.8351C88.613 39.6618 86.9462 40.0752 85.0527 40.0752ZM85.0527 35.4749C86.1461 35.4749 87.0662 35.2215 87.8129 34.7148C88.5863 34.1814 89.1597 33.5014 89.533 32.6747C89.9331 31.8479 90.1331 30.9679 90.1331 30.0345C90.1331 28.3544 89.6931 26.9276 88.813 25.7542C87.9596 24.5541 86.7062 23.9541 85.0527 23.9541C83.4526 23.9541 82.1992 24.5274 81.2925 25.6742C80.4124 26.8209 79.9724 28.2744 79.9724 30.0345C79.9724 30.9946 80.1724 31.888 80.5724 32.7147C80.9725 33.5414 81.5458 34.2081 82.2925 34.7148C83.0659 35.2215 83.986 35.4749 85.0527 35.4749Z" fill="#0A0A0A"/>
<path d="M75.3686 11.5532L66.8481 39.5551H62.3678L53.8472 11.5532H58.9675L64.6079 32.5547L70.2483 11.5532H75.3686Z" fill="#0A0A0A"/>
<g opacity="0.43">
<path d="M11.5346 1.14337C8.59567 3.54535 6.34199 6.7344 4.78999 10.4754C2.98333 14.7808 2.63299 19.4833 3.33546 24.301C4.79334 33.2326 11.3658 40.4746 19.5561 40.9618C22.5699 41.1165 25.2801 40.3474 27.8985 38.6804C30.4687 36.9487 32.3066 34.3655 33.3364 31.22C34.2444 28.298 34.0413 25.3122 32.8742 22.458C31.9701 20.3428 30.399 18.6306 28.3199 18.046C27.3811 17.8234 25.916 17.5439 25.5526 18.8667C26.0567 19.9302 27.0096 20.6862 27.6278 21.6438C29.1459 24.0627 29.1296 27.1427 27.7787 29.6021C26.3707 32.1131 24.0464 33.3992 21.379 33.5792C16.8472 33.8503 13.1052 30.6528 11.3716 26.1357C9.19866 20.3846 10.597 13.7239 14.5182 9.53287C17.0537 6.84909 20.1503 5.17441 23.8474 4.6924C28.7774 4.05065 33.2264 5.60623 37.0472 9.16801C39.0877 10.9929 40.7452 12.9532 42.0364 15.584C43.4228 18.344 44.1217 21.0883 44.5253 24.2136C45.1761 29.7367 44.15 34.9584 41.6851 39.5465C42.0397 38.3413 42.6455 37.3415 43.0483 36.1995C43.7323 34.1417 44.1968 32.1782 44.4685 29.9562C44.626 27.84 44.6124 25.8828 44.3488 23.72C43.5798 17.6503 40.9822 12.6225 36.6438 8.88622C33.9981 6.64005 31.1207 5.37428 27.8658 4.89784C22.8211 4.22444 17.8688 5.8713 14.3776 9.99144C11.0576 13.9528 9.62449 19.6613 11.1998 24.8721C12.1781 28.1203 14.1568 30.7681 16.9124 32.2573C18.4958 33.0834 20.1715 33.3862 21.9395 33.1672C24.1375 32.876 26.0801 31.7268 27.2993 29.6084C28.2156 27.9912 28.5749 26.0146 28.1313 24.1296C27.8848 23.1541 27.4201 22.2728 26.7843 21.5518C26.1002 20.7648 25.2261 20.373 24.3621 19.8624C23.9586 19.5806 23.4498 19.2886 23.598 18.711C24.1237 17.3469 25.633 17.0386 26.8481 17.1126C29.5943 17.297 31.7794 19.3143 33.0606 22.064C34.6453 25.7349 34.4443 29.8613 32.8034 33.3554C29.984 39.1488 23.9314 42.0381 18.0126 40.9717C11.9897 39.8935 7.16768 35.5111 4.65709 29.3077C2.49831 24.0915 2.22923 18.4328 3.86407 12.8638C5.28488 8.04284 7.77904 3.75444 11.5297 1.14466L11.5346 1.14337Z" fill="url(#paint0_linear_57_5700)"/>
<path d="M12.2675 0.571211C7.87285 3.99856 4.74106 8.9883 3.49208 15.0728C2.56709 19.6524 2.92312 24.1368 4.46373 28.3955C5.61313 31.4848 7.27598 34.0976 9.65405 36.3748C12.3391 38.8031 15.2471 40.3686 18.6656 40.8038C21.6135 41.1277 24.4113 40.6067 27.0704 39.1219C29.3948 37.8372 31.0833 35.8301 32.3772 33.425C33.8775 30.3894 34.3108 26.7037 33.0725 23.3675C32.5454 21.8868 31.7914 20.6192 30.6468 19.6034C29.7433 18.9106 28.774 18.3896 27.673 18.2098C27.2518 18.1631 26.8701 18.2986 26.5366 18.5001C26.3084 18.7119 26.2249 19.1175 26.4673 19.4406C27.2784 20.6552 28.0996 21.7537 28.5772 23.1698C29.2531 25.4968 28.9638 27.954 27.6964 30.0064C25.3504 33.7186 20.938 34.5362 17.2437 32.8258C13.3475 30.9745 10.8824 27.0295 10.3322 22.2866C10.0109 18.7544 10.6207 15.5623 12.2162 12.6559C14.4175 8.74982 17.8612 5.98887 21.9183 4.95266C24.1339 4.4263 26.3218 4.25258 28.6204 4.74298C31.8006 5.5075 34.6792 6.77328 37.259 9.18997C39.2906 11.1324 40.8923 13.1457 42.1735 15.894C43.9675 19.5882 44.8546 23.3596 44.759 27.4976C44.6368 31.9883 43.6901 36.1506 41.6117 39.8332C43.0537 36.8506 44.0276 33.7581 44.5485 30.3191C44.8113 28.2147 44.6924 26.2457 44.4859 24.03C43.9151 18.8698 41.9052 14.5012 38.8289 10.9035C35.995 7.62893 32.327 5.56584 28.2475 4.76093C24.475 4.10859 20.9695 4.84903 17.6853 6.91631C15.2951 8.37152 13.4924 10.4845 12.1327 13.0615C11.0012 15.4267 10.3872 17.9664 10.3886 20.8113C10.3581 23.3564 11.091 25.629 12.2628 27.7147C14.4527 31.8082 18.5724 34.2163 22.7259 33.3107C24.8845 32.8373 26.6342 31.4297 27.7963 29.3656C28.6073 27.7354 28.9096 25.8145 28.5142 23.9927C28.0618 22.2239 27.049 20.8684 25.7014 19.713C25.355 19.3782 24.9603 18.9789 25.2049 18.532C25.4025 18.0204 25.8983 17.779 26.4323 17.7184C29.5296 17.4661 31.9471 19.9255 33.1053 22.8973C34.4388 26.3626 34.1414 30.3597 32.4712 33.5541C31.6778 34.9479 30.7779 36.3313 29.6381 37.3902C27.4232 39.339 24.8883 40.6004 21.8874 40.9819C16.9663 41.5074 12.5526 39.4802 8.99811 35.8888C5.50191 32.2445 3.45253 27.6924 3.01231 22.1925C2.29141 13.3426 5.92649 5.15046 12.2637 0.573914L12.2675 0.571211Z" fill="url(#paint1_linear_57_5700)"/>
<path d="M9.27155 3.02783C7.30657 5.18213 5.73627 7.73578 4.57069 10.5699C2.80344 15.0575 2.28194 19.9188 3.19622 24.7599C3.93867 28.3389 5.34686 31.5161 7.42202 34.2918C9.73834 37.3919 12.814 39.5671 16.4459 40.6781C19.7226 41.5718 22.8682 41.3856 25.9383 40.0636C28.0751 39.1729 29.8819 37.7123 31.4081 35.7464C33.2942 33.2278 34.3151 30.1998 34.1968 26.8085C34.0996 22.412 31.8702 18.1377 27.8083 17.0976C26.9178 16.9397 26.0755 16.8477 25.2068 17.1071C24.768 17.2956 24.281 17.4208 23.8817 17.7914C23.3682 18.2679 22.8207 19.2161 23.5224 19.7666C23.6759 19.8429 23.8777 19.9838 24.0312 20.0601C26.1015 20.7623 27.7867 22.37 28.138 24.7796C28.5592 27.6711 27.2007 30.2467 25.1746 31.8015C23.4907 33.0387 21.5515 33.4178 19.56 33.08C15.6339 32.3514 12.5324 29.1064 11.2506 24.9357C10.1529 21.1409 10.5086 17.0909 12.1482 13.5967C13.9855 9.59104 17.3796 6.76545 21.2451 5.4722C24.9381 4.33777 28.6888 4.57282 32.335 6.21862C33.8701 6.98004 35.1871 7.8357 36.5905 8.93952C37.9368 10.0949 39.1133 11.4091 40.1756 12.8307C41.2291 14.3684 42.1102 16.0663 42.8784 17.8687C43.9402 20.7113 44.4679 23.6144 44.6039 26.7707C44.5959 31.1555 43.7062 35.2648 41.7813 39.0237C41.7491 38.9806 41.714 38.9767 41.676 39.012C43.9873 34.3476 44.9551 29.1802 44.2003 23.6454C43.5067 18.7101 41.602 14.3518 38.4116 10.8586C36.5905 8.93952 34.6301 7.47902 32.2691 6.38913C29.3918 5.12475 26.5097 4.62897 23.3948 5.11634C19.8994 5.73925 16.9068 7.42417 14.469 10.2372C11.9654 13.2207 10.6709 17.0496 10.8341 21.2742C10.9789 24.3129 12.0507 27.0379 13.7958 29.245C15.6475 31.4638 18.0873 32.9181 20.9069 32.813C22.8196 32.7865 24.5252 31.9666 25.8945 30.6959C27.2142 29.3591 27.9464 27.366 27.731 25.2678C27.5286 23.7045 26.7746 22.4369 25.5629 21.5915C24.6506 21.0177 23.6372 21.0832 22.5844 20.9679C22.0097 20.845 21.6809 20.2751 21.7238 19.6886C21.8766 18.3425 22.8465 17.4424 23.8952 16.9053C26.4213 15.7614 29.2211 16.6615 31.2426 18.7215C33.2172 20.7169 34.2001 23.195 34.459 26.1278C34.7715 29.7776 33.6924 32.8585 31.7328 35.6652C29.829 38.419 27.2105 40.086 24.2809 40.9494C19.4604 42.2553 14.508 41.0587 10.4094 37.644C8.51369 36.013 6.95266 34.1819 5.63624 31.9038C3.86397 28.6269 2.84509 25.1966 2.65551 21.3233C2.387 14.2408 4.6935 7.50297 9.27155 3.02783Z" fill="url(#paint2_linear_57_5700)"/>
<path d="M9.84181 2.49825C7.78037 4.52333 6.21006 7.07698 4.89097 9.83478C3.35662 13.3406 2.65447 17.0559 2.82641 21.1629C3.0248 24.9187 3.94599 28.2198 5.67127 31.4321C7.25061 34.4505 9.41811 36.7044 11.9938 38.4686C14.8677 40.503 18.0391 41.3865 21.6146 41.1279C24.7119 40.8757 27.3521 39.626 29.6329 37.5067C31.9137 35.3874 33.5663 32.4281 34.0314 29.0421C34.5482 24.9507 33.1788 20.5332 29.8926 18.3346C28.7303 17.5552 27.3399 16.9863 25.8877 17.2416C25.1331 17.3951 24.3126 17.7204 23.888 18.4438C23.7563 18.7848 23.7781 19.2021 24.0763 19.4722C24.8262 20.0887 25.6508 20.4158 26.4502 21.097C27.3448 21.9073 27.8501 22.9694 28.1831 24.1917C28.7625 26.3895 28.0039 28.7353 26.7059 30.4894C25.4737 32.0729 23.7669 32.8928 21.886 33.2176C20.118 33.438 18.4993 33.0822 16.916 32.2562C14.6133 31.1134 12.8581 29.0238 11.7787 26.4163C9.86516 22.1756 10.1673 17.4085 12.1098 13.4145C13.7318 10.1554 16.2014 7.64217 19.3374 6.15105C22.807 4.45843 26.4307 4.26451 30.1679 5.3871C36.1379 7.17059 40.5693 11.8061 42.9264 17.9332C45.5946 24.864 45.0086 32.7406 41.7722 39.1411C42.5614 37.095 43.4953 35.2413 43.9293 32.978C44.4821 29.8389 44.8054 26.9115 44.3053 23.6556C43.5635 18.6557 41.6105 14.2328 38.4201 10.741C34.9315 6.97903 30.5367 4.71673 25.5925 4.82498C21.2319 4.93724 17.2842 6.63614 14.3153 10.1622C12.1615 12.7105 10.9695 15.8972 10.6578 19.3595C10.478 22.4807 11.1592 25.4588 12.7168 28.0599C14.3797 30.6727 16.736 32.5326 19.618 33.027C21.5613 33.3002 23.5576 32.8681 25.1844 31.6839C26.536 30.6469 27.5399 29.2765 27.9956 27.4305C28.0968 26.7897 28.1396 26.2019 28.1355 25.5495C28.092 24.7149 27.8849 23.9216 27.5166 23.1695C26.6825 21.5362 25.3756 20.563 23.757 20.2072C23.2876 20.0959 22.7306 19.7393 22.8305 19.0985C22.9493 18.2226 23.6239 17.7048 24.2908 17.3031C25.8354 16.5246 27.5186 16.7099 29.055 17.4727C32.1748 19.0602 34.1005 22.4133 34.2901 26.2866C34.3473 29.0785 33.9451 31.6415 32.603 33.9834C31.9972 34.9831 31.3444 35.9196 30.6422 36.7901C28.0421 39.6444 24.5889 41.1019 20.8612 41.2842C17.2463 41.3605 14.0443 40.1787 11.074 38.0137C7.75716 35.5154 5.41908 31.998 4.03198 27.8156C1.02546 19.0101 3.55469 8.56186 9.84428 2.4983L9.84181 2.49825Z" fill="url(#paint3_linear_57_5700)"/>
<path d="M7.60079 4.79946C3.53564 10.2191 1.77732 17.4326 2.99337 24.6186C3.52871 27.4042 4.40636 29.8707 5.82048 32.2781C7.99624 35.8367 10.9149 38.7057 14.6169 40.2986C20.7939 42.8754 27.8607 41.3416 32.0182 35.3987C34.8118 31.3805 35.5296 26.0076 33.2697 21.4321C32.028 18.866 29.9963 16.9236 27.3819 16.3982C24.9781 15.8961 21.8203 16.9713 21.4869 20.0162C21.4252 20.8392 21.9746 21.3148 22.7191 21.2775C24.1143 21.0751 25.4741 21.3429 26.4475 22.5177C28.1545 24.5427 28.0229 27.7285 26.4878 29.8119C25.3128 31.3425 23.8559 32.3665 22.0321 32.6398C19.4041 33.0019 16.9697 32.2015 14.881 30.312C12.4547 27.9702 11.0947 24.8576 10.8875 21.2194C10.6674 17.0464 12.0088 13.2835 14.5137 10.3C16.8944 7.5399 19.8958 5.73602 23.4395 5.17774C26.5544 4.69036 29.4352 5.18613 32.3138 6.45053C37.9644 8.96902 41.913 14.3822 43.6119 20.792C44.692 24.8218 44.7662 28.801 43.7637 33.0162C43.2332 35.1503 42.5581 37.0905 41.6724 39.0088L41.3301 39.3265C44.6059 33.1095 45.1831 25.3504 42.7255 18.4416C41.7031 15.7813 40.3385 13.4386 38.5833 11.349C36.2799 8.78375 33.713 6.90192 30.4452 5.88923C26.765 4.71369 23.2465 4.91928 19.8429 6.44139C16.2681 8.12235 13.3903 11.1238 11.9184 15.2291C10.3617 19.7387 10.9248 25.0164 13.7805 28.7083C16.2021 31.8201 20.23 33.3304 23.7477 31.7024C25.8439 30.6295 27.3965 28.3109 27.1288 25.4971C27.0459 24.4804 26.6282 23.6637 25.9924 22.9427C25.5977 22.5433 25.0889 22.2499 24.5143 22.1283C23.6238 21.9703 22.948 22.4895 22.1363 22.6959C21.8117 22.7785 21.5046 22.6259 21.2547 22.4204C20.4171 21.5571 20.4647 20.1993 20.8587 19.1762C22.0343 16.2246 25.1833 15.267 27.9336 16.1024C31.8725 17.3659 34.1942 21.1184 34.7126 25.5602C35.1216 29.3392 34.1783 32.7315 32.0475 35.6971C30.4466 37.951 28.4775 39.4529 26.1708 40.5024C23.5876 41.6992 20.9203 41.8806 18.1347 41.514C12.6294 40.6118 8.08043 36.8508 5.24048 31.5013C0.733538 22.8866 1.76705 11.8591 7.60079 4.79669L7.60079 4.79946Z" fill="url(#paint4_linear_57_5700)"/>
<path d="M8.00858 4.31167C5.01322 8.18903 3.17128 12.9647 2.72983 18.1904C2.32244 22.9458 3.31017 27.4989 5.54834 31.6571C7.97944 36.0737 11.4539 39.3007 16.1222 40.7621C20.7412 42.1602 25.3653 41.3645 29.0841 38.455C32.9171 35.4395 35.1672 30.1757 34.2882 24.8643C33.6993 21.3616 31.7382 18.4801 28.8214 17.0322C26.6152 16.0186 23.8908 16.2529 22.2987 18.3878C21.7106 19.1524 21.5972 20.6808 22.6982 20.862C23.9045 21.055 25.1285 21.0114 26.1196 21.9496C27.0625 22.8232 27.616 23.9513 27.779 25.3324C28.0861 28.3298 26.5259 30.7645 24.2573 31.9963C20.1691 34.1538 15.3355 32.0813 12.8779 28.0174C11.3686 25.4808 10.6315 22.5543 10.8101 19.4345C10.9106 17.3713 11.4716 15.537 12.2432 13.726C13.7117 10.3906 16.2778 8.0066 19.3656 6.45087C22.0146 5.0836 24.8619 4.62585 27.801 5.06868C31.8411 5.69141 35.4126 7.62528 38.3606 10.794C41.5498 14.2858 43.5115 18.5911 44.1963 23.6454C44.9042 29.1156 43.9745 34.4651 41.615 39.0649C44.689 32.7071 45.3715 24.9596 42.6462 18.0805C41.6239 15.4201 40.3163 13.0231 38.3988 10.9748C36.6259 9.12027 34.6744 7.54221 32.3616 6.51693C29.4843 5.25255 26.6022 4.75676 23.4873 5.24414C20.0477 5.81407 17.0081 7.43441 14.5703 10.2474C12.4736 12.7428 11.2334 15.8649 10.9217 19.3285C10.6936 22.3851 11.432 25.3103 12.9413 27.8468C14.2666 30.0073 16.0659 31.5091 18.395 32.2992C20.733 32.9718 22.9792 32.7452 24.9483 31.2433C26.4698 30.0474 27.452 28.2598 27.5537 26.1966C27.6012 24.8388 27.1719 23.4873 26.2848 22.5607C25.8419 22.0968 25.3332 21.8033 24.7673 21.5642C23.9339 21.3547 23.1222 21.5611 22.2711 21.5853C21.4771 21.5566 21.1748 20.6354 21.2835 19.8771C21.6869 17.3141 24.0024 16.1469 26.174 16.2084C29.6177 16.2908 32.4475 18.9144 33.7327 22.3152C34.6586 24.8463 34.8869 27.4793 34.3136 30.2012C33.5998 33.3817 32.0295 35.9354 29.9198 37.8958C25.8146 41.7108 20.13 42.5074 14.9223 40.4529C11.9879 39.2415 9.58333 37.317 7.49053 34.7751C5.84062 32.6971 4.6383 30.3132 3.82652 27.6747C1.18062 19.7389 2.9329 10.4492 8.00734 4.31165L8.00858 4.31167Z" fill="url(#paint5_linear_57_5700)"/>
<path d="M6.37745 6.26423C4.25963 9.76467 2.96644 13.5922 2.48904 17.8657C2.08633 21.8512 2.76291 25.6006 4.18405 29.3127C5.21521 31.8556 6.58868 34.0821 8.40093 36.1173C10.6649 38.5004 13.1923 40.2001 16.3067 41.1365C17.763 41.5335 19.0746 41.7381 20.5574 41.7825C24.5934 41.7528 28.3788 40.0952 31.1589 36.9645C33.1327 34.6926 34.4035 31.8702 34.8028 28.6548C35.0262 26.3681 34.7626 24.2053 33.9638 22.1032C33.2526 20.2478 32.1433 18.7617 30.6904 17.5946C28.3035 15.435 24.8863 14.9998 22.2984 16.9666C21.0622 17.8977 20.2588 19.4089 20.4435 21.2074C20.5747 22.2888 21.4441 23.4504 22.4446 22.8501C23.2739 22.4085 24.0855 22.2008 24.9672 22.4763C25.7436 22.7401 26.2259 23.3849 26.6436 24.2015C27.8283 26.8206 26.5003 29.6974 24.4818 31.1346C22.5785 32.466 20.2841 32.628 18.0602 31.8495C14.81 30.6031 12.5318 27.6852 11.6283 24.1489C10.843 21.1592 11.0216 18.0379 12.0349 15.1262C13.451 11.0739 16.3771 8.13702 19.9506 6.45604C23.3454 5.05149 26.8639 4.84729 30.544 6.02282C34.6365 7.36259 37.8392 9.96683 40.218 13.6664C42.8949 17.6348 44.295 22.352 44.234 27.4422C44.1689 31.8799 43.1739 35.9776 41.0955 39.6602C40.9726 39.8837 40.8585 39.9896 40.6873 40.1484C43.1345 35.7954 44.4589 30.8438 44.0186 25.344C43.5566 19.4255 41.3408 14.2636 37.3828 10.3904C33.3284 6.38797 28.1437 4.75075 22.8143 5.76452C18.8802 6.57588 15.5683 8.99721 13.3846 12.6682C12.1654 14.7866 11.5121 17.1441 11.3675 19.7951C11.2493 22.0934 11.7235 24.2795 12.6847 26.3404C14.2858 29.7761 17.3044 32.0043 20.7087 31.906C22.4108 31.8562 23.9365 31.3128 25.0952 30.0187C26.0814 28.8834 26.7796 27.3591 26.4807 25.668C26.3394 24.7041 25.8089 23.9934 25.1072 23.4429C24.1949 22.869 23.3874 23.7278 22.5669 24.0518C21.3077 24.5656 20.0842 23.1854 19.873 21.741C19.6529 20.4128 20.0176 19.09 20.6792 18.0373C21.6349 16.6023 22.9118 15.8534 24.4781 15.4922C27.7629 14.8459 30.9703 16.6816 32.9314 19.5631C33.7919 20.8437 34.366 22.3877 34.779 23.9744C35.5697 27.6165 34.8599 31.4508 33.0832 34.6322C31.6841 37.027 29.8508 38.8389 27.5265 40.125C23.6005 42.2412 19.4428 42.4943 15.2044 40.9607C10.4584 39.1336 6.90396 35.5436 4.51697 30.5392C2.31408 25.9108 1.87922 21.0634 2.57063 16.0432C3.07393 12.8394 4.13547 9.99226 5.66636 7.25782C5.85516 6.86385 6.14042 6.59773 6.37744 6.26976L6.37745 6.26423Z" fill="url(#paint6_linear_57_5700)"/>
<path d="M6.67106 5.88183C4.56207 9.26472 3.05831 13.0703 2.62914 17.407C2.48043 19.4056 2.39759 21.2337 2.67001 23.2789C2.95125 25.2066 3.34659 27.0269 4.06536 28.7661C5.66302 32.9719 8.21167 36.5126 11.7478 38.9167C14.8805 41.039 18.416 42.0207 22.1626 41.6034C26.1287 41.0918 29.3952 39.2582 31.9354 35.8045C34.0091 32.8918 35.0489 29.6288 34.6969 25.7968C34.3974 22.6818 33.3268 19.9569 31.0859 17.9911C29.836 16.965 28.5672 16.1725 27.045 15.946C25.3123 15.6961 23.5354 16.034 22.1675 17.3047C21.0835 18.3121 20.2154 19.9939 20.9443 21.6155C21.0713 22.0445 21.3036 22.4851 21.8301 22.5421C22.4135 22.5475 23.0234 22.2002 23.5675 22.022C24.9144 21.755 26.1249 22.6003 26.766 23.9738C27.359 25.2841 27.3584 26.7065 26.938 28.0822C26.254 30.14 24.6667 31.5064 22.8151 32.1324C19.6091 33.143 16.0594 31.625 13.8307 28.7731C10.588 24.5642 10.2577 18.3047 12.6349 13.4698C14.2481 10.3283 16.7088 7.93262 19.7878 6.49445C22.4763 5.30936 25.2753 4.78699 28.2056 5.34738C30.5042 5.83779 32.6228 6.60459 34.6985 7.95922C37.6383 9.82309 39.8275 12.4942 41.5998 15.7711C43.9168 20.2923 44.6675 25.176 44.1296 30.2725C43.6657 33.6585 42.7401 36.8156 41.1533 39.6044C44.8537 32.6627 45.4621 23.781 41.671 16.253C39.6434 12.1182 36.7525 8.89655 32.9134 6.99229C29.4308 5.30523 25.7535 4.7821 22.1264 5.74602C20.1695 6.36034 18.3016 7.22146 16.666 8.52322C14.7363 10.2073 13.096 12.279 12.1485 15.0188C10.7412 18.9536 10.8385 23.3487 12.8443 27.0663C14.0643 29.2151 15.6924 30.8758 17.9645 31.7188C19.8243 32.3977 21.623 32.4771 23.4351 31.6689C25.4754 30.649 27.1716 28.5243 26.9521 25.7751C26.7891 24.3939 26.1315 23.2556 25.0086 22.657C24.1358 22.2639 23.2671 22.5247 22.4772 23.1484C21.9155 23.5603 21.0997 23.1157 20.7227 22.4812C19.8885 20.8493 20.3531 18.8857 21.4547 17.6432C22.498 16.4536 23.8232 15.7707 25.3718 15.6445C27.7716 15.4942 29.8155 16.5491 31.5489 18.2214C34.9004 21.6719 35.7617 27.2184 34.1392 31.8998C33.003 35.0336 31.1092 37.6698 28.4337 39.3912C24.806 41.7775 20.7842 42.3421 16.5688 41.2258C13.4544 40.2907 10.8611 38.7602 8.54887 36.3125C5.5044 33.0146 3.47679 28.8798 2.71726 24.1149C1.77296 17.5517 3.16251 11.0072 6.67478 5.88329L6.67106 5.88183Z" fill="url(#paint7_linear_57_5700)"/>
<path d="M5.49516 7.41251C3.57909 11.0539 2.38236 15.0106 2.26904 19.3837C2.18218 23.4042 3.02109 27.111 4.60456 30.7818C5.74101 33.3363 7.34269 35.3496 9.26903 37.2804C12.2917 40.161 15.7844 41.7306 19.7457 41.9889C23.9264 42.1531 27.9047 40.7539 30.9042 37.5276C33.4384 34.8438 35.0881 31.2321 35.175 27.2116C35.2401 22.7739 33.2695 18.5861 29.821 16.4288C28.15 15.3559 26.2155 14.9652 24.3245 15.409C22.5388 15.8644 20.9691 16.9957 20.1405 18.8596C19.3118 20.7236 19.5401 23.3566 21.3823 24.2706C21.7946 24.4348 22.264 24.5461 22.7027 24.3563C23.475 23.9677 24.2243 23.1604 25.0895 23.6711C26.4535 24.5913 26.7347 26.519 26.1431 28.0536C25.5603 29.4706 24.6299 30.5543 23.363 31.1843C21.381 32.1513 19.2183 31.9723 17.2696 31.0467C14.8134 29.8276 12.9223 27.4265 12.0699 24.6073C11.2175 21.7881 11.1209 18.814 12.0289 15.8906C13.0675 12.6276 14.9624 9.99139 17.5415 8.14221C21.0727 5.62666 25.1604 4.89158 29.3847 5.89032C33.2931 6.85407 36.6757 9.1819 39.2433 12.4861C42.0507 16.1134 43.6307 20.5543 44.0009 25.5736C44.3917 31.0088 43.0686 35.9604 40.5644 40.3663C40.3185 40.8132 40.0345 41.078 39.7404 41.4603C41.3678 38.8537 42.5728 36.2018 43.2967 32.9038C44.5851 27.0014 44.0585 21.2534 41.2667 15.9686C39.5909 12.8209 37.4411 10.3319 34.6636 8.42679C31.531 6.30446 28.0437 5.38738 24.2488 5.73875C17.4544 6.47302 11.88 12.1996 11.6262 19.8761C11.4742 25.4895 15.0234 31.2733 20.371 31.4468C22.8102 31.4786 25.3627 29.9821 25.7355 27.118C25.8137 26.0599 25.336 24.6438 24.3138 24.8283C23.6162 24.9288 23.0634 25.2245 22.3658 25.325C21.8876 25.3313 21.3789 25.0392 20.9183 24.8104C19.9008 24.2249 19.3472 23.0968 19.1766 21.8332C18.8736 19.4883 20.141 17.4359 21.7196 16.187C23.2893 15.0558 25.1232 14.6649 27.0095 14.9911C29.2116 15.3523 31.125 16.7482 32.5808 18.5677C35.4947 22.2066 36.0566 27.4844 34.5482 32.0585C32.5887 37.7101 28.0229 41.2963 22.5565 41.9986C16.986 42.6893 11.7389 40.4526 7.87323 36.0562C4.84639 32.5232 2.88466 28.2178 2.30387 23.1766C1.70254 17.718 2.61335 12.6022 5.07816 8.01411C5.20109 7.79066 5.32401 7.5672 5.49517 7.40836L5.49516 7.41251Z" fill="url(#paint8_linear_57_5700)"/>
<path d="M5.7231 7.20081C3.71057 10.7129 2.61912 14.6813 2.35229 18.9782C2.08958 23.9275 3.32853 28.686 5.77603 32.8675C7.56593 35.9093 10.0493 38.1967 12.9496 39.8798C14.3224 40.6825 15.7217 41.1339 17.2845 41.5427C20.1577 42.1546 22.9304 41.9863 25.5529 40.9717C28.6054 39.8849 31.2592 37.7476 33.0271 34.6825C35.0484 31.0528 35.697 26.6204 34.3581 22.5026C32.8746 18.191 28.9484 14.6175 24.5831 15.4998C22.1569 16.0028 19.8849 18.0046 19.8774 20.967C19.9386 21.5664 19.9922 22.2835 20.321 22.8534C20.8427 23.6817 21.6509 24.2439 22.5666 24.0491C22.9483 23.9136 23.1371 23.5196 23.4706 23.3195C24.4711 22.7178 25.5368 23.3693 26.098 24.3784C27.4932 27.0208 25.9547 29.8742 23.7344 31.1706C22.1253 32.1196 20.4231 32.1695 18.651 31.7374C15.9971 31.0299 14.0796 28.9815 12.7326 26.4037C10.5691 21.9575 10.9535 16.7847 13.3272 12.7198C15.5109 9.04887 18.7657 6.68049 22.6517 5.80591C27.8845 4.66291 33.1846 6.19425 37.286 10.2613C41.2428 14.1345 43.6792 19.2021 44.0259 25.2265C44.352 30.8323 43.3171 36.1715 40.3917 40.5308C42.9442 36.1894 44.3155 31.3039 44.03 25.8789C43.8269 22.8932 43.2345 20.1619 42.0587 17.4253C40.6098 14.0658 38.5347 11.2888 35.8319 9.09557C32.6687 6.6735 29.2079 5.40374 25.3254 5.50833C21.864 5.66096 18.7456 6.91696 16.1795 9.30238C14.4034 11.0627 13.0307 13.1048 12.1491 15.6742C11.1588 19.0018 11.163 22.4991 12.5637 25.7939C14.0113 29.1534 16.9069 31.6064 20.2936 31.7419C22.6757 31.8266 24.9912 30.6595 25.9692 28.218C26.3645 27.195 26.3944 26.0723 25.9956 25.0205C25.588 24.0863 24.578 23.3832 23.8464 23.954C23.0653 24.4601 22.2448 24.7855 21.4202 24.457C20.6438 24.1946 20.2186 23.4955 19.8974 22.808C19.265 21.3156 19.5013 19.5638 20.3442 18.2348C21.4316 16.4574 23.1066 15.3392 25.1334 15.2068C27.6955 15.0151 30.0553 16.1036 31.8763 18.0227C32.5121 18.7451 33.0922 19.5191 33.6051 20.465C34.6233 22.473 35.1545 24.6061 35.1899 26.9807C35.1995 31.1304 33.6081 34.6892 31.0638 37.4905C27.0285 41.7875 21.1463 43.0956 15.5581 41.1766C10.698 39.4568 7.02946 35.9713 4.69952 30.9139C2.95247 27.2843 2.1148 23.5775 2.25871 19.5041C2.37203 15.131 3.57759 11.0567 5.55071 7.3624L5.72186 7.20356L5.7231 7.20081Z" fill="url(#paint9_linear_57_5700)"/>
<path d="M4.96545 8.12393C3.58806 10.936 2.576 13.8464 2.27321 17.1911C1.86168 21.2941 2.31005 25.2553 3.72237 29.085C5.92593 35.1359 10.2597 39.6421 16.1168 41.5315C21.8761 43.2917 27.6707 41.7368 31.6753 37.1401C33.3639 35.133 34.4866 32.8867 35.0687 30.0473C35.6685 26.9727 35.4096 24.0399 34.2425 21.1857C32.9702 18.3198 30.9562 16.1423 28.1095 15.1763C26.1926 14.5504 24.3281 14.6415 22.5072 15.5672C21.0692 16.3574 19.9105 17.6515 19.3583 19.3697C18.8149 20.9689 19.0085 22.6498 19.859 24.0479C20.486 24.8879 21.3501 25.3971 22.2988 25.5022C22.9788 25.6368 23.5405 25.2235 24.238 25.123C24.9838 25.0871 25.4661 25.7318 25.5185 26.4489C25.5708 27.1659 25.4139 27.8596 25.1504 28.5417C23.3967 32.1417 18.9001 31.9426 16.0833 29.8552C14.2764 28.471 13.0388 26.5573 12.3058 24.2832C11.4458 21.5802 11.5422 18.866 12.2778 16.1014C12.997 13.5734 14.3127 11.5842 15.9836 9.81219C18.8513 6.92827 22.6203 5.5058 26.6374 5.71121C30.3882 5.94625 33.726 7.43947 36.8146 10.151C39.4515 12.5161 41.1932 15.4933 42.4797 18.894C43.7485 22.5299 44.0992 26.3619 43.6965 30.3473C43.2761 34.5679 41.7812 38.2559 39.5099 41.6801C39.1587 42.1153 38.7506 42.6035 38.4007 43.0402C41.396 39.1628 43.238 34.3871 43.6794 29.1614C44.0868 24.406 43.0991 19.853 40.8609 15.6948C38.4386 11.162 34.9554 8.05112 30.287 6.58978C26.9138 5.5668 23.663 5.74138 20.5446 6.99876C16.3293 8.72728 13.0664 12.6343 12.1556 17.7501C11.6951 20.366 11.9893 22.8286 12.924 25.2421C14.0516 27.9142 15.978 29.845 18.5177 30.6584C20.5969 31.243 22.7466 30.8872 24.1105 28.9626C24.5934 28.1864 24.8121 26.6697 23.711 26.4884C22.0748 26.3678 20.3508 26.0003 19.3632 24.2907C18.2791 22.4533 18.3972 20.155 19.3312 18.3013C20.388 16.2256 22.1771 15.0001 24.2787 14.5796C28.4716 13.8562 32.4113 16.5421 34.3248 20.7815C36.83 26.3324 35.6599 32.7813 31.9988 37.0589C30.082 39.2778 27.74 40.7977 25.1263 41.6947C21.4815 42.8937 17.7395 42.5411 14.1416 40.9599C11.0625 39.5547 8.47391 37.2542 6.34928 34.4125C4.13824 31.3241 2.82997 27.506 2.16221 23.6404C1.65735 18.3111 2.2964 12.5739 4.96297 8.12527L4.96545 8.12393Z" fill="url(#paint10_linear_57_5700)"/>
<path d="M5.07959 8.0185C1.86083 14.1825 1.17834 21.93 3.63601 28.8387C4.91369 32.357 6.92298 35.3046 9.65631 37.7975C11.6003 39.4932 13.5871 40.601 16.0216 41.4028C20.9958 43.0167 26.0587 42.0339 30.0234 38.6775C33.3693 35.7859 35.4436 31.4523 35.3334 26.5209C35.232 21.472 32.6474 16.9805 28.2554 15.3706C26.3386 14.7447 24.4259 14.7712 22.662 15.644C20.5658 16.7169 19.0131 19.0354 19.2326 21.7846C19.4262 23.4655 20.382 24.874 21.8966 25.2195C22.6336 25.3012 23.34 25.0817 23.9499 24.7344C24.6081 24.4517 25.2704 24.8201 25.5903 25.5075C26.3498 27.4275 25.1964 29.3754 23.7878 30.4653C20.8182 32.5676 16.9363 31.2525 14.5365 28.5581C12.926 26.6623 12.0307 24.4309 11.6971 21.7862C11.1352 16.5098 13.3399 11.8338 16.9065 8.84797C20.1307 6.17986 24.179 5.2626 28.2762 5.83238C31.2635 6.33983 33.9227 7.69846 36.4225 9.75215C39.1164 12.0629 40.9722 14.9342 42.3069 18.401C45.3828 26.2659 44.0034 35.5363 39.2754 42.0086C40.8457 39.4549 42.2524 36.9439 43.0816 33.6562C44.0678 29.6761 44.137 25.8908 43.317 21.9475C42.3292 17.3945 40.2269 13.5477 37.0113 10.4086C33.5939 7.12861 29.4696 5.48908 24.9378 5.76156C22.9109 5.89397 21.1177 6.46703 19.2967 7.39275C17.0865 8.57157 15.3673 10.279 13.9288 12.4916C11.2799 16.7037 10.9261 22.1762 13.4054 26.6574C15.0024 29.4407 17.5692 31.3226 20.6007 31.2422C22.838 31.1331 25.0089 29.7721 25.364 27.1445C25.4652 26.5037 25.1922 25.8809 24.6834 25.5875C23.9729 25.1531 23.0777 25.7665 22.2355 25.6732C20.4457 25.4763 19.2869 23.9269 19.0069 21.9992C18.7563 20.3713 19.2338 18.9426 20.1248 17.6781C22.0286 14.9244 25.0635 14.074 28.0638 15.1149C30.9105 16.0796 32.9333 18.1396 34.2539 21.0701C35.1492 23.3015 35.5574 25.6581 35.4305 28.074C35.0537 33.1291 32.5201 37.2354 28.6642 39.8335C24.1425 42.8318 18.8255 42.958 13.9995 40.768C9.27871 38.5882 5.71252 34.4634 3.71482 29.2058C1.15187 22.2868 1.59321 14.2163 5.07959 8.02127L5.07959 8.0185Z" fill="url(#paint11_linear_57_5700)"/>
<path d="M4.67958 8.389C2.81174 12.095 1.92203 16.2043 1.91399 20.5891C1.91879 22.6639 2.24826 24.6562 2.74007 26.6058C3.73249 30.3889 5.49594 33.7833 8.04929 36.5541C9.28152 37.8153 10.4756 38.8958 11.9448 39.8278C13.3659 40.6951 14.7487 41.3802 16.3586 41.855C21.4556 43.2454 26.6327 42.1568 30.615 38.5652C33.0099 36.34 34.7107 33.4453 35.4041 29.8475C36.105 26.1322 35.4779 22.4474 33.5903 19.2764C32.265 17.1159 30.4175 15.5495 27.983 14.7477C24.3029 13.5721 20.2587 15.1418 18.8426 19.1942C18.4398 20.3348 18.2945 21.5633 18.6287 22.7856C18.8916 23.526 19.1558 24.2664 19.6381 24.9112C20.2651 25.7511 21.025 26.2487 22.012 26.5359C22.8454 26.7454 24.0212 26.6386 24.2589 27.7317C24.1543 29.1425 23.0309 29.9677 21.934 30.4388C18.9385 31.4727 15.8276 29.7663 14.0112 27.0772C11.5272 23.366 11.4346 18.2009 13.3289 14.1423C15.5438 9.34864 19.6837 6.48577 24.6531 6.02481C29.9954 5.5459 34.6502 7.89617 38.2265 11.9049C40.4728 14.5231 42.1004 17.6061 43.0052 21.1424C45.003 29.2447 42.8636 38.0162 37.5962 43.8966L36.5706 44.8497C41.1193 40.0762 43.9421 33.5129 43.586 26.1836C43.2958 21.5287 41.9658 17.2934 39.4159 13.754C37.1566 10.6009 34.3662 8.16093 30.6366 6.92076C25.6611 5.30685 20.5512 6.22501 16.7312 9.7753C15.9325 10.5166 15.2315 11.3885 14.5775 12.3236C11.9944 16.3651 11.3818 21.7497 13.8217 26.0488C15.274 28.6382 17.7356 30.5098 20.5246 30.1049C21.3845 29.9632 22.8531 29.4727 22.5773 28.1974C22.4414 27.886 22.1432 27.6159 21.8362 27.4633C20.1475 26.6257 18.7693 25.1705 18.2293 23.1549C17.7857 21.2685 18.2021 19.2403 19.1666 17.6878C20.1399 16.0163 21.6056 14.8748 23.3418 14.3547C26.3767 13.5043 29.4352 14.4923 31.9186 16.7798C33.9984 18.7868 35.1919 21.2883 35.7096 24.309C36.2021 27.6825 35.7458 30.9509 34.3038 33.9321C32.6818 37.1912 30.2122 39.7044 27.0762 41.1956C24.3218 42.5512 21.4351 42.8267 18.439 42.4369C15.184 41.9604 12.3625 40.6417 9.71808 38.3955C6.9277 35.9555 4.86136 33.0609 3.48721 29.4134C0.924261 22.4943 1.40501 14.606 4.64141 8.20547C4.52731 8.31136 4.68964 8.27008 4.68082 8.38764L4.67958 8.389Z" fill="url(#paint12_linear_57_5700)"/>
<path d="M4.73739 8.33631C3.25473 11.1368 2.4444 14.188 2.09338 17.4681C1.68186 21.5711 2.17846 25.5969 3.6973 29.4383C5.7508 34.6429 9.31824 38.7692 14.1443 40.9592C17.7422 42.5404 21.4829 42.893 25.1289 41.6939C28.392 40.6304 31.151 38.5048 33.1865 35.41C34.6821 33.1445 35.3443 30.6694 35.6018 27.9125C35.908 23.7978 34.4551 19.7859 31.5859 16.9815C28.6114 14.1655 24.4089 13.584 21.2594 15.9627C19.3473 17.4116 18.1323 20.1811 18.8388 22.8078C19.084 23.7833 19.5499 24.6646 20.3481 25.3444C21.4927 26.3588 22.7343 26.0815 24.0853 26.4669C24.8617 26.7308 24.6783 27.7772 24.4719 28.4063C23.2656 31.0595 20.1608 31.428 17.791 30.4557C14.7601 29.115 12.8637 26.0615 12.1619 22.6648C11.5695 19.9322 12.0375 17.1986 13.0155 14.7585C14.3481 11.1118 17.1424 8.51594 20.3837 7.0365C22.8528 5.94563 25.4148 5.75261 28.0469 6.04289C31.78 6.51306 35.0268 8.52949 37.7336 11.3765C40.1511 13.8359 41.8269 16.9835 42.8458 20.4139C45.1595 28.5499 43.0989 37.687 37.7745 43.6204C39.7395 41.4661 41.108 38.7716 42.2254 35.8729C43.6151 32.1732 43.9431 28.4772 43.5048 24.3985C43.0128 19.604 41.187 15.6087 38.4672 12.2282C36.4708 9.81551 34.0575 8.00857 31.1143 6.9147C27.1841 5.53366 23.3586 5.58669 19.6609 7.4911C16.5643 9.16439 14.2 11.6907 12.9244 15.2831C11.4512 19.3884 11.829 24.2887 14.5501 27.6706C16.0159 29.3726 17.8798 30.7039 20.1655 30.6594C21.7141 30.5333 23.345 30.0015 23.8985 28.2847C24.0478 27.7086 23.766 27.2033 23.2485 27.0274C22.2133 26.6756 21.2657 26.572 20.3623 25.8792C18.6595 24.5067 18.08 22.3089 18.514 20.0456C19.3114 16.4595 22.2327 14.2912 25.5229 14.2988C28.3349 14.3113 30.8306 15.7126 32.6822 17.9314C34.8715 20.6025 36.0351 24.2267 35.7058 27.9241C35.3954 31.3864 34.2022 34.5731 32.0496 37.1214C29.6106 39.9344 26.5622 41.6723 23.0668 42.2952C19.9519 42.7826 17.0128 42.3398 14.1354 41.0754C9.30942 38.8853 5.74322 34.7591 3.64025 29.4899C2.22669 25.6602 1.67428 21.6873 2.03757 17.5197C2.38735 14.2396 3.3042 11.2 4.63335 8.32328C4.6655 8.36635 4.7006 8.37025 4.73863 8.33495L4.73739 8.33631Z" fill="url(#paint13_linear_57_5700)"/>
<path d="M4.64927 8.08906C2.33797 12.7535 1.26483 17.9092 1.96261 23.4983C2.64745 28.5512 4.49508 32.9624 7.73372 36.5188C11.2223 40.2808 15.6654 42.6077 20.6489 42.6816C26.3301 42.655 31.6064 39.5018 34.294 34.0495C35.6802 31.1212 36.2976 27.8101 35.7569 24.3734C35.2304 21.4703 34.0445 18.8512 32.0229 16.7912C29.6448 14.514 26.4911 13.3968 23.4549 14.2472C22.0422 14.6847 20.7665 15.4323 19.7219 16.6218C17.9764 18.6819 17.3195 21.8094 18.5525 24.4931C19.0095 25.492 19.6454 26.213 20.4435 26.8941C21.097 27.3814 22.0839 27.6672 22.1199 28.6194C22.124 29.2718 21.4671 29.5545 20.9713 29.7959C20.2649 30.014 19.5761 29.9983 18.8392 29.9167C16.5406 29.4263 14.7501 27.8069 13.596 25.4876C12.122 22.4808 12.033 19.3891 12.8534 16.2204C13.6473 13.4043 15.2394 11.2679 17.1779 9.46628C19.9633 6.98802 23.5423 5.95948 27.236 6.24747C30.0304 6.49508 32.5524 7.54367 34.9264 9.16842C37.5021 10.9341 39.4325 13.5173 40.9636 16.4711C43.57 21.3813 44.1726 26.8398 43.0147 32.4011C41.7657 38.4871 38.7786 43.6693 34.1428 46.7735C40.6118 41.856 44.3393 33.1392 43.2149 24.0075C42.6395 19.6173 40.853 15.8056 38.2779 12.6189C35.9439 9.75394 33.0612 7.83712 29.631 6.8671C27.1307 6.23581 24.788 6.33321 22.4101 6.90225C19.3269 7.68938 16.682 9.70907 14.7694 12.5804C12.8492 15.5693 12.1471 19.2846 12.9948 22.8738C13.6531 25.436 15.1318 27.6728 17.3875 28.7496C18.2122 29.0767 19.0938 29.3522 19.8749 28.8461C20.2655 28.593 20.0419 28.0348 19.7995 27.7117C18.6014 25.9802 17.469 24.0767 17.4819 21.7681C17.4811 17.5009 20.4806 14.276 24.1307 13.7293C26.864 13.3789 29.3555 14.1263 31.5494 16.0275C34.138 18.328 35.6603 21.3994 36.0781 25.0595C36.6006 30.1537 34.8828 34.7059 31.768 38.0381C29.6978 40.1807 27.2505 41.6889 24.492 42.3935C20.7114 43.2811 16.873 42.7993 13.2927 40.983C7.71551 38.1764 3.78457 32.5281 2.31385 25.9065C0.921955 19.6492 1.84214 12.9949 4.79742 7.5129C4.62626 7.67174 4.66567 7.85392 4.64803 8.08904L4.64927 8.08906Z" fill="url(#paint14_linear_57_5700)"/>
<path d="M4.64095 8.20654C0.969909 15.4465 0.718043 24.5455 4.67143 32.0335C7.27781 36.9424 11.2052 40.5158 16.2452 41.9606C19.9913 42.9656 23.615 42.7717 27.1328 41.1437C29.059 40.2296 30.6376 38.9808 32.0891 37.3044C35.8085 32.9725 37.0927 26.4177 34.6433 20.8152C33.2745 17.8201 31.2211 15.4603 28.2108 14.5369C26.1316 13.9523 24.1618 14.0318 22.2457 14.8283C19.3378 16.1076 17.4788 19.696 18.2771 23.222C18.8083 25.3551 20.5099 26.7277 22.3051 27.5771C22.7656 27.8059 22.9321 28.4171 22.6874 28.864C22.017 30.0343 20.7272 30.2483 19.5602 30.2389C17.924 30.1183 16.4459 29.3039 15.2124 28.0412C13.536 26.316 12.5925 24.0199 12.3642 21.3869C12.0876 18.6893 12.4822 16.2438 13.6037 13.9975C14.6605 11.9218 16.0638 10.1794 17.8618 8.83635C21.0025 6.57526 24.6779 5.67595 28.4504 6.32829C30.5384 6.79536 32.4464 7.53882 34.2722 8.68794C37.5584 10.8866 40.1423 13.957 41.7576 17.9277C43.5 22.3272 44.0095 26.8865 43.2292 31.6613C42.3654 36.8403 39.9765 41.1404 36.7388 44.6961C36.3965 45.0137 36.1112 45.2785 35.7207 45.5329C40.5587 41.1471 43.5439 34.5411 43.4948 27.3658C43.5205 22.7459 42.4098 18.4163 40.0311 14.7167C37.5077 10.8247 34.0068 7.9503 29.6378 6.75772C27.0893 6.06181 24.6413 6.14894 22.2063 6.76954C18.5221 7.78641 15.3461 10.5177 13.6318 14.3C12.6714 16.505 12.1804 18.8226 12.4658 21.4013C12.8782 24.4103 14.1123 27.0941 16.428 28.7717C17.9455 29.7683 20.1223 30.4821 21.5562 29.0395C21.9556 28.6689 21.6268 28.099 21.3273 27.8289C20.4809 27.0831 19.6245 26.4563 19.0063 25.4987C18.2028 24.1652 17.734 22.6329 17.8563 20.987C18.0491 18.4006 19.4788 16.3055 21.4303 15.0388C23.6582 13.6249 26.1061 13.5391 28.4747 14.51C31.4179 15.6039 33.6336 17.9224 34.8896 21.0234C36.5837 25.3583 36.3298 30.1901 34.282 34.1724C31.8654 38.8251 27.7649 41.8702 22.7778 42.5663C18.8118 43.0779 15.0087 42.1258 11.6185 39.9155C7.12182 36.8716 3.8661 32.1279 2.48715 26.4055C0.989975 20.1366 1.85311 13.5351 4.65487 7.97689L4.63723 8.21201L4.64095 8.20654Z" fill="url(#paint15_linear_57_5700)"/>
</g>
<path d="M0.951428 17.3162C0.317015 21.343 0.657458 25.4269 1.83797 29.3783C3.1837 33.9422 5.81633 37.6825 9.27616 40.7002C15.8013 46.1768 24.9581 46.4812 31.1311 40.5595C33.3872 38.3622 34.8598 35.7153 35.7149 32.4765C36.4958 29.2267 36.2287 25.9101 35.0384 22.7979C33.8962 19.9441 31.9204 17.8961 29.3317 16.6828C27.3866 15.8154 25.2089 15.7552 23.3591 16.9186C22.5495 17.4741 21.3269 18.3916 21.8778 19.6484C22.8919 20.0455 24.0392 19.8745 25.0696 20.1071C27.6418 20.7286 29.5193 23.0158 30.0596 25.8666C30.591 28.8003 29.7117 31.5317 27.909 33.7112C24.8259 37.3875 20.1798 37.8975 16.1662 35.8916C11.0805 33.3131 7.99735 27.3233 8.23799 21.2213C8.4102 17.2952 9.60402 13.6847 11.9605 10.492C15.1025 6.23652 19.2479 3.97346 24.1737 3.67096C26.7569 3.45341 29.1488 3.62838 31.6871 4.58171C34.3752 5.55585 36.5586 7.04545 38.766 9.04381C42.6203 12.6228 45.0883 17.2631 46.1346 22.5416C45.6505 21.3789 45.4699 20.1774 45.0601 19.0257C44.2884 16.9822 43.4174 15.1751 42.2478 13.3264C41.0632 11.6436 39.8522 10.2082 38.3365 8.81417C34.0614 4.92256 29.1146 3.20393 23.7103 3.77309C20.4345 4.14387 17.5948 5.41755 14.9671 7.56221C10.9355 10.934 8.39457 15.9487 8.41704 21.6678C8.46585 27.1382 10.9392 32.4531 15.2666 35.0908C17.9614 36.7382 21.0045 37.1747 23.8934 36.1609C25.5368 35.556 26.9244 34.4947 28.0561 32.9758C29.4534 31.0754 30.1426 28.7365 29.7172 26.2383C29.3814 24.3415 28.4285 22.6076 26.9532 21.5551C26.1784 21.024 25.3042 20.7306 24.4061 20.6847C23.4325 20.6291 22.5661 21.009 21.6329 21.2948C21.1707 21.3969 20.6254 21.5709 20.3796 21.0303C19.9206 19.6201 20.813 18.2352 21.7308 17.3576C23.8132 15.387 26.6181 15.2013 29.2232 16.2473C32.6119 17.7428 34.9987 20.9426 35.965 24.7792C37.4967 31.2191 34.9275 37.9949 30.0295 41.7466C25.0497 45.5702 18.9035 46.0327 13.2976 43.3793C8.54962 41.1852 4.88536 37.2136 2.64253 31.8476C0.703522 27.1992 -0.137367 22.1198 0.951428 17.3162Z" fill="url(#paint16_linear_57_5700)"/>
<path d="M1.12607 16.3336C0.0767676 22.2349 0.891606 28.3193 3.72772 33.7698C5.8743 37.8598 8.87947 40.8966 12.5971 42.8596C15.3169 44.2581 18.112 44.9115 21.2154 44.7688C24.6311 44.5031 27.6774 43.4272 30.3957 41.1264C32.7086 39.1046 34.3966 36.5726 35.3916 33.4375C36.2709 30.7061 36.2509 27.9288 35.7019 25.1609C34.9158 21.7696 32.9661 18.7165 30.0309 17.2031C28.7447 16.5142 27.4258 16.1571 25.9824 16.2852C24.9094 16.4673 23.8944 16.8264 22.9941 17.5367C22.6643 17.8255 22.473 18.2181 22.3573 18.6217C22.3234 18.9535 22.5125 19.3158 22.884 19.3698C24.2117 19.644 25.4738 19.8255 26.6857 20.5033C28.5981 21.7025 29.8975 23.7379 30.2486 26.2264C30.8437 30.7665 28.1802 34.7554 24.4816 36.326C20.5514 37.9477 16.3631 36.926 13.0594 33.8462C10.6629 31.4856 9.14151 28.6608 8.50409 25.2916C7.68733 20.7196 8.46256 16.0403 10.7369 12.1633C12.0031 10.0762 13.466 8.26846 15.4151 6.86731C18.1651 4.99224 21.0048 3.71857 24.3387 3.52476C26.9873 3.39984 29.3704 3.65914 31.9755 4.70513C35.5291 6.05558 38.4785 8.16062 40.9484 11.2885C43.6162 14.6971 45.4906 18.4967 46.2581 22.8088C45.4633 19.5003 44.2643 16.471 42.5287 13.5314C41.426 11.7767 40.1332 10.4132 38.6262 8.93623C35.0516 5.56465 30.9298 3.88085 26.5164 3.58354C22.4745 3.34028 18.5781 4.63018 15.1583 7.16443C12.0521 9.57714 9.99284 12.8114 8.90501 16.8574C8.08372 19.7658 8.08618 22.7076 8.69193 25.6524C9.33031 28.2654 10.4484 30.6118 12.1949 32.711C13.7348 34.6123 15.6548 35.7286 17.7735 36.3694C21.8549 37.7117 26.2878 36.3307 28.7108 32.4759C29.9682 30.4704 30.3602 28.09 29.9272 25.6747C29.5096 23.8497 28.5467 22.1988 27.1469 21.1573C25.7384 20.1989 24.179 19.9744 22.504 20.1549C22.0505 20.1741 21.5216 20.1822 21.4244 19.6638C21.2516 19.1343 21.4592 18.5758 21.8066 18.1211C23.8737 15.5601 27.1157 15.5211 29.77 16.8257C32.8526 18.3612 35.0908 21.5401 35.853 25.179C36.1395 26.8173 36.3418 28.5274 36.1749 30.1849C35.782 33.323 34.7377 36.1981 32.8193 38.7812C29.6117 42.9441 25.203 44.8324 20.4509 44.9069C15.7076 44.8984 11.4459 43.1095 7.75533 39.3867C1.80681 33.4098 -0.612488 24.5738 1.12607 16.3336Z" fill="url(#paint17_linear_57_5700)"/>
<path d="M0.484109 20.4448C0.395942 23.5428 0.83675 26.6313 1.73852 29.6191C3.2241 34.2867 5.83165 38.2759 9.45765 41.1498C12.1853 43.2216 15.1444 44.4875 18.3362 44.9448C21.8995 45.4561 25.4397 44.7039 28.7262 42.7377C31.6249 40.8848 33.7663 38.3336 35.1579 35.0037C36.1432 32.7078 36.544 30.2431 36.4321 27.6219C36.2393 24.3164 35.1146 21.2968 32.9486 18.8851C30.1814 15.7142 25.9602 14.2682 22.4093 16.6158C21.674 17.1823 21.013 17.76 20.5499 18.6183C20.351 19.0938 20.0779 19.5596 20.019 20.1388C19.9437 20.8839 20.1318 22.0038 20.9731 21.8727C21.1305 21.8106 21.361 21.7609 21.5184 21.6987C23.4337 20.6294 25.629 20.5236 27.3589 22.0325C29.434 23.8428 30.0398 26.7876 29.5408 29.4901C29.0921 31.6949 27.934 33.4627 26.2985 34.7409C23.0361 37.2144 18.8205 37.1978 15.3421 35.1022C12.2266 33.1423 9.99719 29.8804 9.02961 26.0438C7.89051 21.6776 8.59142 16.9872 10.5698 13.0687C12.523 9.39896 15.3571 6.69584 18.9813 5.11414C20.5492 4.49947 22.0189 4.12118 23.7027 3.85908C25.3778 3.67992 27.0278 3.74821 28.6602 3.98237C30.3594 4.31058 32.0335 4.88625 33.6901 5.62916C36.1957 6.91289 38.354 8.65133 40.3877 10.8764C43.0718 14.1191 44.955 17.8357 45.8799 22.087C45.8304 22.0796 45.8027 22.1036 45.7968 22.1589C44.5932 16.9425 42.1177 12.3852 38.1803 8.87799C34.6549 5.76633 30.615 4.00928 26.1852 3.87787C23.7027 3.8577 21.3993 4.28409 19.0381 5.28972C16.1984 6.5634 13.8275 8.40817 11.8928 11.1558C9.76796 14.2974 8.656 17.8361 8.63241 21.7829C8.66682 25.9068 10.0878 29.7242 12.797 32.7194C14.7652 34.8504 17.2053 36.0415 19.8114 36.3313C22.5005 36.5493 25.1414 35.7511 27.1003 33.5108C28.4562 32.0237 29.1771 30.1107 29.3778 28.1228C29.5055 26.1238 28.8069 24.09 27.3654 22.7071C26.2617 21.7086 24.9429 21.3515 23.5563 21.6566C22.55 21.9327 21.8627 22.7578 21.0367 23.4805C20.5494 23.8315 19.9637 23.6627 19.6348 23.1953C18.9189 22.0836 19.0619 20.6749 19.4847 19.4751C20.5944 16.6926 23.1544 15.2101 25.8686 15.1792C28.5085 15.1386 30.7345 16.2135 32.719 18.18C35.1811 20.6346 36.2983 23.7372 36.6146 27.3123C36.9384 30.8045 36.0833 34.0446 34.5113 36.9293C31.8556 41.5914 27.5682 44.5069 22.5355 45.1287C20.1752 45.3781 17.932 45.2239 15.5903 44.5527C12.3089 43.494 9.47301 41.7415 6.9617 39.0283C2.4242 34.003 -0.0559736 27.2587 0.484109 20.4448Z" fill="url(#paint18_linear_57_5700)"/>
<path d="M0.568073 19.6152C0.33128 22.691 0.772086 25.7809 1.51769 28.8294C2.56712 32.5942 4.3431 35.8753 6.98671 38.7765C9.43247 41.3971 12.1185 43.1274 15.3268 44.1764C18.311 45.1934 21.2482 45.1944 24.1788 44.5221C27.4885 43.821 30.304 42.0385 32.7097 39.1058C34.7768 36.5448 35.9029 33.5965 36.2391 30.2829C36.5741 26.9693 35.9454 23.5157 34.2011 20.6604C32.0623 17.2437 28.3698 15.0319 24.6647 15.9293C23.3524 16.2454 22.0063 16.892 21.1214 18.1953C20.6745 18.8878 20.2857 19.7558 20.4246 20.6171C20.5394 20.9697 20.8115 21.2615 21.1906 21.2312C22.1062 21.1112 22.8996 20.7203 23.8895 20.61C25.0281 20.5219 26.0421 20.919 27.0311 21.5649C28.7949 22.742 29.6901 25.0565 29.8346 27.3472C29.9223 29.461 29.2014 31.3754 28.0509 33.0589C26.918 34.5778 25.5392 35.5561 23.8958 36.1611C21.5434 37.0837 19.0029 36.888 16.6283 35.7909C12.6551 34.1279 9.94692 30.3778 8.89091 25.9385C8.05564 22.2885 8.28462 18.5394 9.61829 15.0312C11.0689 11.1208 13.549 8.19915 16.9173 6.16115C22.2929 2.8976 28.3158 2.92173 33.7643 5.63727C39.9296 8.70695 44.3416 14.9723 45.9454 22.1794C45.2556 20.0627 44.7887 17.9792 43.7123 15.9757C42.1821 13.2338 40.6194 10.8251 38.2633 8.80594C34.6636 5.6832 30.5493 3.91645 26.1196 3.78503C21.3107 3.68391 16.7697 5.38555 13.2899 9.25661C10.232 12.684 8.4427 16.9663 8.47615 21.8463C8.4952 25.3798 9.59482 28.6469 11.4953 31.4414C13.281 33.8834 15.5967 35.5597 18.3099 36.2864C21.105 36.9398 23.9362 36.5053 26.3071 34.6605C27.8684 33.3712 29.0352 31.5219 29.4752 29.4C29.8082 27.5988 29.6879 25.8168 28.8823 24.1037C28.5609 23.5534 28.232 23.086 27.8288 22.6075C27.2857 22.0253 26.6507 21.598 25.9252 21.3254C24.3254 20.7594 22.7901 21.0437 21.4114 22.022C21.0072 22.2997 20.3876 22.464 20.0674 21.9137C19.615 21.1767 19.7821 20.2755 20.0135 19.4682C20.6438 17.7099 21.9658 16.5547 23.5337 15.9386C26.7449 14.719 30.1838 15.7155 32.6951 18.43C34.4491 20.4462 35.7322 22.6489 36.2056 25.4056C36.385 26.6084 36.49 27.8001 36.5207 28.9807C36.4065 33.0823 34.8248 36.8061 32.2617 39.801C29.7161 42.63 26.6939 44.2133 23.2356 44.8937C19.3238 45.5933 15.4896 44.7902 11.9294 42.7665C4.37189 38.5683 -0.222922 28.916 0.568073 19.6152Z" fill="url(#paint19_linear_57_5700)"/>
<path d="M0.373218 23.0337C0.78166 30.1534 3.94697 36.8275 9.22734 41.1992C11.32 42.845 13.4629 43.9917 15.9533 44.6865C19.6969 45.6444 23.5497 45.5241 27.1827 43.8608C33.1932 41.0246 37.3205 34.4732 36.6574 26.8973C36.1956 21.7876 33.4153 17.2702 28.9875 15.6264C26.5223 14.6842 23.8736 14.8091 21.6764 16.4258C19.6441 17.8988 18.0383 21.1152 19.6679 23.618C20.1291 24.272 20.813 24.2031 21.3266 23.6033C22.2027 22.3843 23.3435 21.5386 24.7618 21.658C27.228 21.8441 29.088 24.2957 29.2654 27.0109C29.3607 29.0418 28.9458 30.9162 27.8041 32.5167C26.1425 34.7999 23.9048 36.0752 21.2474 36.2831C18.0709 36.4161 15.1861 35.1613 12.8059 32.6334C10.088 29.7224 8.7413 25.9147 8.70813 21.7909C8.72294 17.927 9.76813 14.2943 11.9685 11.1638C13.9032 8.41615 16.2741 6.57138 19.1138 5.29632C24.7113 2.82223 30.8644 3.78784 36.0147 7.218C39.2613 9.36462 41.7563 12.2451 43.6219 16.1262C44.551 18.1089 45.2571 20.0598 45.7983 22.1544L45.7481 22.652C44.2829 15.5499 39.9376 9.37867 33.9373 6.16389C31.5715 4.98388 29.1555 4.30153 26.615 4.10438C23.3893 3.97751 20.3944 4.55716 17.429 6.316C14.0682 8.27104 11.6712 11.1208 10.1626 14.8557C8.63011 18.838 8.40772 23.2617 9.86917 27.422C11.5197 31.9459 15.1598 35.4101 19.4738 35.9451C23.119 36.3846 26.9345 34.4104 28.4582 30.511C29.3037 28.11 28.9952 25.2081 27.0762 23.3356C26.3932 22.6497 25.5933 22.3661 24.694 22.3215C24.1663 22.3297 23.621 22.5037 23.1337 22.8546C22.3984 23.4212 22.2325 24.3225 21.7769 25.0979C21.5944 25.4075 21.2808 25.5318 20.976 25.5718C19.8462 25.5783 19.0473 24.5385 18.703 23.4808C17.7345 20.4004 19.4071 17.278 21.8927 15.7858C25.4928 13.6968 29.4594 14.6865 32.5565 17.5686C35.1672 20.044 36.5728 23.2725 36.8628 27.0964C37.097 29.9871 36.6056 32.6067 35.5952 35.1514C34.4767 38.0169 32.6752 40.195 30.4517 42.0619C25.9491 45.6161 20.3798 46.3289 15.0615 44.5577C6.54478 41.6545 0.520736 32.7205 0.373218 23.0337Z" fill="url(#paint20_linear_57_5700)"/>
<path d="M0.36508 22.3603C0.595144 27.521 2.20426 32.4582 5.09275 36.6549C7.71785 40.4782 11.2203 43.0811 15.3747 44.4345C19.8277 45.8295 24.2988 45.5476 28.5436 43.0468C32.7141 40.5349 35.5425 36.4023 36.4247 31.4023C37.3244 26.2364 35.7087 20.6246 31.8205 17.3773C29.2503 15.2434 26.0748 14.6202 23.0953 15.7888C20.8903 16.7336 19.08 18.9947 19.2487 21.7928C19.2969 22.8089 20.1526 24.0244 21.0529 23.3127C22.0362 22.5292 22.8873 21.559 24.1745 21.4917C25.3873 21.4133 26.4757 21.8215 27.4396 22.7162C29.4984 24.6924 29.8737 27.6883 29.002 30.3368C27.3942 35.0656 22.6543 37.2427 18.3993 36.1271C15.7603 35.4114 13.4371 33.8181 11.6502 31.3761C10.4568 29.7762 9.73433 27.9913 9.17561 26.0626C8.18293 22.4748 8.56054 18.7465 9.82113 15.2286C10.8817 12.1862 12.644 9.66522 15.0224 7.73749C18.3023 5.09812 22.0501 3.78605 26.1083 3.8648C30.538 3.99622 34.5855 5.67031 38.1776 8.87463C42.0407 12.3707 44.6561 17.0332 45.7854 22.2384C44.0898 15.1874 39.8264 8.9429 33.6523 5.95616C31.2865 4.77615 28.8793 4.01087 26.2481 3.96853C23.8387 3.95942 21.471 4.29182 19.1841 5.30853C16.3444 6.58221 13.9735 8.42697 12.0388 11.1746C9.9215 14.2333 8.73646 17.7609 8.71287 21.7077C8.73946 25.1583 9.766 28.4157 11.6665 31.2102C13.3779 33.6411 15.7023 35.2358 18.3413 35.9501C20.6174 36.5287 22.829 36.2585 24.9835 35.0537C27.0725 33.7563 28.5441 31.8669 29.0356 29.2474C29.3937 27.1973 29.0011 25.1236 27.8077 23.5237C27.0088 22.4838 25.8724 21.8171 24.6671 21.8125C24.0651 21.8096 23.5198 21.9836 22.9669 22.2405C22.2404 22.7242 21.7848 23.4995 21.1905 24.1712C20.6039 24.76 19.8203 24.3104 19.4346 23.6674C18.1515 21.4662 19.0963 18.8274 20.6915 17.2077C23.212 14.6275 26.8506 14.3937 29.8589 15.9182C32.0761 17.0774 33.8552 18.8448 35.1132 21.2949C36.5515 24.1915 36.9923 27.2801 36.6812 30.3462C36.0765 36.3112 32.4889 41.2592 27.4935 43.7376C24.645 45.0942 21.7407 45.5177 18.68 45.2471C16.2226 44.9781 13.8972 44.1409 11.6964 42.8158C4.93247 38.9856 0.490664 30.7835 0.36508 22.3603Z" fill="url(#paint21_linear_57_5700)"/>
<path d="M0.39389 25.0535C1.02157 29.2618 2.44258 33.0806 4.72244 36.601C6.87876 39.8519 9.66319 42.1007 12.96 43.751C15.2603 44.837 17.6095 45.4267 20.1588 45.5409C23.2446 45.564 26.0996 44.8807 28.9076 43.1826C30.1958 42.3591 31.261 41.5037 32.3525 40.3995C35.228 37.2816 36.9267 33.1556 37.0004 28.7111C37.0218 25.5204 36.2031 22.4608 34.5156 19.7811C33.273 17.9213 31.7572 16.5273 29.894 15.588C28.245 14.7635 26.5383 14.5183 24.7801 14.7706C21.7435 15.0074 19.0252 17.3069 18.3767 20.7434C18.0599 22.3787 18.412 24.1111 19.6481 25.2962C20.4053 25.9932 21.7417 26.1845 22.0901 24.9749C22.4134 24.0129 22.8691 23.2375 23.6699 22.7636C24.3877 22.3629 25.1308 22.4696 25.9307 22.7519C28.3872 23.7771 29.1983 26.9196 28.6326 29.5281C28.0844 31.9707 26.5385 33.8503 24.4658 34.9818C21.3693 36.5554 17.9471 36.1478 15.1288 34.2295C12.7313 32.625 10.9443 30.183 9.88517 27.2574C8.41495 23.1801 8.71166 18.7675 10.2441 14.7852C11.8183 11.1444 14.2153 8.29456 17.5761 6.33952C21.3336 4.18969 25.2278 3.65459 29.2031 4.5628C33.5576 5.43933 37.4555 7.84883 40.534 11.6529C43.2093 14.9786 45.0094 18.7671 45.7782 23.0806C45.8274 23.3391 45.8111 23.505 45.7848 23.7538C44.8696 18.6634 42.7819 13.9928 39.0926 10.2686C35.1311 6.2541 30.3743 4.14291 25.1613 4.31815C19.7984 4.47396 15.0751 7.24143 11.8741 12.0775C9.5505 15.6946 8.65928 20.0213 9.34496 24.4067C9.76917 26.9049 10.7475 29.1475 12.2698 31.2148C13.5955 33.0013 15.2762 34.2516 17.23 35.0361C20.4864 36.3436 24.019 35.6743 26.3996 32.9904C27.5893 31.6484 28.3519 30.0769 28.3877 28.2327C28.3984 26.6373 27.9645 24.9783 26.7121 23.9576C26.0204 23.3547 25.2042 23.2369 24.3616 23.3679C23.3554 23.6441 23.303 24.8965 22.9142 25.766C22.3265 27.1109 20.6022 27.0315 19.564 26.1257C18.5914 25.3138 18.0417 24.0584 17.8699 22.7727C17.6752 20.9796 18.1318 19.448 19.033 17.9802C20.9929 14.9837 24.4183 13.8775 27.5937 14.502C28.9957 14.7873 30.3562 15.4872 31.6249 16.342C34.4269 18.4249 36.2684 21.8 36.9463 25.5107C37.4122 28.3518 37.2092 31.0959 36.3299 33.8273C34.8128 38.3999 31.9853 41.7776 28.0049 43.8956C23.4817 46.1862 18.7296 46.2606 13.9477 44.3983C9.52867 42.6715 6.24257 39.4259 3.66011 35.1892C2.05565 32.4376 1.0708 29.5217 0.491375 26.3295C0.385391 25.894 0.426797 25.4793 0.393888 25.0548L0.39389 25.0535Z" fill="url(#paint22_linear_57_5700)"/>
<path d="M0.369947 24.5462C0.932092 28.6619 2.18815 32.6244 4.54109 36.1559C5.66018 37.7461 6.7225 39.1593 8.17148 40.4593C9.55491 41.6666 10.9559 42.7081 12.5394 43.4399C16.2658 45.3199 20.265 45.9779 24.2761 45.0405C27.8251 44.2053 30.963 42.2184 33.3938 39.0368C35.924 35.6175 37.1429 31.7582 36.8451 27.261C36.5464 23.52 35.2893 20.3137 32.6874 17.7539C30.5618 15.6837 28.1229 14.4926 25.3093 14.7627C23.7828 14.964 22.3875 15.352 21.1573 16.3525C19.761 17.4967 18.6948 19.1083 18.4929 21.0975C18.3335 22.6721 18.7424 24.58 20.2591 25.2178C20.6131 25.4363 21.0502 25.583 21.4632 25.2223C21.8849 24.7787 22.1088 24.0544 22.3895 23.507C23.1913 22.2769 24.5779 21.9718 25.8805 22.4948C27.1087 23.0067 27.9819 24.0577 28.5241 25.3961C29.2957 27.4396 28.9956 29.6666 28.0517 31.5478C26.3716 34.7531 22.896 36.3556 19.5468 35.9591C14.6395 35.3395 10.5632 30.971 9.30154 25.5791C8.53181 22.0232 8.82756 18.3667 10.1525 14.9428C11.3541 12.0056 13.0408 9.47348 15.486 7.6398C17.4352 6.23865 19.4248 5.17897 21.7446 4.58669C24.9963 3.70853 28.2056 4.00131 31.487 5.05996C35.9224 6.62082 39.4565 9.64954 42.1964 13.8254C43.9407 16.6807 45.214 19.7225 45.7859 22.9977C44.1831 15.0343 39.17 8.01123 31.8323 5.36143C27.8416 3.86429 23.7909 3.70258 19.8707 5.24134C16.3371 6.66683 13.3795 9.10033 11.3694 12.5945C10.3437 14.5489 9.53094 16.6168 9.15649 18.8327C8.80494 21.556 8.89927 24.343 9.90168 27.093C11.3051 31.0763 14.0723 34.2472 17.7908 35.4539C19.9839 36.1044 22.1704 36.083 24.3174 34.9612C26.0677 34.0355 27.4061 32.7143 28.2101 30.7294C29.0467 28.4113 28.9612 25.5414 27.1165 23.68C26.1526 22.7852 24.9824 22.4489 23.81 22.8688C22.9436 23.2487 22.4792 24.107 22.297 25.1728C22.1474 25.9082 21.2885 26.2052 20.6285 26.0266C19.0287 25.4606 18.1576 23.6549 18.1859 21.8937C18.2053 20.2154 18.7362 18.6949 19.7698 17.4137C21.3988 15.4623 23.5119 14.6722 25.7802 14.5776C30.3006 14.5542 34.3211 17.9881 36.0296 22.689C37.138 25.8745 37.3963 29.2726 36.5324 32.5957C35.3944 37.1394 32.8554 40.6417 29.1471 43.0514C26.3391 44.7495 23.5408 45.6098 20.3819 45.5756C16.1751 45.4761 12.1844 43.979 8.7158 41.0443C4.0124 36.9203 0.994753 31.0231 0.369947 24.5462Z" fill="url(#paint23_linear_57_5700)"/>
<path d="M0.464998 26.5772C1.3244 30.7345 2.89279 34.5741 5.495 37.89C7.89936 40.9239 10.7744 43.0179 14.1631 44.5134C16.5452 45.5275 18.9296 45.7855 21.4952 45.7338C25.431 45.5416 28.8979 44.022 31.8981 41.1752C34.9965 38.0892 36.9924 34.0048 37.1656 29.3225C37.3378 25.3965 36.3047 21.4658 33.9003 18.4306C31.2251 15.1049 27.2431 13.5249 23.4461 14.577C21.5886 15.0672 19.9618 16.2624 18.878 18.0399C17.8774 19.7455 17.4437 21.7844 17.9937 23.7961C18.5436 25.8077 20.3215 27.5764 22.2042 26.8375C22.6008 26.6427 23.005 26.3635 23.2038 25.8881C23.5184 25.0089 23.562 23.838 24.4951 23.5522C26.0391 23.185 27.4226 24.3923 27.9396 25.9795C28.3911 27.4727 28.388 28.9864 27.8658 30.424C27.0367 32.6591 25.3761 34.1848 23.4116 34.9956C20.9018 35.9805 18.0728 35.6588 15.732 34.23C13.3913 32.8011 11.4974 30.6798 10.3564 27.8275C9.09936 24.6212 8.84105 21.2217 9.55636 17.8778C10.5457 13.3133 13.0268 9.63409 16.6695 7.13171C20.0642 4.8449 23.9179 3.9697 27.7861 4.43963C32.0258 4.9636 35.8832 7.03025 39.2261 10.4529C42.8411 14.1659 44.9288 18.8365 45.8364 24.0099C45.9349 24.5284 45.8922 24.9431 45.9164 25.4505C45.4843 22.279 44.7224 19.395 43.2174 16.4056C40.5199 11.0602 36.6164 7.22126 31.3723 5.45967C28.2395 4.42181 25.1713 4.23278 22.0102 4.95612C18.4612 5.79132 15.3977 7.78932 12.8925 10.9598C8.46894 16.7134 7.98493 25.2167 12.5127 31.0784C15.8471 35.3388 21.94 36.8863 25.8819 32.9131C27.6507 31.0654 28.5626 28.0022 27.0742 25.6032C26.4819 24.7611 25.27 24.0833 24.6494 25.0024C24.2113 25.6119 23.9962 26.2533 23.5569 26.8628C23.2182 27.2346 22.673 27.4086 22.2032 27.5937C21.1139 27.9417 20.0255 27.5335 19.1272 26.7328C17.4716 25.2336 17.1204 22.7465 17.4873 20.6135C17.9198 18.5746 18.9947 16.88 20.5484 15.6737C22.349 14.2518 24.5769 13.8143 26.7383 14.0403C31.0611 14.4925 34.7012 17.9567 36.426 22.4916C38.4876 28.1673 37.412 34.316 33.9225 39.0276C30.35 43.8096 25.2147 46.1829 19.7445 45.9018C15.4054 45.6156 11.3579 43.9415 7.8489 40.664C4.06768 37.096 1.58463 32.6202 0.537115 27.3431C0.487891 27.0846 0.438669 26.8247 0.463761 26.5758L0.464998 26.5772Z" fill="url(#paint24_linear_57_5700)"/>
<path d="M0.498848 26.2456C1.20962 30.3821 2.8611 34.1497 5.30591 37.5265C8.15395 41.3817 11.9612 43.9446 16.2818 45.1529C19.4322 46.0249 22.6162 45.8103 25.728 44.827C27.2052 44.3672 28.4858 43.6252 29.8571 42.7299C32.2935 40.9777 34.1781 38.7264 35.4365 35.966C36.9592 32.8229 37.551 29.2094 36.9387 25.5913C36.1624 21.3608 33.9076 17.5915 30.4217 15.5789C26.7129 13.533 21.704 13.9074 19.116 17.9059C17.6849 20.1381 17.2831 23.3591 19.0952 25.5522C19.5072 25.9477 19.9848 26.4359 20.5705 26.6048C21.4522 26.8152 22.3766 26.6123 22.9153 25.765C23.1054 25.3725 22.9994 24.937 23.1151 24.5333C23.4635 23.3224 24.6272 22.9855 25.65 23.2996C28.2714 24.1797 28.9176 27.4674 28.1214 30.127C27.5491 32.0622 26.3582 33.4041 24.822 34.4446C22.4849 35.959 19.8526 35.9166 17.3055 35.0462C13.0263 33.4232 10.129 29.3095 9.33736 24.4886C8.65168 20.1033 9.53412 15.8595 11.7834 12.2314C14.8358 7.37447 19.5766 4.43975 25.0126 4.295C30.2269 4.1184 35.083 5.99184 39.027 10.1723C42.7 14.0609 45.2323 18.7952 45.8088 24.2574C44.9767 19.0951 42.9634 14.4356 39.4302 10.6493C37.4532 8.60127 35.353 7.03843 32.8298 5.91918C29.7296 4.54952 26.5378 4.09226 23.2544 4.54462C19.5001 5.18207 16.2387 6.89937 13.5194 9.95643C11.1312 12.7233 9.6652 16.0434 9.2876 19.7717C9.09345 22.4343 9.36149 24.9932 10.3059 27.5663C11.6372 30.7837 13.7857 33.3612 16.8104 34.7198C19.9106 36.0895 23.4912 35.6787 26.0029 33.1814C27.763 31.4166 28.7078 28.7792 27.912 26.227C27.5678 25.1693 26.9011 24.3161 25.9689 23.8472C25.1035 23.4709 23.9474 23.7248 23.7727 24.7091C23.5237 25.6822 23.1349 26.5503 22.3415 26.9412C21.6238 27.3419 20.8894 27.1537 20.2381 26.8922C18.8701 26.2751 17.9651 24.8012 17.7529 23.1739C17.4434 21.0283 17.9577 18.9161 19.3299 17.2645C21.0496 15.1583 23.4107 14.1526 25.8932 14.1714C26.7925 14.216 27.6831 14.3448 28.6316 14.6479C30.5942 15.3494 32.2837 16.5168 33.7655 18.2426C36.3173 21.2986 37.3592 25.1463 37.2537 29.165C36.9956 35.4315 33.5795 40.909 28.394 43.78C23.8532 46.2406 19.0848 46.481 14.3104 44.5343C10.8311 43.1949 7.9561 41.101 5.56052 37.9828C2.95955 34.6682 1.32438 30.7346 0.473757 26.4944L0.498848 26.2456Z" fill="url(#paint25_linear_57_5700)"/>
<path d="M0.522083 27.5105C1.25891 30.6419 2.31808 33.5675 4.15425 36.2694C6.37611 39.6143 9.12667 42.1948 12.4902 43.9378C17.7801 46.7141 23.6544 46.7161 29.0136 43.6184C34.2242 40.5 37.4261 34.9077 37.4789 28.4434C37.4589 25.6675 36.8861 23.1471 35.5613 20.6029C34.1055 17.8721 32.121 15.907 29.5322 14.6938C26.8616 13.5538 24.0818 13.4906 21.4475 14.9621C19.6884 15.9707 18.4068 17.4674 17.6696 19.5477C17.1224 21.2341 17.0866 23.0783 17.7435 24.7692C18.3348 26.3675 19.5041 27.4601 20.9728 27.838C21.9377 27.9765 22.8708 27.6893 23.6137 27.0398C24.1841 26.617 24.3337 25.8829 24.7717 25.2734C25.2841 24.675 26.026 24.7817 26.5048 25.2699C26.9836 25.758 27.295 26.3913 27.5245 27.0978C28.4745 31.1003 25.1281 34.4032 21.8272 35.0214C19.6811 35.3857 17.6204 34.9219 15.6992 33.8056C13.424 32.4708 11.8273 30.3924 10.66 27.7875C9.62494 25.3693 9.34812 22.8919 9.46042 20.3026C9.74835 15.9729 11.5781 12.0335 14.5859 9.10239C17.4199 6.39927 20.7306 4.94051 24.6085 4.57268C27.9498 4.29591 31.0259 5.1582 34.0342 6.68126C37.1748 8.39239 39.7768 10.9521 41.9331 14.203C44.2205 17.6405 45.4098 21.5103 45.8813 25.7808C45.8967 26.3712 45.9045 27.0444 45.9198 27.6361C45.6898 22.4754 44.0806 17.5381 41.1922 13.3415C38.5671 9.51816 35.0658 6.91526 30.9102 5.56185C26.3917 4.07284 21.9861 4.44879 17.7413 6.9496C14.694 8.7817 12.4708 11.4048 11.0048 14.725C9.04182 19.2338 9.09941 24.6212 11.5825 29.097C12.8568 31.3812 14.5791 32.973 16.7296 34.0382C19.1772 35.1463 21.7441 35.0933 24.0636 33.7461C25.9133 32.5827 27.2363 30.6713 27.035 28.2049C26.9049 27.2621 26.131 25.9734 25.2308 26.685C23.9831 27.8514 22.5212 28.9016 20.7652 28.3978C18.8607 27.8718 17.5349 26.0853 17.0693 24.0004C16.5532 21.657 17.0851 19.3803 18.335 17.4577C20.8991 13.7067 25.3724 12.6686 29.3456 14.3302C34.547 16.5065 37.664 22.1645 37.6627 28.1311C37.6488 31.2388 36.9018 34.1583 35.5779 36.8259C33.699 40.5068 30.7994 43.1159 27.2494 44.7086C24.178 46.0334 20.911 46.3212 17.6449 45.8515C14.1646 45.2683 10.8842 43.4521 8.03419 41.1107C4.39789 37.5648 1.33788 32.8386 0.522083 27.5105Z" fill="url(#paint26_linear_57_5700)"/>
<path d="M0.538336 27.3446C2.01102 34.3652 6.27445 40.6083 12.2748 43.8217C15.3486 45.4402 18.5984 46.0744 22.0884 45.8184C24.5229 45.5787 26.6273 44.873 28.8649 43.5977C33.4233 40.974 36.4505 36.3645 37.2355 30.8461C37.8621 26.1446 36.6901 21.3541 33.5865 17.7988C30.4161 14.1495 25.807 12.8153 21.6704 14.9954C19.9113 16.004 18.5554 17.4897 17.8269 19.4871C16.9815 21.8867 17.29 24.7899 19.1347 26.6513C20.304 27.7438 21.8545 28.0499 23.1515 27.1434C23.7294 26.6376 24.1019 25.9355 24.3258 25.2111C24.624 24.4979 25.3255 24.2617 25.9767 24.5232C27.6988 25.3588 28.0663 27.6814 27.7257 29.5656C26.8859 33.396 23.2946 35.4022 19.9203 35.2531C17.6027 35.0878 15.5909 34.1277 13.7299 32.4309C10.0898 28.9667 8.80305 23.8222 9.52905 18.8843C10.2049 14.4428 12.546 10.6598 15.8335 7.93749C18.2875 6.02087 21.0278 4.98495 24.0807 4.58228C27.4308 4.22258 30.5232 4.91897 33.6058 6.45312C40.6365 9.8991 45.3339 17.8027 45.9142 26.2068C45.4746 23.1182 44.9432 20.1831 43.5199 17.1219C41.7854 13.4275 39.5133 10.5789 36.506 8.29824C33.0047 5.69395 29.1376 4.46644 24.9044 4.61571C20.4408 4.81606 16.4779 6.76814 13.3949 10.4444C12.0227 12.096 11.0876 13.8956 10.3491 15.9745C9.48737 18.5401 9.30076 21.1196 9.6268 23.8556C10.3115 28.9971 13.4142 33.3086 17.9402 34.7147C20.7933 35.5437 23.7882 34.9654 25.9132 32.5801C27.4504 30.7834 28.1735 28.1128 26.8161 25.9018C26.4947 25.3515 25.9178 25.1011 25.3737 25.2751C24.598 25.5002 24.3314 26.6392 23.6704 27.2154C22.2665 28.4426 20.4843 28.1876 19.1008 26.9803C17.9228 25.9707 17.3894 24.5494 17.2515 22.9319C16.9276 19.4398 18.5827 16.4833 21.3732 14.9497C24.0074 13.4783 26.7217 13.4474 29.4666 14.5985C31.4784 15.5599 33.2159 16.9858 34.6071 18.8664C37.4376 22.8874 38.1399 27.8631 36.968 32.7372C35.5647 38.4199 31.8282 42.5895 27.024 44.674C22.3016 46.6894 17.2118 46.3795 12.5557 44.0292C6.4723 40.8876 1.83855 34.5905 0.538338 27.3433L0.538336 27.3446Z" fill="url(#paint27_linear_57_5700)"/>
<path d="M0.479168 27.9238C1.41288 32.0922 3.29484 35.8088 5.9789 39.0515C7.2554 40.5795 8.71314 41.7979 10.2628 42.8602C13.2952 44.8934 16.6422 46.046 20.1739 46.1315C21.8314 46.1169 23.3503 45.9985 24.9762 45.5594C26.5277 45.1093 27.9394 44.5554 29.3849 43.6711C33.8941 40.7874 36.9376 36.0135 37.5915 30.307C37.944 26.8275 37.3885 23.3851 35.678 20.198C33.902 16.9169 31.1919 14.6792 27.8929 13.785C25.6168 13.2064 23.3321 13.4669 21.0932 14.7422C17.7324 16.6972 15.7945 20.9586 17.2647 25.0359C17.6745 26.1876 18.3248 27.2053 19.3138 27.8512C19.9563 28.1957 20.6 28.5401 21.3419 28.6468C22.3068 28.7854 23.1569 28.5714 24.0408 28.0256C24.7674 27.542 25.5453 26.5608 26.3857 27.1859C27.1758 28.3073 26.8767 29.7781 26.3796 30.9669C24.8644 34.0271 21.5876 35.1541 18.6351 34.5628C14.5779 33.7278 11.342 29.9859 10.2104 25.5368C8.8581 20.2997 10.0714 15.0095 13.3532 10.8591C16.8919 6.40742 21.671 4.57173 26.6953 4.78907C29.9121 4.99888 32.9707 6.02566 35.7889 7.94266C42.1916 12.3921 46.0389 20.5083 45.8672 28.89L45.7166 30.3816C46.0501 23.3686 44.0497 16.3576 39.298 11.2202C36.2348 8.00641 32.6822 5.89976 28.683 5.24179C25.1284 4.64754 21.6296 4.98646 18.1945 6.93041C13.6361 9.55415 10.5345 14.1525 9.97253 19.7028C9.85461 20.8626 9.88656 22.0446 9.99158 23.2363C10.6183 28.2009 13.4817 32.6464 17.8691 33.9487C20.4993 34.7459 23.4123 34.2395 25.1658 31.8015C25.6945 31.0371 26.4483 29.5485 25.4681 28.8197C25.1796 28.6938 24.7993 28.724 24.4857 28.847C22.7605 29.5238 20.88 29.5066 19.2561 28.4333C17.7808 27.3807 16.8354 25.5639 16.5752 23.6782C16.2482 21.6984 16.5988 19.7313 17.5251 18.0146C19.1801 15.0581 21.9794 13.443 25.1646 13.227C27.8876 13.1132 30.2785 14.0444 32.5023 15.8768C34.9239 17.99 36.6027 20.7527 37.3975 24.0597C38.2328 27.7096 38.0038 31.4588 36.6689 34.9669C35.5253 38.0812 33.6244 40.4971 31.2359 42.5091C28.6094 44.6538 25.7773 45.8445 22.5015 46.2153C19.0027 46.5542 15.7454 46.0029 12.5229 44.3637C6.43822 41.2193 1.94432 35.0273 0.339316 27.8201C0.323001 27.986 0.413629 27.8312 0.479168 27.9238Z" fill="url(#paint28_linear_57_5700)"/>
<path d="M0.488356 27.8408C1.14333 31.0441 2.43298 33.92 4.1936 36.6094C6.41546 39.9543 9.24033 42.5445 12.6858 44.2157C17.3519 46.4831 22.4417 46.7944 27.2459 44.7099C30.7958 43.1185 33.6954 40.508 35.5743 36.8272C37.2633 33.539 37.9381 29.8536 37.4983 26.0089C37.181 23.19 36.1372 20.8547 34.6312 18.6215C32.3262 15.3485 28.824 13.5018 25.0456 13.6319C21.184 13.8338 17.8134 16.628 17.0153 20.8C16.5327 23.3366 17.3601 26.3132 19.4779 27.7102C20.2527 28.2413 21.1269 28.5347 22.1169 28.4244C23.5602 28.2949 24.2802 27.1381 25.4865 26.3864C26.2043 25.9858 26.7147 26.8984 26.953 27.5219C27.7149 30.4045 25.7146 33.0596 23.419 34.1592C20.4219 35.4937 17.1897 34.6935 14.6031 32.7255C12.5016 31.1626 11.1618 28.7858 10.366 26.2335C9.08487 22.5199 9.49634 18.4598 10.9131 14.8811C12.0153 12.1816 13.7337 10.0753 15.7998 8.26912C18.7662 5.75269 22.3315 4.7516 26.0193 4.77633C29.2613 4.73731 32.3953 5.7752 35.2299 7.5263C41.8806 11.7588 46.0076 20.0838 45.8284 28.5471C45.9166 25.4491 45.2453 22.4116 44.2679 19.4128C42.9956 15.6162 40.9628 12.6349 38.1467 9.96037C34.8518 6.79763 31.0928 5.24944 27.0673 4.84027C24.1552 4.59046 21.3165 5.10794 18.5335 6.55719C14.8679 8.55223 12.1561 11.5249 10.6729 15.7672C9.47907 19.3777 9.33195 23.0549 10.6219 26.6871C12.0833 30.8473 15.3607 34.1759 19.3862 34.5851C21.4821 34.7171 23.6356 34.2699 25.2471 32.4843C26.2806 31.2032 27.1251 29.5597 26.467 27.8688C26.2199 27.3295 25.7097 27.1718 25.23 27.4398C24.2717 27.9745 23.5288 28.624 22.4558 28.8061C20.3929 29.0985 18.6291 27.9201 17.5526 25.9166C15.9253 22.6576 16.6895 18.8161 19.0539 16.298C21.0783 14.1518 23.7279 13.2707 26.4171 13.4886C29.6252 13.7814 32.684 15.5644 34.7155 18.5469C36.616 21.3415 37.7168 24.6086 37.7346 28.1421C37.7111 32.0889 36.5916 35.7105 34.4668 38.8521C32.532 41.5998 30.1523 43.5289 27.3126 44.8012C22.5072 46.8843 17.4174 46.5743 12.6782 44.2972C9.31465 42.5542 6.48224 40.0456 4.18606 36.691C2.42544 34.0002 1.21764 31.0538 0.406506 27.9113C0.456048 27.9187 0.483745 27.8947 0.489596 27.8394L0.488356 27.8408Z" fill="url(#paint29_linear_57_5700)"/>
<path d="M0.273949 27.7256C1.47763 32.9419 3.87005 37.5711 7.7999 41.1613C11.3908 44.367 15.422 46.2056 19.926 46.3481C24.7349 46.4506 29.3503 44.7586 32.9698 40.9913C37.0275 36.6144 38.8776 30.2392 37.4607 24.1533C36.6571 20.9277 35.0702 18.0103 32.5743 15.8874C30.416 14.149 27.9596 13.1238 25.2454 13.1547C22.1433 13.2974 19.1954 14.8918 17.5403 17.8483C16.7953 19.2539 16.3387 20.7855 16.3192 22.4638C16.3305 25.3227 17.7788 28.1365 20.3095 29.1727C21.2493 29.5601 22.1486 29.6047 23.1385 29.4944C23.9055 29.3523 24.7895 28.8065 25.3993 29.4827C25.8026 29.9612 25.5043 30.6744 25.2968 31.2328C24.9242 31.9364 24.4206 32.4519 23.8415 32.9576C21.8923 34.3588 19.6152 34.5364 17.3641 33.7089C14.4618 32.62 12.5024 30.406 11.1459 27.4375C9.98735 24.7496 9.81871 21.9515 10.1035 19.1356C10.5805 15.1695 12.5162 11.6643 15.3427 9.04412C17.4995 7.08454 19.9513 5.92271 22.6501 5.30151C25.5795 4.62923 28.5496 5.05602 31.4595 6.06201C36.3407 7.68662 40.1207 11.2559 42.7034 16.2488C45.5408 21.6993 46.5773 27.8156 45.1564 33.6642C46.7802 25.0715 44.1063 15.7779 37.6981 9.89897C34.5923 7.09987 30.9731 5.6554 27.1718 5.27814C23.7407 4.95352 20.4966 5.74871 17.4418 7.66378C15.2609 9.11599 13.6407 10.9845 12.2851 13.2278C10.5557 16.1732 9.89838 19.694 10.2878 23.2802C10.7439 26.9604 12.5199 30.2416 15.3294 32.2415C17.3729 33.6274 19.8052 34.1452 22.0845 33.2114C22.8779 32.8205 23.6775 32.3479 23.9277 31.3748C24.0522 30.8882 23.5496 30.6475 23.178 30.5948C21.2571 30.2348 19.2769 29.6991 17.8694 27.9844C15.2509 24.8343 15.424 20.1521 17.7062 16.9497C19.451 14.5946 21.6974 13.2364 24.4367 12.9567C27.7037 12.6688 30.6804 13.7689 33.2256 16.1517C36.7258 19.5122 38.2857 24.1909 38.0962 29.0376C37.9262 32.2075 37.0962 35.1975 35.5493 37.8333C33.3818 41.3882 30.3336 43.9765 26.6514 45.3826C20.9303 47.5857 14.6462 46.432 9.52981 42.6715C4.69312 39.1198 1.27004 33.5004 0.0268755 27.1864C0.00178414 27.4352 0.141636 27.5389 0.273949 27.7256Z" fill="url(#paint30_linear_57_5700)"/>
<path d="M0.339668 27.8202C2.1491 35.9813 7.54889 42.8911 14.9772 45.3861C19.8585 47.0121 24.8674 46.6378 29.3677 43.8371C32.6718 41.7051 35.1506 38.7834 36.6755 34.884C37.4959 32.7319 37.8628 30.5989 37.8744 28.2473C37.8846 22.1964 34.7839 16.3725 29.5912 14.1147C26.772 12.9539 23.8524 12.787 21.1262 14.4132C19.2765 15.5766 17.9118 17.1466 17.0259 19.2048C15.7249 22.3798 16.5931 26.4555 19.3283 28.4444C21.0177 29.6117 23.0807 29.3193 24.8878 28.5693C25.3588 28.3842 25.8526 28.7078 25.9511 29.2263C26.1884 30.6047 25.3941 31.7518 24.5506 32.6391C23.3029 33.8054 21.7426 34.3371 20.0851 34.3518C17.8243 34.3635 15.7394 33.3923 13.9603 31.6236C12.1068 29.8452 10.8893 27.7365 10.3165 25.2175C9.80038 22.8741 9.73896 20.5115 10.2053 18.1408C11.0702 14.0629 13.1545 10.5784 16.2607 8.16712C18.0449 6.90969 19.8696 5.99512 21.8833 5.44419C25.5885 4.54682 29.3255 4.83148 32.9196 6.52339C36.8677 8.43523 40.0302 11.4099 42.3998 15.5331C44.9584 20.0186 45.8811 25.0261 45.7408 30.1328C45.6907 30.6305 45.648 31.0438 45.5235 31.5304C46.3029 24.5811 44.3931 17.4153 39.955 12.155C37.1398 8.72564 33.6866 6.37986 29.7124 5.47444C25.5154 4.53576 21.2408 5.09976 17.3752 7.57027C15.1212 9.01142 13.4179 10.9532 12.0523 13.278C10.0335 16.8551 9.43197 21.3077 10.5219 25.4139C11.1866 27.7781 12.2555 29.8646 14.0421 31.5503C16.1841 33.4547 18.7148 34.491 21.4049 33.9513C23.1051 33.5233 25.1035 32.3807 25.2474 30.2159C25.3064 29.6366 24.7207 29.4678 24.3416 29.4981C23.2773 29.5973 22.2786 29.7905 21.2482 29.5579C19.8551 29.1897 18.5776 28.4179 17.6551 27.1084C16.2071 25.0508 15.9466 22.4089 16.5703 19.976C17.301 17.2224 19.0043 15.2821 21.2987 14.1824C24.0816 12.7318 27.0931 12.7438 29.8948 14.0719C33.7686 15.9726 36.5511 19.7338 37.5252 24.245C38.647 29.5332 37.5736 34.9272 34.4228 39.2656C31.8926 42.6849 28.581 44.8999 24.7928 45.8691C19.7011 47.0715 14.4561 46.0661 9.95708 42.8988C5.03855 39.4218 1.60793 33.8853 0.207355 27.6335L0.339668 27.8202Z" fill="url(#paint31_linear_57_5700)"/>
<defs>
<linearGradient id="paint0_linear_57_5700" x1="2.80898" y1="20.921" x2="44.7247" y2="20.9742" gradientUnits="userSpaceOnUse">
<stop stop-color="#0B41FF"/>
<stop offset="1" stop-color="#3852AE"/>
</linearGradient>
<linearGradient id="paint1_linear_57_5700" x1="2.92109" y1="20.5682" x2="44.7739" y2="20.6213" gradientUnits="userSpaceOnUse">
<stop stop-color="#9CAFF4"/>
<stop offset="1" stop-color="#0B41FF"/>
</linearGradient>
<linearGradient id="paint2_linear_57_5700" x1="2.63216" y1="22.0191" x2="44.6099" y2="22.0724" gradientUnits="userSpaceOnUse">
<stop stop-color="#0B41FF"/>
<stop offset="1" stop-color="#3852AE"/>
</linearGradient>
<linearGradient id="paint3_linear_57_5700" x1="2.76715" y1="21.6618" x2="44.6183" y2="21.7148" gradientUnits="userSpaceOnUse">
<stop stop-color="#9CAFF4"/>
<stop offset="1" stop-color="#0B41FF"/>
</linearGradient>
<linearGradient id="paint4_linear_57_5700" x1="2.43495" y1="22.9499" x2="44.4764" y2="23.0032" gradientUnits="userSpaceOnUse">
<stop stop-color="#0B41FF"/>
<stop offset="1" stop-color="#3852AE"/>
</linearGradient>
<linearGradient id="paint5_linear_57_5700" x1="2.59818" y1="22.7159" x2="44.4336" y2="22.7689" gradientUnits="userSpaceOnUse">
<stop stop-color="#9CAFF4"/>
<stop offset="1" stop-color="#0B41FF"/>
</linearGradient>
<linearGradient id="paint6_linear_57_5700" x1="2.26503" y1="23.2081" x2="44.2408" y2="23.2613" gradientUnits="userSpaceOnUse">
<stop stop-color="#0B41FF"/>
<stop offset="1" stop-color="#3852AE"/>
</linearGradient>
<linearGradient id="paint7_linear_57_5700" x1="2.42517" y1="23.0598" x2="44.3007" y2="23.1129" gradientUnits="userSpaceOnUse">
<stop stop-color="#9CAFF4"/>
<stop offset="1" stop-color="#0B41FF"/>
</linearGradient>
<linearGradient id="paint8_linear_57_5700" x1="2.12048" y1="23.3968" x2="44.0737" y2="23.45" gradientUnits="userSpaceOnUse">
<stop stop-color="#0B41FF"/>
<stop offset="1" stop-color="#3852AE"/>
</linearGradient>
<linearGradient id="paint9_linear_57_5700" x1="2.2391" y1="23.3437" x2="44.0885" y2="23.3968" gradientUnits="userSpaceOnUse">
<stop stop-color="#9CAFF4"/>
<stop offset="1" stop-color="#0B41FF"/>
</linearGradient>
<linearGradient id="paint10_linear_57_5700" x1="1.99912" y1="23.8003" x2="43.8593" y2="23.8534" gradientUnits="userSpaceOnUse">
<stop stop-color="#0B41FF"/>
<stop offset="1" stop-color="#3852AE"/>
</linearGradient>
<linearGradient id="paint11_linear_57_5700" x1="2.07357" y1="23.5706" x2="43.9529" y2="23.6238" gradientUnits="userSpaceOnUse">
<stop stop-color="#9CAFF4"/>
<stop offset="1" stop-color="#0B41FF"/>
</linearGradient>
<linearGradient id="paint12_linear_57_5700" x1="1.84045" y1="24.8537" x2="43.7466" y2="24.9068" gradientUnits="userSpaceOnUse">
<stop stop-color="#0B41FF"/>
<stop offset="1" stop-color="#3852AE"/>
</linearGradient>
<linearGradient id="paint13_linear_57_5700" x1="1.92367" y1="24.2091" x2="43.7891" y2="24.2622" gradientUnits="userSpaceOnUse">
<stop stop-color="#9CAFF4"/>
<stop offset="1" stop-color="#0B41FF"/>
</linearGradient>
<linearGradient id="paint14_linear_57_5700" x1="1.67017" y1="25.9535" x2="43.5789" y2="26.0067" gradientUnits="userSpaceOnUse">
<stop stop-color="#0B41FF"/>
<stop offset="1" stop-color="#3852AE"/>
</linearGradient>
<linearGradient id="paint15_linear_57_5700" x1="1.75437" y1="25.2802" x2="43.5874" y2="25.3332" gradientUnits="userSpaceOnUse">
<stop stop-color="#9CAFF4"/>
<stop offset="1" stop-color="#0B41FF"/>
</linearGradient>
<linearGradient id="paint16_linear_57_5700" x1="0.467285" y1="23.894" x2="46.1328" y2="23.9519" gradientUnits="userSpaceOnUse">
<stop stop-color="#0B41FF"/>
<stop offset="1" stop-color="#3852AE"/>
</linearGradient>
<linearGradient id="paint17_linear_57_5700" x1="0.572224" y1="23.7811" x2="46.2568" y2="23.8391" gradientUnits="userSpaceOnUse">
<stop stop-color="#9CAFF4"/>
<stop offset="1" stop-color="#0B41FF"/>
</linearGradient>
<linearGradient id="paint18_linear_57_5700" x1="0.408697" y1="24.0754" x2="45.8773" y2="24.133" gradientUnits="userSpaceOnUse">
<stop stop-color="#0B41FF"/>
<stop offset="1" stop-color="#3852AE"/>
</linearGradient>
<linearGradient id="paint19_linear_57_5700" x1="0.47706" y1="23.9744" x2="45.943" y2="24.032" gradientUnits="userSpaceOnUse">
<stop stop-color="#9CAFF4"/>
<stop offset="1" stop-color="#0B41FF"/>
</linearGradient>
<linearGradient id="paint20_linear_57_5700" x1="0.371645" y1="24.2744" x2="45.7955" y2="24.332" gradientUnits="userSpaceOnUse">
<stop stop-color="#0B41FF"/>
<stop offset="1" stop-color="#3852AE"/>
</linearGradient>
<linearGradient id="paint21_linear_57_5700" x1="0.362788" y1="24.1677" x2="45.7829" y2="24.2253" gradientUnits="userSpaceOnUse">
<stop stop-color="#9CAFF4"/>
<stop offset="1" stop-color="#0B41FF"/>
</linearGradient>
<linearGradient id="paint22_linear_57_5700" x1="0.39459" y1="24.5012" x2="45.8085" y2="24.5588" gradientUnits="userSpaceOnUse">
<stop stop-color="#0B41FF"/>
<stop offset="1" stop-color="#3852AE"/>
</linearGradient>
<linearGradient id="paint23_linear_57_5700" x1="0.370137" y1="24.3968" x2="45.7841" y2="24.4544" gradientUnits="userSpaceOnUse">
<stop stop-color="#9CAFF4"/>
<stop offset="1" stop-color="#0B41FF"/>
</linearGradient>
<linearGradient id="paint24_linear_57_5700" x1="0.459556" y1="24.6949" x2="45.9172" y2="24.7526" gradientUnits="userSpaceOnUse">
<stop stop-color="#0B41FF"/>
<stop offset="1" stop-color="#3852AE"/>
</linearGradient>
<linearGradient id="paint25_linear_57_5700" x1="0.476119" y1="24.6322" x2="45.8083" y2="24.6896" gradientUnits="userSpaceOnUse">
<stop stop-color="#9CAFF4"/>
<stop offset="1" stop-color="#0B41FF"/>
</linearGradient>
<linearGradient id="paint26_linear_57_5700" x1="0.525434" y1="24.8679" x2="45.9233" y2="24.9255" gradientUnits="userSpaceOnUse">
<stop stop-color="#0B41FF"/>
<stop offset="1" stop-color="#3852AE"/>
</linearGradient>
<linearGradient id="paint27_linear_57_5700" x1="0.541532" y1="24.8249" x2="45.9158" y2="24.8825" gradientUnits="userSpaceOnUse">
<stop stop-color="#9CAFF4"/>
<stop offset="1" stop-color="#0B41FF"/>
</linearGradient>
<linearGradient id="paint28_linear_57_5700" x1="0.340863" y1="25.1127" x2="45.8767" y2="25.1704" gradientUnits="userSpaceOnUse">
<stop stop-color="#0B41FF"/>
<stop offset="1" stop-color="#3852AE"/>
</linearGradient>
<linearGradient id="paint29_linear_57_5700" x1="0.410127" y1="25.0561" x2="45.8398" y2="25.1137" gradientUnits="userSpaceOnUse">
<stop stop-color="#9CAFF4"/>
<stop offset="1" stop-color="#0B41FF"/>
</linearGradient>
<linearGradient id="paint30_linear_57_5700" x1="0.0263915" y1="25.3035" x2="45.7932" y2="25.3616" gradientUnits="userSpaceOnUse">
<stop stop-color="#0B41FF"/>
<stop offset="1" stop-color="#3852AE"/>
</linearGradient>
<linearGradient id="paint31_linear_57_5700" x1="0.210414" y1="25.2212" x2="45.7595" y2="25.2789" gradientUnits="userSpaceOnUse">
<stop stop-color="#9CAFF4"/>
<stop offset="1" stop-color="#0B41FF"/>
</linearGradient>
</defs>
</svg>
